<?xml version="1.0" encoding="UTF-8" standalone="no"?>
<!DOCTYPE svg PUBLIC "-//W3C//DTD SVG 1.1//EN"
 "http://www.w3.org/Graphics/SVG/1.1/DTD/svg11.dtd">
<!-- Generated by graphviz version 14.1.2 (0)
 -->
<!-- Title: ci_workflows Pages: 1 -->
<svg width="1022pt" height="582pt"
 viewBox="0.00 0.00 1022.00 582.00" xmlns="http://www.w3.org/2000/svg" xmlns:xlink="http://www.w3.org/1999/xlink">
<g id="graph0" class="graph" transform="scale(1 1) rotate(0) translate(4 577.75)">
<title>ci_workflows</title>
<polygon fill="white" stroke="none" points="-4,4 -4,-577.75 1018.17,-577.75 1018.17,4 -4,4"/>
<text xml:space="preserve" text-anchor="middle" x="507.08" y="-556.45" font-family="Helvetica,sans-Serif" font-size="14.00">GitHub Actions CI/CD Pipeline</text>
<g id="clust1" class="cluster">
<title>cluster_triggers</title>
<polygon fill="#f5f5f5" stroke="#e8e8e8" points="8,-221 8,-537 122.57,-537 122.57,-221 8,-221"/>
<text xml:space="preserve" text-anchor="middle" x="65.28" y="-519.7" font-family="Helvetica,sans-Serif" font-size="14.00">Triggers</text>
</g>
<g id="clust2" class="cluster">
<title>cluster_ci</title>
<polygon fill="#f0fff0" stroke="#d5e8d4" points="155.94,-444 155.94,-542 582.37,-542 582.37,-444 155.94,-444"/>
<text xml:space="preserve" text-anchor="middle" x="369.15" y="-524.7" font-family="Helvetica,sans-Serif" font-size="14.00">CI.yml</text>
</g>
<g id="clust3" class="cluster">
<title>cluster_docs</title>
<polygon fill="#f0f7ff" stroke="#dceefb" points="143.57,-296 143.57,-436 590.99,-436 590.99,-296 143.57,-296"/>
<text xml:space="preserve" text-anchor="middle" x="367.28" y="-418.7" font-family="Helvetica,sans-Serif" font-size="14.00">Documentation.yml</text>
</g>
<g id="clust4" class="cluster">
<title>cluster_commenter</title>
<polygon fill="#f9f5ff" stroke="#e1d5e7" points="651.12,-291 651.12,-377 1006.17,-377 1006.17,-291 651.12,-291"/>
<text xml:space="preserve" text-anchor="middle" x="828.64" y="-359.7" font-family="Helvetica,sans-Serif" font-size="14.00">ci_doc_commenter.yml</text>
</g>
<g id="clust5" class="cluster">
<title>cluster_precommit</title>
<polygon fill="#fffef0" stroke="#fff2cc" points="172.44,-166 172.44,-288 604.12,-288 604.12,-166 172.44,-166"/>
<text xml:space="preserve" text-anchor="middle" x="388.28" y="-270.7" font-family="Helvetica,sans-Serif" font-size="14.00">pre_commit.yml</text>
</g>
<g id="clust6" class="cluster">
<title>cluster_auto</title>
<polygon fill="#fff5f5" stroke="#fce4ec" points="155.57,-8 155.57,-158 280.17,-158 280.17,-8 155.57,-8"/>
<text xml:space="preserve" text-anchor="middle" x="217.87" y="-140.7" font-family="Helvetica,sans-Serif" font-size="14.00">Automation</text>
</g>
<!-- push_main -->
<g id="node1" class="node">
<title>push_main</title>
<ellipse fill="#e8e8e8" stroke="black" cx="65.28" cy="-355" rx="49.28" ry="18"/>
<text xml:space="preserve" text-anchor="middle" x="65.28" y="-351.5" font-family="Helvetica,sans-Serif" font-size="10.00">push to main</text>
</g>
<!-- ci_matrix -->
<g id="node6" class="node">
<title>ci_matrix</title>
<polygon fill="#a8d5a2" stroke="black" points="271.79,-510.04 163.94,-510.04 163.94,-451.96 271.79,-451.96 271.79,-510.04"/>
<text xml:space="preserve" text-anchor="middle" x="217.87" y="-495.5" font-family="Helvetica,sans-Serif" font-size="10.00">Matrix:</text>
<text xml:space="preserve" text-anchor="middle" x="217.87" y="-483.5" font-family="Helvetica,sans-Serif" font-size="10.00">Julia 1.10, 1.12, pre</text>
<text xml:space="preserve" text-anchor="middle" x="217.87" y="-471.5" font-family="Helvetica,sans-Serif" font-size="10.00">ubuntu, macos</text>
<text xml:space="preserve" text-anchor="middle" x="217.87" y="-459.5" font-family="Helvetica,sans-Serif" font-size="10.00">x64</text>
</g>
<!-- push_main&#45;&gt;ci_matrix -->
<g id="edge1" class="edge">
<title>push_main&#45;&gt;ci_matrix</title>
<path fill="none" stroke="black" d="M103.58,-366.66C110.83,-370.49 117.68,-375.5 122.57,-382 138.8,-403.61 116.18,-420.5 132.57,-442 138.2,-449.39 145.56,-455.42 153.59,-460.34"/>
<polygon fill="black" stroke="black" points="151.86,-463.38 162.32,-465.08 155.2,-457.23 151.86,-463.38"/>
</g>
<!-- doc_install -->
<g id="node9" class="node">
<title>doc_install</title>
<polygon fill="#b3d9ff" stroke="black" points="284.17,-367 151.57,-367 151.57,-331 284.17,-331 284.17,-367"/>
<text xml:space="preserve" text-anchor="middle" x="217.87" y="-351.5" font-family="Helvetica,sans-Serif" font-size="10.00">Install deps</text>
<text xml:space="preserve" text-anchor="middle" x="217.87" y="-339.5" font-family="Helvetica,sans-Serif" font-size="10.00">Pkg.develop + instantiate</text>
</g>
<!-- push_main&#45;&gt;doc_install -->
<g id="edge2" class="edge">
<title>push_main&#45;&gt;doc_install</title>
<path fill="none" stroke="black" d="M114.76,-353.07C122.83,-352.75 131.37,-352.41 139.94,-352.07"/>
<polygon fill="black" stroke="black" points="139.82,-355.57 149.68,-351.68 139.55,-348.58 139.82,-355.57"/>
</g>
<!-- pc_pixi -->
<g id="node16" class="node">
<title>pc_pixi</title>
<polygon fill="#ffe599" stroke="black" points="255.29,-256 180.44,-256 180.44,-220 255.29,-220 255.29,-256"/>
<text xml:space="preserve" text-anchor="middle" x="217.87" y="-240.5" font-family="Helvetica,sans-Serif" font-size="10.00">setup&#45;pixi</text>
<text xml:space="preserve" text-anchor="middle" x="217.87" y="-228.5" font-family="Helvetica,sans-Serif" font-size="10.00">activate env</text>
</g>
<!-- push_main&#45;&gt;pc_pixi -->
<g id="edge3" class="edge">
<title>push_main&#45;&gt;pc_pixi</title>
<path fill="none" stroke="black" d="M101.06,-342.3C108.7,-338.48 116.35,-333.73 122.57,-328 136.18,-315.44 131.19,-305.78 143.57,-292 153.32,-281.15 165.57,-271.1 177.25,-262.68"/>
<polygon fill="black" stroke="black" points="178.98,-265.75 185.19,-257.17 174.98,-260 178.98,-265.75"/>
</g>
<!-- push_tag -->
<g id="node2" class="node">
<title>push_tag</title>
<ellipse fill="#e8e8e8" stroke="black" cx="65.28" cy="-247" rx="37.41" ry="18"/>
<text xml:space="preserve" text-anchor="middle" x="65.28" y="-243.5" font-family="Helvetica,sans-Serif" font-size="10.00">push tag</text>
</g>
<!-- push_tag&#45;&gt;ci_matrix -->
<g id="edge4" class="edge">
<title>push_tag&#45;&gt;ci_matrix</title>
<path fill="none" stroke="black" d="M98.22,-255.83C107.44,-259.9 116.61,-265.74 122.57,-274 144.31,-304.16 122.78,-409.17 143.57,-440 146.62,-444.52 150.34,-448.6 154.47,-452.26"/>
<polygon fill="black" stroke="black" points="152.21,-454.93 162.26,-458.29 156.49,-449.4 152.21,-454.93"/>
</g>
<!-- push_tag&#45;&gt;doc_install -->
<g id="edge5" class="edge">
<title>push_tag&#45;&gt;doc_install</title>
<path fill="none" stroke="black" d="M94.26,-258.66C103.55,-262.99 113.76,-268.26 122.57,-274 132.86,-280.72 134.04,-284.22 143.57,-292 156.53,-302.58 171.03,-313.96 183.69,-323.74"/>
<polygon fill="black" stroke="black" points="181.28,-326.3 191.34,-329.62 185.55,-320.75 181.28,-326.3"/>
</g>
<!-- tagbot -->
<g id="node20" class="node">
<title>tagbot</title>
<polygon fill="#f5b7b1" stroke="black" points="263.92,-126.04 171.82,-126.04 171.82,-79.96 263.92,-79.96 263.92,-126.04"/>
<text xml:space="preserve" text-anchor="middle" x="217.87" y="-111.5" font-family="Helvetica,sans-Serif" font-size="10.00">TagBot.yml</text>
<text xml:space="preserve" text-anchor="middle" x="217.87" y="-99.5" font-family="Helvetica,sans-Serif" font-size="10.00">auto&#45;create</text>
<text xml:space="preserve" text-anchor="middle" x="217.87" y="-87.5" font-family="Helvetica,sans-Serif" font-size="10.00">GitHub releases</text>
</g>
<!-- push_tag&#45;&gt;tagbot -->
<g id="edge6" class="edge">
<title>push_tag&#45;&gt;tagbot</title>
<path fill="none" stroke="black" d="M80.1,-230.32C95.04,-212.65 119.9,-184.29 143.57,-162 153.98,-152.19 165.85,-142.19 176.96,-133.27"/>
<polygon fill="black" stroke="black" points="178.81,-136.27 184.48,-127.32 174.47,-130.78 178.81,-136.27"/>
</g>
<!-- pull_request -->
<g id="node3" class="node">
<title>pull_request</title>
<ellipse fill="#e8e8e8" stroke="black" cx="65.28" cy="-301" rx="46.91" ry="18"/>
<text xml:space="preserve" text-anchor="middle" x="65.28" y="-297.5" font-family="Helvetica,sans-Serif" font-size="10.00">pull_request</text>
</g>
<!-- pull_request&#45;&gt;ci_matrix -->
<g id="edge7" class="edge">
<title>pull_request&#45;&gt;ci_matrix</title>
<path fill="none" stroke="black" d="M102.97,-312.01C110.53,-315.91 117.67,-321.11 122.57,-328 134.09,-344.22 127.09,-397.87 132.57,-417 135.69,-427.89 135.81,-431.74 143.57,-440 146.82,-443.47 150.44,-446.72 154.27,-449.75"/>
<polygon fill="black" stroke="black" points="152.15,-452.54 162.3,-455.54 156.24,-446.86 152.15,-452.54"/>
</g>
<!-- pull_request&#45;&gt;doc_install -->
<g id="edge8" class="edge">
<title>pull_request&#45;&gt;doc_install</title>
<path fill="none" stroke="black" d="M102.35,-312.5C116.14,-316.89 132.36,-322.06 148.18,-327.11"/>
<polygon fill="black" stroke="black" points="147.01,-330.41 157.6,-330.11 149.14,-323.74 147.01,-330.41"/>
</g>
<!-- pull_request&#45;&gt;pc_pixi -->
<g id="edge9" class="edge">
<title>pull_request&#45;&gt;pc_pixi</title>
<path fill="none" stroke="black" d="M100.83,-288.97C108.65,-285.08 116.44,-280.14 122.57,-274 129.87,-266.68 124.34,-259.27 132.57,-253 142.99,-245.05 156.23,-240.8 169.12,-238.64"/>
<polygon fill="black" stroke="black" points="169.28,-242.15 178.77,-237.43 168.41,-235.21 169.28,-242.15"/>
</g>
<!-- schedule -->
<g id="node4" class="node">
<title>schedule</title>
<ellipse fill="#e8e8e8" stroke="black" cx="65.28" cy="-415" rx="37.02" ry="24.1"/>
<text xml:space="preserve" text-anchor="middle" x="65.28" y="-417.5" font-family="Helvetica,sans-Serif" font-size="10.00">weekly</text>
<text xml:space="preserve" text-anchor="middle" x="65.28" y="-405.5" font-family="Helvetica,sans-Serif" font-size="10.00">cron</text>
</g>
<!-- schedule&#45;&gt;doc_install -->
<g id="edge10" class="edge">
<title>schedule&#45;&gt;doc_install</title>
<path fill="none" stroke="black" d="M96.76,-401.64C116.12,-393.16 141.7,-381.94 164.28,-372.05"/>
<polygon fill="black" stroke="black" points="165.6,-375.29 173.36,-368.07 162.79,-368.88 165.6,-375.29"/>
</g>
<!-- workflow_dispatch -->
<g id="node5" class="node">
<title>workflow_dispatch</title>
<ellipse fill="#e8e8e8" stroke="black" cx="65.28" cy="-481" rx="41.26" ry="24.1"/>
<text xml:space="preserve" text-anchor="middle" x="65.28" y="-483.5" font-family="Helvetica,sans-Serif" font-size="10.00">manual</text>
<text xml:space="preserve" text-anchor="middle" x="65.28" y="-471.5" font-family="Helvetica,sans-Serif" font-size="10.00">dispatch</text>
</g>
<!-- workflow_dispatch&#45;&gt;ci_matrix -->
<g id="edge11" class="edge">
<title>workflow_dispatch&#45;&gt;ci_matrix</title>
<path fill="none" stroke="black" d="M107.03,-481C121.05,-481 137.11,-481 152.54,-481"/>
<polygon fill="black" stroke="black" points="152.11,-484.5 162.11,-481 152.11,-477.5 152.11,-484.5"/>
</g>
<!-- ci_build -->
<g id="node7" class="node">
<title>ci_build</title>
<polygon fill="#a8d5a2" stroke="black" points="401.27,-499 323.42,-499 323.42,-463 401.27,-463 401.27,-499"/>
<text xml:space="preserve" text-anchor="middle" x="362.34" y="-477.5" font-family="Helvetica,sans-Serif" font-size="10.00">julia&#45;buildpkg</text>
</g>
<!-- ci_matrix&#45;&gt;ci_build -->
<g id="edge12" class="edge">
<title>ci_matrix&#45;&gt;ci_build</title>
<path fill="none" stroke="black" d="M271.92,-481C284.88,-481 298.71,-481 311.51,-481"/>
<polygon fill="black" stroke="black" points="311.42,-484.5 321.42,-481 311.42,-477.5 311.42,-484.5"/>
</g>
<!-- ci_test -->
<g id="node8" class="node">
<title>ci_test</title>
<polygon fill="#a8d5a2" stroke="black" points="574.37,-499 495.77,-499 495.77,-463 574.37,-463 574.37,-499"/>
<text xml:space="preserve" text-anchor="middle" x="535.07" y="-483.5" font-family="Helvetica,sans-Serif" font-size="10.00">julia&#45;runtest</text>
<text xml:space="preserve" text-anchor="middle" x="535.07" y="-471.5" font-family="Helvetica,sans-Serif" font-size="10.00">(14 test files)</text>
</g>
<!-- ci_build&#45;&gt;ci_test -->
<g id="edge13" class="edge">
<title>ci_build&#45;&gt;ci_test</title>
<path fill="none" stroke="black" d="M401.66,-481C425.98,-481 457.71,-481 484.01,-481"/>
<polygon fill="black" stroke="black" points="483.78,-484.5 493.78,-481 483.78,-477.5 483.78,-484.5"/>
</g>
<!-- doc_build -->
<g id="node10" class="node">
<title>doc_build</title>
<polygon fill="#b3d9ff" stroke="black" points="403.52,-367 321.17,-367 321.17,-331 403.52,-331 403.52,-367"/>
<text xml:space="preserve" text-anchor="middle" x="362.34" y="-351.5" font-family="Helvetica,sans-Serif" font-size="10.00">Documenter.jl</text>
<text xml:space="preserve" text-anchor="middle" x="362.34" y="-339.5" font-family="Helvetica,sans-Serif" font-size="10.00">build + deploy</text>
</g>
<!-- doc_install&#45;&gt;doc_build -->
<g id="edge14" class="edge">
<title>doc_install&#45;&gt;doc_build</title>
<path fill="none" stroke="black" d="M284.27,-349C292.72,-349 301.28,-349 309.47,-349"/>
<polygon fill="black" stroke="black" points="309.25,-352.5 319.25,-349 309.25,-345.5 309.25,-352.5"/>
</g>
<!-- doc_artifact -->
<g id="node11" class="node">
<title>doc_artifact</title>
<polygon fill="#b3d9ff" stroke="black" points="577.74,-340 492.39,-340 492.39,-304 577.74,-304 577.74,-340"/>
<text xml:space="preserve" text-anchor="middle" x="535.07" y="-324.5" font-family="Helvetica,sans-Serif" font-size="10.00">Upload artifact</text>
<text xml:space="preserve" text-anchor="middle" x="535.07" y="-312.5" font-family="Helvetica,sans-Serif" font-size="10.00">docs/build</text>
</g>
<!-- doc_build&#45;&gt;doc_artifact -->
<g id="edge15" class="edge">
<title>doc_build&#45;&gt;doc_artifact</title>
<path fill="none" stroke="black" d="M403.8,-342.6C426.89,-338.95 456.1,-334.33 481.01,-330.39"/>
<polygon fill="black" stroke="black" points="481.29,-333.89 490.62,-328.87 480.2,-326.98 481.29,-333.89"/>
</g>
<!-- doc_pages -->
<g id="node12" class="node">
<title>doc_pages</title>
<polygon fill="#99ccff" stroke="black" points="582.99,-404.04 491.14,-404.04 487.14,-400.04 487.14,-357.96 578.99,-357.96 582.99,-361.96 582.99,-404.04"/>
<polyline fill="none" stroke="black" points="578.99,-400.04 487.14,-400.04"/>
<polyline fill="none" stroke="black" points="578.99,-400.04 578.99,-357.96"/>
<polyline fill="none" stroke="black" points="578.99,-400.04 582.99,-404.04"/>
<text xml:space="preserve" text-anchor="middle" x="535.07" y="-389.5" font-family="Helvetica,sans-Serif" font-size="10.00">GitHub Pages</text>
<text xml:space="preserve" text-anchor="middle" x="535.07" y="-377.5" font-family="Helvetica,sans-Serif" font-size="10.00">lode&#45;org.github.io</text>
<text xml:space="preserve" text-anchor="middle" x="535.07" y="-365.5" font-family="Helvetica,sans-Serif" font-size="10.00">/ChemGP.jl</text>
</g>
<!-- doc_build&#45;&gt;doc_pages -->
<g id="edge16" class="edge">
<title>doc_build&#45;&gt;doc_pages</title>
<path fill="none" stroke="black" d="M403.8,-356.58C425.34,-360.62 452.2,-365.66 475.93,-370.1"/>
<polygon fill="black" stroke="black" points="474.98,-373.49 485.45,-371.89 476.27,-366.61 474.98,-373.49"/>
<text xml:space="preserve" text-anchor="middle" x="438.77" y="-377.86" font-family="Helvetica,sans-Serif" font-size="8.00">main/tags</text>
<text xml:space="preserve" text-anchor="middle" x="438.77" y="-368.11" font-family="Helvetica,sans-Serif" font-size="8.00">only</text>
</g>
<!-- commenter_trigger -->
<g id="node13" class="node">
<title>commenter_trigger</title>
<polygon fill="#d5b8e8" stroke="black" points="746.72,-345.04 659.12,-345.04 659.12,-298.96 746.72,-298.96 746.72,-345.04"/>
<text xml:space="preserve" text-anchor="middle" x="702.92" y="-330.5" font-family="Helvetica,sans-Serif" font-size="10.00">workflow_run:</text>
<text xml:space="preserve" text-anchor="middle" x="702.92" y="-318.5" font-family="Helvetica,sans-Serif" font-size="10.00">Documentation</text>
<text xml:space="preserve" text-anchor="middle" x="702.92" y="-306.5" font-family="Helvetica,sans-Serif" font-size="10.00">completed</text>
</g>
<!-- doc_artifact&#45;&gt;commenter_trigger -->
<g id="edge17" class="edge">
<title>doc_artifact&#45;&gt;commenter_trigger</title>
<path fill="none" stroke="black" stroke-dasharray="5,2" d="M577.92,-322C598.92,-322 624.62,-322 647.17,-322"/>
<polygon fill="black" stroke="black" points="647.12,-325.5 657.12,-322 647.12,-318.5 647.12,-325.5"/>
<text xml:space="preserve" text-anchor="middle" x="627.62" y="-324.15" font-family="Helvetica,sans-Serif" font-size="8.00">triggers</text>
</g>
<!-- commenter_action -->
<g id="node14" class="node">
<title>commenter_action</title>
<polygon fill="#d5b8e8" stroke="black" points="866.07,-345.04 783.72,-345.04 783.72,-298.96 866.07,-298.96 866.07,-345.04"/>
<text xml:space="preserve" text-anchor="middle" x="824.89" y="-330.5" font-family="Helvetica,sans-Serif" font-size="10.00">HaoZeke/</text>
<text xml:space="preserve" text-anchor="middle" x="824.89" y="-318.5" font-family="Helvetica,sans-Serif" font-size="10.00">doc&#45;previewer</text>
<text xml:space="preserve" text-anchor="middle" x="824.89" y="-306.5" font-family="Helvetica,sans-Serif" font-size="10.00">@v0.0.1</text>
</g>
<!-- commenter_trigger&#45;&gt;commenter_action -->
<g id="edge18" class="edge">
<title>commenter_trigger&#45;&gt;commenter_action</title>
<path fill="none" stroke="black" d="M746.89,-322C754.93,-322 763.42,-322 771.71,-322"/>
<polygon fill="black" stroke="black" points="771.71,-325.5 781.71,-322 771.71,-318.5 771.71,-325.5"/>
</g>
<!-- pr_comment -->
<g id="node15" class="node">
<title>pr_comment</title>
<polygon fill="#ce93d8" stroke="black" points="998.17,-345.04 907.07,-345.04 903.07,-341.04 903.07,-298.96 994.17,-298.96 998.17,-302.96 998.17,-345.04"/>
<polyline fill="none" stroke="black" points="994.17,-341.04 903.07,-341.04"/>
<polyline fill="none" stroke="black" points="994.17,-341.04 994.17,-298.96"/>
<polyline fill="none" stroke="black" points="994.17,-341.04 998.17,-345.04"/>
<text xml:space="preserve" text-anchor="middle" x="950.62" y="-330.5" font-family="Helvetica,sans-Serif" font-size="10.00">PR comment</text>
<text xml:space="preserve" text-anchor="middle" x="950.62" y="-318.5" font-family="Helvetica,sans-Serif" font-size="10.00">with doc preview</text>
<text xml:space="preserve" text-anchor="middle" x="950.62" y="-306.5" font-family="Helvetica,sans-Serif" font-size="10.00">link</text>
</g>
<!-- commenter_action&#45;&gt;pr_comment -->
<g id="edge19" class="edge">
<title>commenter_action&#45;&gt;pr_comment</title>
<path fill="none" stroke="black" d="M866.4,-322C874.45,-322 883.04,-322 891.53,-322"/>
<polygon fill="black" stroke="black" points="891.49,-325.5 901.49,-322 891.49,-318.5 891.49,-325.5"/>
</g>
<!-- pc_prek -->
<g id="node17" class="node">
<title>pc_prek</title>
<polygon fill="#ffe599" stroke="black" points="401.27,-250 323.42,-250 323.42,-214 401.27,-214 401.27,-250"/>
<text xml:space="preserve" text-anchor="middle" x="362.34" y="-234.5" font-family="Helvetica,sans-Serif" font-size="10.00">pipx run prek</text>
<text xml:space="preserve" text-anchor="middle" x="362.34" y="-222.5" font-family="Helvetica,sans-Serif" font-size="10.00">run &#45;a</text>
</g>
<!-- pc_pixi&#45;&gt;pc_prek -->
<g id="edge20" class="edge">
<title>pc_pixi&#45;&gt;pc_prek</title>
<path fill="none" stroke="black" d="M255.56,-236.45C272.61,-235.74 293.16,-234.87 311.59,-234.1"/>
<polygon fill="black" stroke="black" points="311.68,-237.59 321.52,-233.68 311.38,-230.6 311.68,-237.59"/>
</g>
<!-- pc_hooks -->
<g id="node18" class="node">
<title>pc_hooks</title>
<polygon fill="#ffe599" stroke="black" points="596.12,-256.04 474.02,-256.04 474.02,-173.96 596.12,-173.96 596.12,-256.04"/>
<text xml:space="preserve" text-anchor="middle" x="535.07" y="-241.5" font-family="Helvetica,sans-Serif" font-size="10.00">Hooks:</text>
<text xml:space="preserve" text-anchor="middle" x="535.07" y="-229.5" font-family="Helvetica,sans-Serif" font-size="10.00">trailing&#45;whitespace</text>
<text xml:space="preserve" text-anchor="middle" x="535.07" y="-217.5" font-family="Helvetica,sans-Serif" font-size="10.00">end&#45;of&#45;file&#45;fixer</text>
<text xml:space="preserve" text-anchor="middle" x="535.07" y="-205.5" font-family="Helvetica,sans-Serif" font-size="10.00">check&#45;yaml</text>
<text xml:space="preserve" text-anchor="middle" x="535.07" y="-193.5" font-family="Helvetica,sans-Serif" font-size="10.00">check&#45;added&#45;large&#45;files</text>
<text xml:space="preserve" text-anchor="middle" x="535.07" y="-181.5" font-family="Helvetica,sans-Serif" font-size="10.00">julia&#45;formatter</text>
</g>
<!-- pc_prek&#45;&gt;pc_hooks -->
<g id="edge21" class="edge">
<title>pc_prek&#45;&gt;pc_hooks</title>
<path fill="none" stroke="black" d="M401.66,-228.18C419.57,-226.4 441.51,-224.22 462.34,-222.14"/>
<polygon fill="black" stroke="black" points="462.65,-225.63 472.26,-221.15 461.96,-218.66 462.65,-225.63"/>
</g>
<!-- compat -->
<g id="node19" class="node">
<title>compat</title>
<polygon fill="#f5b7b1" stroke="black" points="272.17,-62.04 163.57,-62.04 163.57,-15.96 272.17,-15.96 272.17,-62.04"/>
<text xml:space="preserve" text-anchor="middle" x="217.87" y="-47.5" font-family="Helvetica,sans-Serif" font-size="10.00">CompatHelper.yml</text>
<text xml:space="preserve" text-anchor="middle" x="217.87" y="-35.5" font-family="Helvetica,sans-Serif" font-size="10.00">auto&#45;update</text>
<text xml:space="preserve" text-anchor="middle" x="217.87" y="-23.5" font-family="Helvetica,sans-Serif" font-size="10.00">dependency bounds</text>
</g>
</g>
</svg>
