<?xml version="1.0" encoding="UTF-8" standalone="no"?>
<!DOCTYPE svg PUBLIC "-//W3C//DTD SVG 1.1//EN"
 "http://www.w3.org/Graphics/SVG/1.1/DTD/svg11.dtd">
<!-- Generated by graphviz version 14.1.2 (0)
 -->
<!-- Title: optimizer_flow Pages: 1 -->
<svg width="1245pt" height="768pt"
 viewBox="0.00 0.00 1245.00 768.00" xmlns="http://www.w3.org/2000/svg" xmlns:xlink="http://www.w3.org/1999/xlink">
<g id="graph0" class="graph" transform="scale(1 1) rotate(0) translate(4 764.15)">
<title>optimizer_flow</title>
<polygon fill="white" stroke="none" points="-4,4 -4,-764.15 1241,-764.15 1241,4 -4,4"/>
<text xml:space="preserve" text-anchor="middle" x="618.5" y="-742.85" font-family="Helvetica,sans-Serif" font-size="14.00">Optimization Algorithm Data Flow</text>
<g id="clust1" class="cluster">
<title>cluster_minimize</title>
<polygon fill="#f0fff0" stroke="#d5e8d4" points="353,-171.5 353,-728.4 569,-728.4 569,-171.5 353,-171.5"/>
<text xml:space="preserve" text-anchor="middle" x="461" y="-711.1" font-family="Helvetica,sans-Serif" font-size="14.00">gp_minimize</text>
</g>
<g id="clust2" class="cluster">
<title>cluster_dimer</title>
<polygon fill="#f0f7ff" stroke="#dceefb" points="8,-89.75 8,-728.4 197,-728.4 197,-89.75 8,-89.75"/>
<text xml:space="preserve" text-anchor="middle" x="102.5" y="-711.1" font-family="Helvetica,sans-Serif" font-size="14.00">gp_dimer</text>
</g>
<g id="clust3" class="cluster">
<title>cluster_otgpd</title>
<polygon fill="#f9f5ff" stroke="#e1d5e7" points="609,-8 609,-621.57 823,-621.57 823,-8 609,-8"/>
<text xml:space="preserve" text-anchor="middle" x="716" y="-604.27" font-family="Helvetica,sans-Serif" font-size="14.00">otgpd</text>
</g>
<g id="clust4" class="cluster">
<title>cluster_neb</title>
<polygon fill="#fffef0" stroke="#fff2cc" points="853,-258.29 853,-728.4 1229,-728.4 1229,-258.29 853,-258.29"/>
<text xml:space="preserve" text-anchor="middle" x="1041" y="-711.1" font-family="Helvetica,sans-Serif" font-size="14.00">NEB Variants</text>
</g>
<!-- oracle -->
<g id="node1" class="node">
<title>oracle</title>
<polygon fill="#f5b7b1" stroke="black" points="709.18,-667.85 709.18,-689.46 671.58,-704.74 618.42,-704.74 580.82,-689.46 580.82,-667.85 618.42,-652.57 671.58,-652.57 709.18,-667.85"/>
<polygon fill="none" stroke="black" points="713.18,-665.16 713.18,-692.15 672.36,-708.74 617.64,-708.74 576.82,-692.15 576.82,-665.16 617.64,-648.57 672.36,-648.57 713.18,-665.16"/>
<text xml:space="preserve" text-anchor="middle" x="645" y="-681.15" font-family="Helvetica,sans-Serif" font-size="10.00">Oracle</text>
<text xml:space="preserve" text-anchor="middle" x="645" y="-669.15" font-family="Helvetica,sans-Serif" font-size="10.00">(true potential)</text>
</g>
<!-- min_eval -->
<g id="node8" class="node">
<title>min_eval</title>
<polygon fill="#a8d5a2" stroke="black" points="533.05,-403.87 428.95,-403.87 428.95,-367.87 533.05,-367.87 533.05,-403.87"/>
<text xml:space="preserve" text-anchor="middle" x="481" y="-388.37" font-family="Helvetica,sans-Serif" font-size="10.00">Oracle at</text>
<text xml:space="preserve" text-anchor="middle" x="481" y="-376.37" font-family="Helvetica,sans-Serif" font-size="10.00">proposed minimum</text>
</g>
<!-- oracle&#45;&gt;min_eval -->
<g id="edge1" class="edge">
<title>oracle&#45;&gt;min_eval</title>
<path fill="none" stroke="black" d="M620.53,-648.19C614.7,-639.98 609.01,-630.78 605,-621.57 569.7,-540.61 619.45,-496.45 565,-426.91 559.13,-419.41 551.51,-413.25 543.26,-408.19"/>
<polygon fill="black" stroke="black" points="545.13,-405.23 534.67,-403.49 541.76,-411.36 545.13,-405.23"/>
</g>
<!-- dim_outer -->
<g id="node12" class="node">
<title>dim_outer</title>
<polygon fill="#b3d9ff" stroke="black" points="184.55,-584.78 71.45,-584.78 71.45,-548.78 184.55,-548.78 184.55,-584.78"/>
<text xml:space="preserve" text-anchor="middle" x="128" y="-569.28" font-family="Helvetica,sans-Serif" font-size="10.00">OUTER: Oracle eval</text>
<text xml:space="preserve" text-anchor="middle" x="128" y="-557.28" font-family="Helvetica,sans-Serif" font-size="10.00">at midpoint + images</text>
</g>
<!-- oracle&#45;&gt;dim_outer -->
<g id="edge2" class="edge">
<title>oracle&#45;&gt;dim_outer</title>
<path fill="none" stroke="black" d="M598.04,-656.26C589.84,-653.23 581.27,-650.49 573,-648.57 491.83,-629.74 276.98,-650.94 199,-621.57 182.23,-615.25 166.1,-603.64 153.46,-592.81"/>
<polygon fill="black" stroke="black" points="155.82,-590.23 146.04,-586.16 151.15,-595.44 155.82,-590.23"/>
</g>
<!-- ot_init_rot -->
<g id="node18" class="node">
<title>ot_init_rot</title>
<polygon fill="#d5b8e8" stroke="black" points="745.92,-589.82 644.08,-589.82 644.08,-543.74 745.92,-543.74 745.92,-589.82"/>
<text xml:space="preserve" text-anchor="middle" x="695" y="-575.28" font-family="Helvetica,sans-Serif" font-size="10.00">Initial rotation</text>
<text xml:space="preserve" text-anchor="middle" x="695" y="-563.28" font-family="Helvetica,sans-Serif" font-size="10.00">on TRUE potential</text>
<text xml:space="preserve" text-anchor="middle" x="695" y="-551.28" font-family="Helvetica,sans-Serif" font-size="10.00">(optional)</text>
</g>
<!-- oracle&#45;&gt;ot_init_rot -->
<g id="edge4" class="edge">
<title>oracle&#45;&gt;ot_init_rot</title>
<path fill="none" stroke="black" d="M647.11,-648.1C648.15,-641.84 649.71,-635.38 652,-629.57 656.17,-619.02 662.46,-608.51 668.95,-599.24"/>
<polygon fill="black" stroke="black" points="671.69,-601.41 674.81,-591.29 666.06,-597.26 671.69,-601.41"/>
</g>
<!-- ot_outer -->
<g id="node19" class="node">
<title>ot_outer</title>
<polygon fill="#d5b8e8" stroke="black" points="751.17,-495.7 638.83,-495.7 638.83,-459.7 751.17,-459.7 751.17,-495.7"/>
<text xml:space="preserve" text-anchor="middle" x="695" y="-480.2" font-family="Helvetica,sans-Serif" font-size="10.00">OUTER: Oracle eval</text>
<text xml:space="preserve" text-anchor="middle" x="695" y="-468.2" font-family="Helvetica,sans-Serif" font-size="10.00">+ optional image1</text>
</g>
<!-- oracle&#45;&gt;ot_outer -->
<g id="edge3" class="edge">
<title>oracle&#45;&gt;ot_outer</title>
<path fill="none" stroke="black" d="M670.11,-648.17C677.7,-640.98 686.56,-634.08 696,-629.57 707.94,-623.87 746.3,-631.53 755,-621.57 779.51,-593.51 769.4,-572.1 755,-537.74 749.49,-524.58 739.45,-512.87 729.14,-503.41"/>
<polygon fill="black" stroke="black" points="731.53,-500.85 721.66,-497.01 726.98,-506.17 731.53,-500.85"/>
</g>
<!-- neb_std -->
<g id="node26" class="node">
<title>neb_std</title>
<polygon fill="#ffcc80" stroke="black" points="974.55,-589.82 861.45,-589.82 861.45,-543.74 974.55,-543.74 974.55,-589.82"/>
<text xml:space="preserve" text-anchor="middle" x="918" y="-575.28" font-family="Helvetica,sans-Serif" font-size="10.00">neb_optimize</text>
<text xml:space="preserve" text-anchor="middle" x="918" y="-563.28" font-family="Helvetica,sans-Serif" font-size="10.00">oracle at ALL images</text>
<text xml:space="preserve" text-anchor="middle" x="918" y="-551.28" font-family="Helvetica,sans-Serif" font-size="10.00">every iteration</text>
</g>
<!-- oracle&#45;&gt;neb_std -->
<g id="edge5" class="edge">
<title>oracle&#45;&gt;neb_std</title>
<path fill="none" stroke="black" d="M672.77,-648.2C681.39,-640.83 691.43,-633.82 702,-629.57 753.65,-608.8 773.8,-637.96 827,-621.57 844.98,-616.03 863.16,-606.3 878.49,-596.62"/>
<polygon fill="black" stroke="black" points="880.41,-599.55 886.86,-591.14 876.57,-593.69 880.41,-599.55"/>
</g>
<!-- neb_aie -->
<g id="node27" class="node">
<title>neb_aie</title>
<polygon fill="#ffe599" stroke="black" points="1105.55,-595.82 992.45,-595.82 992.45,-537.74 1105.55,-537.74 1105.55,-595.82"/>
<text xml:space="preserve" text-anchor="middle" x="1049" y="-581.28" font-family="Helvetica,sans-Serif" font-size="10.00">gp_neb_aie</text>
<text xml:space="preserve" text-anchor="middle" x="1049" y="-569.28" font-family="Helvetica,sans-Serif" font-size="10.00">oracle at ALL images</text>
<text xml:space="preserve" text-anchor="middle" x="1049" y="-557.28" font-family="Helvetica,sans-Serif" font-size="10.00">per outer iter</text>
<text xml:space="preserve" text-anchor="middle" x="1049" y="-545.28" font-family="Helvetica,sans-Serif" font-size="10.00">GP relax inner</text>
</g>
<!-- oracle&#45;&gt;neb_aie -->
<g id="edge6" class="edge">
<title>oracle&#45;&gt;neb_aie</title>
<path fill="none" stroke="black" d="M680.76,-651.45C694.52,-642.81 710.83,-634.23 727,-629.57 781.9,-613.74 930.55,-641.76 984,-621.57 994.79,-617.49 1005.09,-610.83 1014.19,-603.57"/>
<polygon fill="black" stroke="black" points="1016.37,-606.31 1021.7,-597.16 1011.82,-600.99 1016.37,-606.31"/>
</g>
<!-- neb_oie -->
<g id="node28" class="node">
<title>neb_oie</title>
<polygon fill="#fff9c4" stroke="black" points="1220.67,-595.82 1123.33,-595.82 1123.33,-537.74 1220.67,-537.74 1220.67,-595.82"/>
<text xml:space="preserve" text-anchor="middle" x="1172" y="-581.28" font-family="Helvetica,sans-Serif" font-size="10.00">gp_neb_oie</text>
<text xml:space="preserve" text-anchor="middle" x="1172" y="-569.28" font-family="Helvetica,sans-Serif" font-size="10.00">oracle at 1 image</text>
<text xml:space="preserve" text-anchor="middle" x="1172" y="-557.28" font-family="Helvetica,sans-Serif" font-size="10.00">(max uncertainty)</text>
<text xml:space="preserve" text-anchor="middle" x="1172" y="-545.28" font-family="Helvetica,sans-Serif" font-size="10.00">GP relax rest</text>
</g>
<!-- oracle&#45;&gt;neb_oie -->
<g id="edge7" class="edge">
<title>oracle&#45;&gt;neb_oie</title>
<path fill="none" stroke="black" d="M693.64,-656.84C702.91,-653.58 712.65,-650.61 722,-648.57 764.76,-639.24 1074.9,-639.12 1115,-621.57 1124.42,-617.45 1133.24,-611.07 1141,-604.13"/>
<polygon fill="black" stroke="black" points="1143.43,-606.66 1148.2,-597.2 1138.57,-601.62 1143.43,-606.66"/>
</g>
<!-- gp -->
<g id="node2" class="node">
<title>gp</title>
<polygon fill="#a8d5a2" stroke="black" points="844.55,-696.65 735.45,-696.65 731.45,-692.65 731.45,-660.65 840.55,-660.65 844.55,-664.65 844.55,-696.65"/>
<polyline fill="none" stroke="black" points="840.55,-692.65 731.45,-692.65"/>
<polyline fill="none" stroke="black" points="840.55,-692.65 840.55,-660.65"/>
<polyline fill="none" stroke="black" points="840.55,-692.65 844.55,-696.65"/>
<text xml:space="preserve" text-anchor="middle" x="788" y="-681.15" font-family="Helvetica,sans-Serif" font-size="10.00">GP Surrogate</text>
<text xml:space="preserve" text-anchor="middle" x="788" y="-669.15" font-family="Helvetica,sans-Serif" font-size="10.00">train_model! / predict</text>
</g>
<!-- min_train -->
<g id="node6" class="node">
<title>min_train</title>
<polygon fill="#a8d5a2" stroke="black" points="550.42,-584.78 451.57,-584.78 451.57,-548.78 550.42,-548.78 550.42,-584.78"/>
<text xml:space="preserve" text-anchor="middle" x="501" y="-569.28" font-family="Helvetica,sans-Serif" font-size="10.00">Train GP on</text>
<text xml:space="preserve" text-anchor="middle" x="501" y="-557.28" font-family="Helvetica,sans-Serif" font-size="10.00">accumulated data</text>
</g>
<!-- gp&#45;&gt;min_train -->
<g id="edge8" class="edge">
<title>gp&#45;&gt;min_train</title>
<path fill="none" stroke="black" d="M785.66,-649.07C783.62,-641.63 780.08,-634.36 774,-629.57 759.23,-617.93 623.16,-626.44 605,-621.57 576.53,-613.93 546.95,-597.69 526.65,-585.04"/>
<polygon fill="black" stroke="black" points="782.18,-649.53 787.45,-658.73 789.07,-648.26 782.18,-649.53"/>
</g>
<!-- dim_train -->
<g id="node13" class="node">
<title>dim_train</title>
<polygon fill="#b3d9ff" stroke="black" points="158.3,-495.7 97.7,-495.7 97.7,-459.7 158.3,-459.7 158.3,-495.7"/>
<text xml:space="preserve" text-anchor="middle" x="128" y="-474.2" font-family="Helvetica,sans-Serif" font-size="10.00">Train GP</text>
</g>
<!-- gp&#45;&gt;dim_train -->
<g id="edge9" class="edge">
<title>gp&#45;&gt;dim_train</title>
<path fill="none" stroke="black" d="M744.44,-655.85C737.1,-652.94 729.45,-650.35 722,-648.57 668.97,-635.87 277,-652.36 232,-621.57 198.24,-598.47 218.21,-570.71 194,-537.74 182.26,-521.75 165.6,-506.89 151.95,-496.07"/>
<polygon fill="black" stroke="black" points="742.93,-659.02 753.51,-659.7 745.67,-652.57 742.93,-659.02"/>
</g>
<!-- ot_inner -->
<g id="node21" class="node">
<title>ot_inner</title>
<polygon fill="#d5b8e8" stroke="black" points="805.42,-302.29 664.58,-302.29 664.58,-266.29 805.42,-266.29 805.42,-302.29"/>
<text xml:space="preserve" text-anchor="middle" x="735" y="-286.79" font-family="Helvetica,sans-Serif" font-size="10.00">INNER: Rotate + Translate</text>
<text xml:space="preserve" text-anchor="middle" x="735" y="-274.79" font-family="Helvetica,sans-Serif" font-size="10.00">on GP (up to 10000 steps)</text>
</g>
<!-- gp&#45;&gt;ot_inner -->
<g id="edge10" class="edge">
<title>gp&#45;&gt;ot_inner</title>
<path fill="none" stroke="black" d="M794.44,-660.42C801.85,-639.02 813,-601.23 813,-567.78 813,-567.78 813,-567.78 813,-384.87 813,-354.51 790.25,-327.9 769.33,-309.84"/>
<polygon fill="black" stroke="black" points="771.66,-307.23 761.71,-303.6 767.23,-312.65 771.66,-307.23"/>
</g>
<!-- gp&#45;&gt;neb_aie -->
<g id="edge11" class="edge">
<title>gp&#45;&gt;neb_aie</title>
<path fill="none" stroke="black" d="M820.96,-660.18C829.88,-655.93 839.66,-651.72 849,-648.57 888.15,-635.36 899.45,-637.49 940,-629.57 959.51,-625.76 965.98,-629.96 984,-621.57 993.95,-616.94 1003.65,-610.41 1012.39,-603.48"/>
<polygon fill="black" stroke="black" points="1014.53,-606.26 1019.96,-597.16 1010.04,-600.89 1014.53,-606.26"/>
</g>
<!-- gp&#45;&gt;neb_oie -->
<g id="edge12" class="edge">
<title>gp&#45;&gt;neb_oie</title>
<path fill="none" stroke="black" d="M819.17,-660.27C828.51,-655.76 838.94,-651.39 849,-648.57 963.43,-616.53 1006.93,-670.98 1115,-621.57 1124.36,-617.29 1133.17,-610.84 1140.93,-603.88"/>
<polygon fill="black" stroke="black" points="1143.04,-606.71 1147.82,-597.26 1138.19,-601.66 1143.04,-606.71"/>
</g>
<!-- lbfgs -->
<g id="node3" class="node">
<title>lbfgs</title>
<polygon fill="#ffd9b3" stroke="black" points="342.55,-584.78 241.45,-584.78 241.45,-580.78 237.45,-580.78 237.45,-576.78 241.45,-576.78 241.45,-556.78 237.45,-556.78 237.45,-552.78 241.45,-552.78 241.45,-548.78 342.55,-548.78 342.55,-584.78"/>
<polyline fill="none" stroke="black" points="241.45,-580.78 245.45,-580.78 245.45,-576.78 241.45,-576.78"/>
<polyline fill="none" stroke="black" points="241.45,-556.78 245.45,-556.78 245.45,-552.78 241.45,-552.78"/>
<text xml:space="preserve" text-anchor="middle" x="292" y="-569.28" font-family="Helvetica,sans-Serif" font-size="10.00">L&#45;BFGS</text>
<text xml:space="preserve" text-anchor="middle" x="292" y="-557.28" font-family="Helvetica,sans-Serif" font-size="10.00">compute_direction</text>
</g>
<!-- min_opt -->
<g id="node7" class="node">
<title>min_opt</title>
<polygon fill="#a8d5a2" stroke="black" points="540.55,-500.74 361.45,-500.74 361.45,-454.66 540.55,-454.66 540.55,-500.74"/>
<text xml:space="preserve" text-anchor="middle" x="451" y="-486.2" font-family="Helvetica,sans-Serif" font-size="10.00">Optimize on GP surface</text>
<text xml:space="preserve" text-anchor="middle" x="451" y="-474.2" font-family="Helvetica,sans-Serif" font-size="10.00">+ soft trust penalty</text>
<text xml:space="preserve" text-anchor="middle" x="451" y="-462.2" font-family="Helvetica,sans-Serif" font-size="10.00">E_gp + u03bbu00b7max(0,d&#45;r)u00b2</text>
</g>
<!-- lbfgs&#45;&gt;min_opt -->
<g id="edge13" class="edge">
<title>lbfgs&#45;&gt;min_opt</title>
<path fill="none" stroke="black" d="M313.44,-548.39C325.74,-538.91 341.72,-527.38 357,-518.74 365.1,-514.16 373.83,-509.77 382.59,-505.7"/>
<polygon fill="black" stroke="black" points="383.8,-508.99 391.47,-501.68 380.92,-502.61 383.8,-508.99"/>
</g>
<!-- dim_rotate -->
<g id="node14" class="node">
<title>dim_rotate</title>
<polygon fill="#b3d9ff" stroke="black" points="189.05,-408.91 60.95,-408.91 60.95,-362.83 189.05,-362.83 189.05,-408.91"/>
<text xml:space="preserve" text-anchor="middle" x="125" y="-394.37" font-family="Helvetica,sans-Serif" font-size="10.00">INNER: Rotate on GP</text>
<text xml:space="preserve" text-anchor="middle" x="125" y="-382.37" font-family="Helvetica,sans-Serif" font-size="10.00">:simple / :lbfgs / :cg</text>
<text xml:space="preserve" text-anchor="middle" x="125" y="-370.37" font-family="Helvetica,sans-Serif" font-size="10.00">align to lowest curvature</text>
</g>
<!-- lbfgs&#45;&gt;dim_rotate -->
<g id="edge14" class="edge">
<title>lbfgs&#45;&gt;dim_rotate</title>
<path fill="none" stroke="black" d="M275.68,-548.3C247.3,-517.89 188.51,-454.91 153.34,-417.23"/>
<polygon fill="black" stroke="black" points="156.2,-415.17 146.82,-410.25 151.09,-419.95 156.2,-415.17"/>
</g>
<!-- dim_translate -->
<g id="node15" class="node">
<title>dim_translate</title>
<polygon fill="#b3d9ff" stroke="black" points="186.18,-307.33 55.83,-307.33 55.83,-261.25 186.18,-261.25 186.18,-307.33"/>
<text xml:space="preserve" text-anchor="middle" x="121" y="-292.79" font-family="Helvetica,sans-Serif" font-size="10.00">INNER: Translate on GP</text>
<text xml:space="preserve" text-anchor="middle" x="121" y="-280.79" font-family="Helvetica,sans-Serif" font-size="10.00">:simple / :lbfgs</text>
<text xml:space="preserve" text-anchor="middle" x="121" y="-268.79" font-family="Helvetica,sans-Serif" font-size="10.00">modified force</text>
</g>
<!-- lbfgs&#45;&gt;dim_translate -->
<g id="edge15" class="edge">
<title>lbfgs&#45;&gt;dim_translate</title>
<path fill="none" stroke="black" d="M286.28,-548.42C273.8,-511.96 241.69,-425.62 198,-362.83 186.04,-345.65 170.09,-328.87 155.8,-315.34"/>
<polygon fill="black" stroke="black" points="158.46,-313.03 148.74,-308.8 153.7,-318.16 158.46,-313.03"/>
</g>
<!-- trust -->
<g id="node4" class="node">
<title>trust</title>
<polygon fill="#ffd9b3" stroke="black" points="345.43,-707.69 204.57,-707.69 204.57,-703.69 200.57,-703.69 200.57,-699.69 204.57,-699.69 204.57,-657.61 200.57,-657.61 200.57,-653.61 204.57,-653.61 204.57,-649.61 345.43,-649.61 345.43,-707.69"/>
<polyline fill="none" stroke="black" points="204.57,-703.69 208.57,-703.69 208.57,-699.69 204.57,-699.69"/>
<polyline fill="none" stroke="black" points="204.57,-657.61 208.57,-657.61 208.57,-653.61 204.57,-653.61"/>
<text xml:space="preserve" text-anchor="middle" x="275" y="-693.15" font-family="Helvetica,sans-Serif" font-size="10.00">Trust Region</text>
<text xml:space="preserve" text-anchor="middle" x="275" y="-681.15" font-family="Helvetica,sans-Serif" font-size="10.00">min_distance_to_data</text>
<text xml:space="preserve" text-anchor="middle" x="275" y="-669.15" font-family="Helvetica,sans-Serif" font-size="10.00">check_interatomic_ratio</text>
<text xml:space="preserve" text-anchor="middle" x="275" y="-657.15" font-family="Helvetica,sans-Serif" font-size="10.00">remove_rigid_body_modes!</text>
</g>
<!-- trust&#45;&gt;min_opt -->
<g id="edge16" class="edge">
<title>trust&#45;&gt;min_opt</title>
<path fill="none" stroke="black" d="M319.42,-649.18C330.67,-640.96 342.29,-631.51 352,-621.57 385.15,-587.63 414.93,-541.49 432.96,-510.94"/>
<polygon fill="black" stroke="black" points="435.86,-512.92 437.86,-502.52 429.81,-509.4 435.86,-512.92"/>
</g>
<!-- trust&#45;&gt;dim_outer -->
<g id="edge17" class="edge">
<title>trust&#45;&gt;dim_outer</title>
<path fill="none" stroke="black" d="M236.27,-649.22C224.3,-640.39 211.08,-630.6 199,-621.57 186.07,-611.9 171.88,-601.18 159.61,-591.86"/>
<polygon fill="black" stroke="black" points="161.93,-589.23 151.85,-585.97 157.7,-594.8 161.93,-589.23"/>
</g>
<!-- trust&#45;&gt;ot_outer -->
<g id="edge18" class="edge">
<title>trust&#45;&gt;ot_outer</title>
<path fill="none" stroke="black" d="M345.77,-649.41C346.85,-649.12 347.93,-648.84 349,-648.57 446.23,-624.03 486.33,-672 573,-621.57 613.05,-598.26 604.61,-572.73 635,-537.74 645.13,-526.07 657.13,-513.97 667.72,-503.79"/>
<polygon fill="black" stroke="black" points="669.91,-506.54 674.76,-497.11 665.09,-501.46 669.91,-506.54"/>
</g>
<!-- min_init -->
<g id="node5" class="node">
<title>min_init</title>
<polygon fill="#a8d5a2" stroke="black" points="553.05,-696.65 448.95,-696.65 448.95,-660.65 553.05,-660.65 553.05,-696.65"/>
<text xml:space="preserve" text-anchor="middle" x="501" y="-681.15" font-family="Helvetica,sans-Serif" font-size="10.00">Initial perturbations</text>
<text xml:space="preserve" text-anchor="middle" x="501" y="-669.15" font-family="Helvetica,sans-Serif" font-size="10.00">n_initial_perturb</text>
</g>
<!-- min_init&#45;&gt;min_train -->
<g id="edge19" class="edge">
<title>min_init&#45;&gt;min_train</title>
<path fill="none" stroke="black" d="M501,-660.49C501,-643.41 501,-616.9 501,-596.6"/>
<polygon fill="black" stroke="black" points="504.5,-596.7 501,-586.7 497.5,-596.7 504.5,-596.7"/>
</g>
<!-- min_train&#45;&gt;min_opt -->
<g id="edge20" class="edge">
<title>min_train&#45;&gt;min_opt</title>
<path fill="none" stroke="black" d="M491.12,-548.58C484.97,-537.86 476.86,-523.73 469.54,-510.99"/>
<polygon fill="black" stroke="black" points="472.66,-509.4 464.65,-502.47 466.59,-512.88 472.66,-509.4"/>
</g>
<!-- min_opt&#45;&gt;min_eval -->
<g id="edge21" class="edge">
<title>min_opt&#45;&gt;min_eval</title>
<path fill="none" stroke="black" d="M458.42,-454.49C462.41,-442.52 467.39,-427.62 471.65,-414.86"/>
<polygon fill="black" stroke="black" points="474.84,-416.35 474.69,-405.76 468.2,-414.13 474.84,-416.35"/>
</g>
<!-- min_check -->
<g id="node9" class="node">
<title>min_check</title>
<polygon fill="#d5e8d4" stroke="black" points="482,-302.29 403.57,-284.29 482,-266.29 560.43,-284.29 482,-302.29"/>
<text xml:space="preserve" text-anchor="middle" x="482" y="-280.79" font-family="Helvetica,sans-Serif" font-size="10.00">||G_true|| &lt; tol?</text>
</g>
<!-- min_eval&#45;&gt;min_check -->
<g id="edge22" class="edge">
<title>min_eval&#45;&gt;min_check</title>
<path fill="none" stroke="black" d="M481.17,-367.52C481.32,-352.75 481.54,-331.21 481.71,-313.89"/>
<polygon fill="black" stroke="black" points="485.21,-313.98 481.81,-303.95 478.21,-313.91 485.21,-313.98"/>
</g>
<!-- min_check&#45;&gt;min_train -->
<g id="edge23" class="edge">
<title>min_check&#45;&gt;min_train</title>
<path fill="none" stroke="black" stroke-dasharray="5,2" d="M496.8,-299.12C511.12,-313.52 532.08,-337.47 542,-362.83 546.47,-374.27 558.46,-475.46 550,-500.74 545.19,-515.13 535.8,-528.88 526.52,-540.01"/>
<polygon fill="black" stroke="black" points="524.17,-537.37 520.19,-547.19 529.42,-542 524.17,-537.37"/>
<text xml:space="preserve" text-anchor="middle" x="556.1" y="-429.06" font-family="Helvetica,sans-Serif" font-size="8.00">no</text>
</g>
<!-- min_result -->
<g id="node10" class="node">
<title>min_result</title>
<polygon fill="#c8e6c9" stroke="black" points="534.42,-215.5 429.57,-215.5 429.57,-179.5 534.42,-179.5 534.42,-215.5"/>
<text xml:space="preserve" text-anchor="middle" x="482" y="-194" font-family="Helvetica,sans-Serif" font-size="10.00">MinimizationResult</text>
</g>
<!-- min_check&#45;&gt;min_result -->
<g id="edge24" class="edge">
<title>min_check&#45;&gt;min_result</title>
<path fill="none" stroke="black" d="M482,-266.13C482,-254.94 482,-240.07 482,-227.12"/>
<polygon fill="black" stroke="black" points="485.5,-227.44 482,-217.44 478.5,-227.44 485.5,-227.44"/>
<text xml:space="preserve" text-anchor="middle" x="488" y="-235.65" font-family="Helvetica,sans-Serif" font-size="8.00">yes</text>
</g>
<!-- dim_init -->
<g id="node11" class="node">
<title>dim_init</title>
<polygon fill="#b3d9ff" stroke="black" points="183.05,-696.65 72.95,-696.65 72.95,-660.65 183.05,-660.65 183.05,-696.65"/>
<text xml:space="preserve" text-anchor="middle" x="128" y="-681.15" font-family="Helvetica,sans-Serif" font-size="10.00">Initialize DimerState</text>
<text xml:space="preserve" text-anchor="middle" x="128" y="-669.15" font-family="Helvetica,sans-Serif" font-size="10.00">R, orient, sep</text>
</g>
<!-- dim_init&#45;&gt;dim_outer -->
<g id="edge25" class="edge">
<title>dim_init&#45;&gt;dim_outer</title>
<path fill="none" stroke="black" d="M128,-660.49C128,-643.41 128,-616.9 128,-596.6"/>
<polygon fill="black" stroke="black" points="131.5,-596.7 128,-586.7 124.5,-596.7 131.5,-596.7"/>
</g>
<!-- dim_outer&#45;&gt;dim_train -->
<g id="edge26" class="edge">
<title>dim_outer&#45;&gt;dim_train</title>
<path fill="none" stroke="black" d="M128,-548.58C128,-536.84 128,-521.03 128,-507.41"/>
<polygon fill="black" stroke="black" points="131.5,-507.68 128,-497.68 124.5,-507.68 131.5,-507.68"/>
</g>
<!-- dim_train&#45;&gt;dim_rotate -->
<g id="edge27" class="edge">
<title>dim_train&#45;&gt;dim_rotate</title>
<path fill="none" stroke="black" d="M127.42,-459.38C127.05,-448.34 126.56,-433.67 126.12,-420.41"/>
<polygon fill="black" stroke="black" points="129.63,-420.64 125.8,-410.76 122.63,-420.87 129.63,-420.64"/>
</g>
<!-- dim_rotate&#45;&gt;dim_translate -->
<g id="edge28" class="edge">
<title>dim_rotate&#45;&gt;dim_translate</title>
<path fill="none" stroke="black" d="M128.93,-362.51C130.38,-351.33 131.36,-337.6 130,-325.33 129.76,-323.15 129.44,-320.92 129.08,-318.68"/>
<polygon fill="black" stroke="black" points="132.56,-318.23 127.22,-309.08 125.69,-319.56 132.56,-318.23"/>
</g>
<!-- dim_translate&#45;&gt;dim_rotate -->
<g id="edge29" class="edge">
<title>dim_translate&#45;&gt;dim_rotate</title>
<path fill="none" stroke="black" stroke-dasharray="5,2" d="M111.66,-307.59C108.12,-318.76 105.49,-332.49 108,-344.83 108.47,-347.14 109.08,-349.49 109.79,-351.82"/>
<polygon fill="black" stroke="black" points="106.44,-352.87 113.14,-361.09 113.03,-350.49 106.44,-352.87"/>
<text xml:space="preserve" text-anchor="middle" x="117" y="-337.23" font-family="Helvetica,sans-Serif" font-size="8.00">inner</text>
<text xml:space="preserve" text-anchor="middle" x="117" y="-327.48" font-family="Helvetica,sans-Serif" font-size="8.00">loop</text>
</g>
<!-- dim_check -->
<g id="node16" class="node">
<title>dim_check</title>
<polygon fill="#dceefb" stroke="black" points="102,-215.5 24.92,-197.5 102,-179.5 179.08,-197.5 102,-215.5"/>
<text xml:space="preserve" text-anchor="middle" x="102" y="-194" font-family="Helvetica,sans-Serif" font-size="10.00">||F_true|| &lt; tol?</text>
</g>
<!-- dim_translate&#45;&gt;dim_check -->
<g id="edge30" class="edge">
<title>dim_translate&#45;&gt;dim_check</title>
<path fill="none" stroke="black" d="M116.01,-261.01C113.61,-250.31 110.71,-237.37 108.17,-226.05"/>
<polygon fill="black" stroke="black" points="111.63,-225.47 106.03,-216.48 104.8,-227 111.63,-225.47"/>
<text xml:space="preserve" text-anchor="middle" x="137" y="-235.65" font-family="Helvetica,sans-Serif" font-size="8.00">GP converged</text>
</g>
<!-- dim_check&#45;&gt;dim_outer -->
<g id="edge31" class="edge">
<title>dim_check&#45;&gt;dim_outer</title>
<path fill="none" stroke="black" stroke-dasharray="5,2" d="M82.33,-211.22C62.25,-225.93 34,-252.16 34,-283.29 34,-478.7 34,-478.7 34,-478.7 34,-506.44 56.3,-527.81 79.18,-542.44"/>
<polygon fill="black" stroke="black" points="77.28,-545.39 87.65,-547.52 80.87,-539.38 77.28,-545.39"/>
<text xml:space="preserve" text-anchor="middle" x="38.5" y="-383.15" font-family="Helvetica,sans-Serif" font-size="8.00">no</text>
</g>
<!-- dim_result -->
<g id="node17" class="node">
<title>dim_result</title>
<polygon fill="#bbdefb" stroke="black" points="140.18,-133.75 63.83,-133.75 63.83,-97.75 140.18,-97.75 140.18,-133.75"/>
<text xml:space="preserve" text-anchor="middle" x="102" y="-112.25" font-family="Helvetica,sans-Serif" font-size="10.00">DimerResult</text>
</g>
<!-- dim_check&#45;&gt;dim_result -->
<g id="edge32" class="edge">
<title>dim_check&#45;&gt;dim_result</title>
<path fill="none" stroke="black" d="M102,-179.2C102,-169.27 102,-156.56 102,-145.2"/>
<polygon fill="black" stroke="black" points="105.5,-145.53 102,-135.53 98.5,-145.53 105.5,-145.53"/>
<text xml:space="preserve" text-anchor="middle" x="108" y="-153.9" font-family="Helvetica,sans-Serif" font-size="8.00">yes</text>
</g>
<!-- ot_init_rot&#45;&gt;ot_outer -->
<g id="edge33" class="edge">
<title>ot_init_rot&#45;&gt;ot_outer</title>
<path fill="none" stroke="black" d="M695,-543.35C695,-532.43 695,-519.17 695,-507.51"/>
<polygon fill="black" stroke="black" points="698.5,-507.62 695,-497.62 691.5,-507.62 698.5,-507.62"/>
</g>
<!-- ot_adapt -->
<g id="node20" class="node">
<title>ot_adapt</title>
<polygon fill="#d5b8e8" stroke="black" points="785.05,-403.87 656.95,-403.87 656.95,-367.87 785.05,-367.87 785.05,-403.87"/>
<text xml:space="preserve" text-anchor="middle" x="721" y="-388.37" font-family="Helvetica,sans-Serif" font-size="10.00">Adaptive threshold</text>
<text xml:space="preserve" text-anchor="middle" x="721" y="-376.37" font-family="Helvetica,sans-Serif" font-size="10.00">T_gp = T_init/(1+iter/div)</text>
</g>
<!-- ot_outer&#45;&gt;ot_adapt -->
<g id="edge34" class="edge">
<title>ot_outer&#45;&gt;ot_adapt</title>
<path fill="none" stroke="black" d="M700.01,-459.38C703.65,-446.83 708.64,-429.58 712.84,-415.06"/>
<polygon fill="black" stroke="black" points="716.16,-416.17 715.58,-405.59 709.44,-414.22 716.16,-416.17"/>
</g>
<!-- ot_adapt&#45;&gt;ot_inner -->
<g id="edge35" class="edge">
<title>ot_adapt&#45;&gt;ot_inner</title>
<path fill="none" stroke="black" d="M723.44,-367.52C725.51,-352.76 728.54,-331.27 730.97,-313.95"/>
<polygon fill="black" stroke="black" points="734.41,-314.66 732.33,-304.27 727.47,-313.68 734.41,-314.66"/>
</g>
<!-- ot_prune -->
<g id="node22" class="node">
<title>ot_prune</title>
<polygon fill="#d5b8e8" stroke="black" points="783.17,-215.5 676.83,-215.5 676.83,-179.5 783.17,-179.5 783.17,-215.5"/>
<text xml:space="preserve" text-anchor="middle" x="730" y="-200" font-family="Helvetica,sans-Serif" font-size="10.00">Prune training data</text>
<text xml:space="preserve" text-anchor="middle" x="730" y="-188" font-family="Helvetica,sans-Serif" font-size="10.00">keep closest points</text>
</g>
<!-- ot_inner&#45;&gt;ot_prune -->
<g id="edge36" class="edge">
<title>ot_inner&#45;&gt;ot_prune</title>
<path fill="none" stroke="black" d="M733.99,-266.13C733.33,-254.94 732.45,-240.07 731.69,-227.12"/>
<polygon fill="black" stroke="black" points="735.2,-227.21 731.12,-217.43 728.21,-227.62 735.2,-227.21"/>
</g>
<!-- ot_check -->
<g id="node23" class="node">
<title>ot_check</title>
<polygon fill="#e1d5e7" stroke="black" points="716,-133.75 617.43,-115.75 716,-97.75 814.57,-115.75 716,-133.75"/>
<text xml:space="preserve" text-anchor="middle" x="716" y="-112.25" font-family="Helvetica,sans-Serif" font-size="10.00">||F_true|| &lt; T_dimer?</text>
</g>
<!-- ot_prune&#45;&gt;ot_check -->
<g id="edge37" class="edge">
<title>ot_prune&#45;&gt;ot_check</title>
<path fill="none" stroke="black" d="M726.96,-179.2C725.2,-169.13 722.93,-156.21 720.91,-144.73"/>
<polygon fill="black" stroke="black" points="724.37,-144.21 719.2,-134.97 717.48,-145.42 724.37,-144.21"/>
</g>
<!-- ot_check&#45;&gt;ot_outer -->
<g id="edge38" class="edge">
<title>ot_check&#45;&gt;ot_outer</title>
<path fill="none" stroke="black" stroke-dasharray="5,2" d="M690.46,-129.41C667.71,-142.69 638,-165.9 638,-196.5 638,-386.87 638,-386.87 638,-386.87 638,-411.41 653.35,-434.67 668.12,-451.37"/>
<polygon fill="black" stroke="black" points="665.28,-453.46 674.67,-458.37 670.39,-448.68 665.28,-453.46"/>
<text xml:space="preserve" text-anchor="middle" x="642.5" y="-281.56" font-family="Helvetica,sans-Serif" font-size="8.00">no</text>
</g>
<!-- ot_result -->
<g id="node24" class="node">
<title>ot_result</title>
<polygon fill="#ce93d8" stroke="black" points="758.67,-52 673.33,-52 673.33,-16 758.67,-16 758.67,-52"/>
<text xml:space="preserve" text-anchor="middle" x="716" y="-36.5" font-family="Helvetica,sans-Serif" font-size="10.00">OTGPDResult</text>
<text xml:space="preserve" text-anchor="middle" x="716" y="-24.5" font-family="Helvetica,sans-Serif" font-size="10.00">+ history</text>
</g>
<!-- ot_check&#45;&gt;ot_result -->
<g id="edge39" class="edge">
<title>ot_check&#45;&gt;ot_result</title>
<path fill="none" stroke="black" d="M716,-97.45C716,-87.52 716,-74.81 716,-63.45"/>
<polygon fill="black" stroke="black" points="719.5,-63.78 716,-53.78 712.5,-63.78 719.5,-63.78"/>
<text xml:space="preserve" text-anchor="middle" x="722" y="-72.15" font-family="Helvetica,sans-Serif" font-size="8.00">yes</text>
</g>
<!-- neb_init -->
<g id="node25" class="node">
<title>neb_init</title>
<polygon fill="#ffe599" stroke="black" points="1100.67,-696.65 997.33,-696.65 997.33,-660.65 1100.67,-660.65 1100.67,-696.65"/>
<text xml:space="preserve" text-anchor="middle" x="1049" y="-681.15" font-family="Helvetica,sans-Serif" font-size="10.00">Linear interpolation</text>
<text xml:space="preserve" text-anchor="middle" x="1049" y="-669.15" font-family="Helvetica,sans-Serif" font-size="10.00">N images</text>
</g>
<!-- neb_init&#45;&gt;neb_std -->
<g id="edge40" class="edge">
<title>neb_init&#45;&gt;neb_std</title>
<path fill="none" stroke="black" d="M1028.24,-660.24C1008.16,-643.4 977.31,-617.53 953.35,-597.43"/>
<polygon fill="black" stroke="black" points="955.62,-594.76 945.71,-591.02 951.12,-600.13 955.62,-594.76"/>
</g>
<!-- neb_init&#45;&gt;neb_aie -->
<g id="edge41" class="edge">
<title>neb_init&#45;&gt;neb_aie</title>
<path fill="none" stroke="black" d="M1049,-660.49C1049,-646.26 1049,-625.48 1049,-607.2"/>
<polygon fill="black" stroke="black" points="1052.5,-607.45 1049,-597.45 1045.5,-607.45 1052.5,-607.45"/>
</g>
<!-- neb_init&#45;&gt;neb_oie -->
<g id="edge42" class="edge">
<title>neb_init&#45;&gt;neb_oie</title>
<path fill="none" stroke="black" d="M1070.05,-660.25C1083.13,-649.31 1100.21,-634.81 1115,-621.57 1121.34,-615.89 1127.99,-609.77 1134.42,-603.77"/>
<polygon fill="black" stroke="black" points="1136.4,-606.71 1141.29,-597.31 1131.61,-601.61 1136.4,-606.71"/>
</g>
<!-- neb_forces -->
<g id="node29" class="node">
<title>neb_forces</title>
<polygon fill="#ffe599" stroke="black" points="1075.92,-500.74 980.08,-500.74 980.08,-454.66 1075.92,-454.66 1075.92,-500.74"/>
<text xml:space="preserve" text-anchor="middle" x="1028" y="-486.2" font-family="Helvetica,sans-Serif" font-size="10.00">NEB forces:</text>
<text xml:space="preserve" text-anchor="middle" x="1028" y="-474.2" font-family="Helvetica,sans-Serif" font-size="10.00">tangent + spring</text>
<text xml:space="preserve" text-anchor="middle" x="1028" y="-462.2" font-family="Helvetica,sans-Serif" font-size="10.00">+ climbing image</text>
</g>
<!-- neb_std&#45;&gt;neb_forces -->
<g id="edge43" class="edge">
<title>neb_std&#45;&gt;neb_forces</title>
<path fill="none" stroke="black" d="M946.33,-543.35C959.93,-532.59 976.4,-519.55 990.98,-508.01"/>
<polygon fill="black" stroke="black" points="992.91,-510.94 998.58,-501.99 988.57,-505.45 992.91,-510.94"/>
</g>
<!-- neb_aie&#45;&gt;neb_forces -->
<g id="edge45" class="edge">
<title>neb_aie&#45;&gt;neb_forces</title>
<path fill="none" stroke="black" d="M1042.12,-537.27C1040.21,-529.31 1038.1,-520.59 1036.12,-512.37"/>
<polygon fill="black" stroke="black" points="1039.53,-511.58 1033.78,-502.67 1032.72,-513.22 1039.53,-511.58"/>
</g>
<!-- neb_oie&#45;&gt;neb_forces -->
<g id="edge46" class="edge">
<title>neb_oie&#45;&gt;neb_forces</title>
<path fill="none" stroke="black" d="M1124.85,-537.27C1108.82,-527.57 1090.91,-516.75 1074.9,-507.06"/>
<polygon fill="black" stroke="black" points="1076.88,-504.17 1066.51,-501.99 1073.25,-510.16 1076.88,-504.17"/>
</g>
<!-- neb_check -->
<g id="node30" class="node">
<title>neb_check</title>
<polygon fill="#fff2cc" stroke="black" points="979,-403.87 901.92,-385.87 979,-367.87 1056.08,-385.87 979,-403.87"/>
<text xml:space="preserve" text-anchor="middle" x="979" y="-382.37" font-family="Helvetica,sans-Serif" font-size="10.00">max ||F|| &lt; tol?</text>
</g>
<!-- neb_forces&#45;&gt;neb_check -->
<g id="edge44" class="edge">
<title>neb_forces&#45;&gt;neb_check</title>
<path fill="none" stroke="black" d="M1015.89,-454.49C1008.91,-441.7 1000.11,-425.58 992.86,-412.28"/>
<polygon fill="black" stroke="black" points="996.03,-410.78 988.17,-403.67 989.88,-414.13 996.03,-410.78"/>
</g>
<!-- neb_check&#45;&gt;neb_std -->
<g id="edge48" class="edge">
<title>neb_check&#45;&gt;neb_std</title>
<path fill="none" stroke="black" stroke-dasharray="5,2" d="M973.47,-403.09C963.5,-432.32 942.34,-494.38 929.23,-532.84"/>
<polygon fill="black" stroke="black" points="926.01,-531.46 926.09,-542.05 932.63,-533.71 926.01,-531.46"/>
<text xml:space="preserve" text-anchor="middle" x="960.06" y="-474.98" font-family="Helvetica,sans-Serif" font-size="8.00">no</text>
</g>
<!-- neb_result -->
<g id="node31" class="node">
<title>neb_result</title>
<polygon fill="#fff59d" stroke="black" points="1014.55,-302.29 943.45,-302.29 943.45,-266.29 1014.55,-266.29 1014.55,-302.29"/>
<text xml:space="preserve" text-anchor="middle" x="979" y="-280.79" font-family="Helvetica,sans-Serif" font-size="10.00">NEBResult</text>
</g>
<!-- neb_check&#45;&gt;neb_result -->
<g id="edge47" class="edge">
<title>neb_check&#45;&gt;neb_result</title>
<path fill="none" stroke="black" d="M979,-367.52C979,-352.84 979,-331.47 979,-314.2"/>
<polygon fill="black" stroke="black" points="982.5,-314.28 979,-304.28 975.5,-314.28 982.5,-314.28"/>
<text xml:space="preserve" text-anchor="middle" x="985" y="-332.36" font-family="Helvetica,sans-Serif" font-size="8.00">yes</text>
</g>
</g>
</svg>
