<?xml version="1.0" encoding="UTF-8" standalone="no"?>
<!DOCTYPE svg PUBLIC "-//W3C//DTD SVG 1.1//EN"
 "http://www.w3.org/Graphics/SVG/1.1/DTD/svg11.dtd">
<!-- Generated by graphviz version 14.1.2 (0)
 -->
<!-- Title: test_coverage Pages: 1 -->
<svg width="336pt" height="1557pt"
 viewBox="0.00 0.00 336.00 1557.00" xmlns="http://www.w3.org/2000/svg" xmlns:xlink="http://www.w3.org/1999/xlink">
<g id="graph0" class="graph" transform="scale(1 1) rotate(0) translate(4 1552.75)">
<title>test_coverage</title>
<polygon fill="white" stroke="none" points="-4,4 -4,-1552.75 331.95,-1552.75 331.95,4 -4,4"/>
<text xml:space="preserve" text-anchor="middle" x="163.97" y="-1531.45" font-family="Helvetica,sans-Serif" font-size="14.00">Test Suite Coverage Map</text>
<g id="clust1" class="cluster">
<title>cluster_tests</title>
<polygon fill="#f9f5ff" stroke="#e1d5e7" points="8,-469 8,-1325 140.85,-1325 140.85,-469 8,-469"/>
<text xml:space="preserve" text-anchor="middle" x="74.43" y="-1307.7" font-family="Helvetica,sans-Serif" font-size="14.00">Test Files (test/)</text>
</g>
<g id="clust2" class="cluster">
<title>cluster_src</title>
<polygon fill="#f0fff0" stroke="#d5e8d4" points="160.85,-8 160.85,-1434 319.95,-1434 319.95,-8 160.85,-8"/>
<text xml:space="preserve" text-anchor="middle" x="240.4" y="-1416.7" font-family="Helvetica,sans-Serif" font-size="14.00">Source Modules (src/)</text>
</g>
<g id="clust3" class="cluster">
<title>cluster_legend</title>
<polygon fill="#f5f5f5" stroke="#e8e8e8" points="15.12,-1333 15.12,-1517 133.73,-1517 133.73,-1333 15.12,-1333"/>
<text xml:space="preserve" text-anchor="middle" x="74.43" y="-1499.7" font-family="Helvetica,sans-Serif" font-size="14.00">Legend</text>
</g>
<!-- t_kernels -->
<g id="node1" class="node">
<title>t_kernels</title>
<polygon fill="#d5b8e8" stroke="black" points="115.98,-523.04 32.88,-523.04 32.88,-476.96 115.98,-476.96 115.98,-523.04"/>
<text xml:space="preserve" text-anchor="middle" x="74.43" y="-508.5" font-family="Helvetica,sans-Serif" font-size="10.00">test_kernels.jl</text>
<text xml:space="preserve" text-anchor="middle" x="74.43" y="-496.5" font-family="Helvetica,sans-Serif" font-size="10.00">reconstruction</text>
<text xml:space="preserve" text-anchor="middle" x="74.43" y="-484.5" font-family="Helvetica,sans-Serif" font-size="10.00">generalization</text>
</g>
<!-- s_se -->
<g id="node15" class="node">
<title>s_se</title>
<polygon fill="#a8d5a2" stroke="black" points="302.57,-268 182.22,-268 178.22,-264 178.22,-232 298.57,-232 302.57,-236 302.57,-268"/>
<polyline fill="none" stroke="black" points="298.57,-264 178.22,-264"/>
<polyline fill="none" stroke="black" points="298.57,-264 298.57,-232"/>
<polyline fill="none" stroke="black" points="298.57,-264 302.57,-268"/>
<text xml:space="preserve" text-anchor="middle" x="240.4" y="-246.5" font-family="Helvetica,sans-Serif" font-size="10.00">kernels/MolInvDistSE.jl</text>
</g>
<!-- t_kernels&#45;&gt;s_se -->
<g id="edge1" class="edge">
<title>t_kernels&#45;&gt;s_se</title>
<path fill="none" stroke="black" d="M77.9,-476.58C83.87,-431.62 103.15,-332.73 160.85,-277 163.18,-274.75 165.71,-272.68 168.39,-270.79"/>
<polygon fill="black" stroke="black" points="169.93,-273.95 176.66,-265.77 166.3,-267.96 169.93,-273.95"/>
</g>
<!-- s_mat52 -->
<g id="node16" class="node">
<title>s_mat52</title>
<polygon fill="#a8d5a2" stroke="black" points="311.95,-376 172.85,-376 168.85,-372 168.85,-340 307.95,-340 311.95,-344 311.95,-376"/>
<polyline fill="none" stroke="black" points="307.95,-372 168.85,-372"/>
<polyline fill="none" stroke="black" points="307.95,-372 307.95,-340"/>
<polyline fill="none" stroke="black" points="307.95,-372 311.95,-376"/>
<text xml:space="preserve" text-anchor="middle" x="240.4" y="-354.5" font-family="Helvetica,sans-Serif" font-size="10.00">kernels/MolInvDistMat5_2.jl</text>
</g>
<!-- t_kernels&#45;&gt;s_mat52 -->
<g id="edge2" class="edge">
<title>t_kernels&#45;&gt;s_mat52</title>
<path fill="none" stroke="black" d="M87.06,-476.86C101.19,-450.99 127.33,-409.52 160.85,-385 162.37,-383.89 163.94,-382.82 165.55,-381.79"/>
<polygon fill="black" stroke="black" points="166.86,-385.07 173.83,-377.1 163.41,-378.98 166.86,-385.07"/>
</g>
<!-- s_mat32 -->
<g id="node17" class="node">
<title>s_mat32</title>
<polygon fill="#a8d5a2" stroke="black" points="311.95,-430 172.85,-430 168.85,-426 168.85,-394 307.95,-394 311.95,-398 311.95,-430"/>
<polyline fill="none" stroke="black" points="307.95,-426 168.85,-426"/>
<polyline fill="none" stroke="black" points="307.95,-426 307.95,-394"/>
<polyline fill="none" stroke="black" points="307.95,-426 311.95,-430"/>
<text xml:space="preserve" text-anchor="middle" x="240.4" y="-408.5" font-family="Helvetica,sans-Serif" font-size="10.00">kernels/MolInvDistMat3_2.jl</text>
</g>
<!-- t_kernels&#45;&gt;s_mat32 -->
<g id="edge3" class="edge">
<title>t_kernels&#45;&gt;s_mat32</title>
<path fill="none" stroke="black" d="M103.73,-476.62C119.76,-464.22 140.6,-449.43 160.85,-439 163.67,-437.55 166.59,-436.14 169.57,-434.79"/>
<polygon fill="black" stroke="black" points="170.65,-438.13 178.48,-430.99 167.91,-431.7 170.65,-438.13"/>
</g>
<!-- s_const -->
<g id="node18" class="node">
<title>s_const</title>
<polygon fill="#a8d5a2" stroke="black" points="305.95,-52 178.85,-52 174.85,-48 174.85,-16 301.95,-16 305.95,-20 305.95,-52"/>
<polyline fill="none" stroke="black" points="301.95,-48 174.85,-48"/>
<polyline fill="none" stroke="black" points="301.95,-48 301.95,-16"/>
<polyline fill="none" stroke="black" points="301.95,-48 305.95,-52"/>
<text xml:space="preserve" text-anchor="middle" x="240.4" y="-30.5" font-family="Helvetica,sans-Serif" font-size="10.00">kernels/ConstantKernel.jl</text>
</g>
<!-- t_kernels&#45;&gt;s_const -->
<g id="edge4" class="edge">
<title>t_kernels&#45;&gt;s_const</title>
<path fill="none" stroke="black" d="M76.94,-476.68C82.68,-395.17 105.62,-124.49 160.85,-61 162.31,-59.33 163.87,-57.76 165.52,-56.29"/>
<polygon fill="black" stroke="black" points="167.26,-59.35 173.24,-50.6 163.11,-53.71 167.26,-59.35"/>
</g>
<!-- s_sum -->
<g id="node19" class="node">
<title>s_sum</title>
<polygon fill="#a8d5a2" stroke="black" points="296.2,-106 188.6,-106 184.6,-102 184.6,-70 292.2,-70 296.2,-74 296.2,-106"/>
<polyline fill="none" stroke="black" points="292.2,-102 184.6,-102"/>
<polyline fill="none" stroke="black" points="292.2,-102 292.2,-70"/>
<polyline fill="none" stroke="black" points="292.2,-102 296.2,-106"/>
<text xml:space="preserve" text-anchor="middle" x="240.4" y="-84.5" font-family="Helvetica,sans-Serif" font-size="10.00">kernels/SumKernel.jl</text>
</g>
<!-- t_kernels&#45;&gt;s_sum -->
<g id="edge5" class="edge">
<title>t_kernels&#45;&gt;s_sum</title>
<path fill="none" stroke="black" d="M77.65,-476.46C85.21,-401.42 112.11,-169.57 160.85,-115 164.71,-110.67 169.3,-107.04 174.29,-103.99"/>
<polygon fill="black" stroke="black" points="175.68,-107.21 182.95,-99.51 172.46,-101 175.68,-107.21"/>
</g>
<!-- s_prod -->
<g id="node20" class="node">
<title>s_prod</title>
<polygon fill="#a8d5a2" stroke="black" points="302.95,-160 181.85,-160 177.85,-156 177.85,-124 298.95,-124 302.95,-128 302.95,-160"/>
<polyline fill="none" stroke="black" points="298.95,-156 177.85,-156"/>
<polyline fill="none" stroke="black" points="298.95,-156 298.95,-124"/>
<polyline fill="none" stroke="black" points="298.95,-156 302.95,-160"/>
<text xml:space="preserve" text-anchor="middle" x="240.4" y="-138.5" font-family="Helvetica,sans-Serif" font-size="10.00">kernels/ProductKernel.jl</text>
</g>
<!-- t_kernels&#45;&gt;s_prod -->
<g id="edge6" class="edge">
<title>t_kernels&#45;&gt;s_prod</title>
<path fill="none" stroke="black" d="M78.54,-476.7C88.02,-409.1 118.45,-214.87 160.85,-169 162.98,-166.7 165.31,-164.59 167.8,-162.66"/>
<polygon fill="black" stroke="black" points="169.64,-165.64 176.13,-157.27 165.84,-159.77 169.64,-165.64"/>
</g>
<!-- s_invdist -->
<g id="node21" class="node">
<title>s_invdist</title>
<polygon fill="#a8d5a2" stroke="black" points="269.2,-214 215.6,-214 211.6,-210 211.6,-178 265.2,-178 269.2,-182 269.2,-214"/>
<polyline fill="none" stroke="black" points="265.2,-210 211.6,-210"/>
<polyline fill="none" stroke="black" points="265.2,-210 265.2,-178"/>
<polyline fill="none" stroke="black" points="265.2,-210 269.2,-214"/>
<text xml:space="preserve" text-anchor="middle" x="240.4" y="-192.5" font-family="Helvetica,sans-Serif" font-size="10.00">invdist.jl</text>
</g>
<!-- t_kernels&#45;&gt;s_invdist -->
<g id="edge7" class="edge">
<title>t_kernels&#45;&gt;s_invdist</title>
<path fill="none" stroke="black" d="M75.83,-476.81C78.01,-424.34 90.65,-295.48 160.85,-223 171.3,-212.21 186.25,-205.73 200.31,-201.84"/>
<polygon fill="black" stroke="black" points="200.89,-205.3 209.81,-199.59 199.28,-198.49 200.89,-205.3"/>
</g>
<!-- s_deriv -->
<g id="node22" class="node">
<title>s_deriv</title>
<polygon fill="#a8d5a2" stroke="black" points="278.57,-538 206.22,-538 202.22,-534 202.22,-502 274.57,-502 278.57,-506 278.57,-538"/>
<polyline fill="none" stroke="black" points="274.57,-534 202.22,-534"/>
<polyline fill="none" stroke="black" points="274.57,-534 274.57,-502"/>
<polyline fill="none" stroke="black" points="274.57,-534 278.57,-538"/>
<text xml:space="preserve" text-anchor="middle" x="240.4" y="-516.5" font-family="Helvetica,sans-Serif" font-size="10.00">derivatives.jl</text>
</g>
<!-- t_kernels&#45;&gt;s_deriv -->
<g id="edge8" class="edge">
<title>t_kernels&#45;&gt;s_deriv</title>
<path fill="none" stroke="black" d="M116.38,-505C138.88,-507.74 166.93,-511.16 190.57,-514.04"/>
<polygon fill="black" stroke="black" points="189.92,-517.49 200.27,-515.23 190.77,-510.54 189.92,-517.49"/>
</g>
<!-- s_types -->
<g id="node23" class="node">
<title>s_types</title>
<polygon fill="#a8d5a2" stroke="black" points="267.4,-322 217.4,-322 213.4,-318 213.4,-286 263.4,-286 267.4,-290 267.4,-322"/>
<polyline fill="none" stroke="black" points="263.4,-318 213.4,-318"/>
<polyline fill="none" stroke="black" points="263.4,-318 263.4,-286"/>
<polyline fill="none" stroke="black" points="263.4,-318 267.4,-322"/>
<text xml:space="preserve" text-anchor="middle" x="240.4" y="-300.5" font-family="Helvetica,sans-Serif" font-size="10.00">types.jl</text>
</g>
<!-- t_kernels&#45;&gt;s_types -->
<g id="edge9" class="edge">
<title>t_kernels&#45;&gt;s_types</title>
<path fill="none" stroke="black" d="M81.16,-476.55C91.2,-440.28 115.37,-370.64 160.85,-331 172.43,-320.91 187.97,-314.54 202.18,-310.54"/>
<polygon fill="black" stroke="black" points="202.84,-313.98 211.71,-308.18 201.16,-307.19 202.84,-313.98"/>
</g>
<!-- s_func -->
<g id="node24" class="node">
<title>s_func</title>
<polygon fill="#a8d5a2" stroke="black" points="274.82,-484 209.97,-484 205.97,-480 205.97,-448 270.82,-448 274.82,-452 274.82,-484"/>
<polyline fill="none" stroke="black" points="270.82,-480 205.97,-480"/>
<polyline fill="none" stroke="black" points="270.82,-480 270.82,-448"/>
<polyline fill="none" stroke="black" points="270.82,-480 274.82,-484"/>
<text xml:space="preserve" text-anchor="middle" x="240.4" y="-462.5" font-family="Helvetica,sans-Serif" font-size="10.00">functions.jl</text>
</g>
<!-- t_kernels&#45;&gt;s_func -->
<g id="edge10" class="edge">
<title>t_kernels&#45;&gt;s_func</title>
<path fill="none" stroke="black" d="M116.38,-491.51C140.13,-486.58 170.06,-480.38 194.46,-475.32"/>
<polygon fill="black" stroke="black" points="195.02,-478.78 204.11,-473.32 193.6,-471.92 195.02,-478.78"/>
</g>
<!-- t_lbfgs -->
<g id="node2" class="node">
<title>t_lbfgs</title>
<polygon fill="#d5b8e8" stroke="black" points="114.48,-641.04 34.38,-641.04 34.38,-594.96 114.48,-594.96 114.48,-641.04"/>
<text xml:space="preserve" text-anchor="middle" x="74.43" y="-626.5" font-family="Helvetica,sans-Serif" font-size="10.00">test_lbfgs.jl</text>
<text xml:space="preserve" text-anchor="middle" x="74.43" y="-614.5" font-family="Helvetica,sans-Serif" font-size="10.00">direction</text>
<text xml:space="preserve" text-anchor="middle" x="74.43" y="-602.5" font-family="Helvetica,sans-Serif" font-size="10.00">circular buffer</text>
</g>
<!-- s_lbfgs -->
<g id="node25" class="node">
<title>s_lbfgs</title>
<polygon fill="#a8d5a2" stroke="black" points="289.45,-592 195.35,-592 191.35,-588 191.35,-556 285.45,-556 289.45,-560 289.45,-592"/>
<polyline fill="none" stroke="black" points="285.45,-588 191.35,-588"/>
<polyline fill="none" stroke="black" points="285.45,-588 285.45,-556"/>
<polyline fill="none" stroke="black" points="285.45,-588 289.45,-592"/>
<text xml:space="preserve" text-anchor="middle" x="240.4" y="-570.5" font-family="Helvetica,sans-Serif" font-size="10.00">optimizers/lbfgs.jl</text>
</g>
<!-- t_lbfgs&#45;&gt;s_lbfgs -->
<g id="edge11" class="edge">
<title>t_lbfgs&#45;&gt;s_lbfgs</title>
<path fill="none" stroke="black" d="M114.7,-607.46C134.23,-602.22 158.24,-595.78 179.96,-589.95"/>
<polygon fill="black" stroke="black" points="180.86,-593.33 189.61,-587.36 179.04,-586.57 180.86,-593.33"/>
</g>
<!-- t_minimize -->
<g id="node3" class="node">
<title>t_minimize</title>
<polygon fill="#d5b8e8" stroke="black" points="119.35,-705.04 29.5,-705.04 29.5,-658.96 119.35,-658.96 119.35,-705.04"/>
<text xml:space="preserve" text-anchor="middle" x="74.43" y="-690.5" font-family="Helvetica,sans-Serif" font-size="10.00">test_minimize.jl</text>
<text xml:space="preserve" text-anchor="middle" x="74.43" y="-678.5" font-family="Helvetica,sans-Serif" font-size="10.00">LJ equilibrium</text>
<text xml:space="preserve" text-anchor="middle" x="74.43" y="-666.5" font-family="Helvetica,sans-Serif" font-size="10.00">random cluster</text>
</g>
<!-- s_trust -->
<g id="node26" class="node">
<title>s_trust</title>
<polygon fill="#a8d5a2" stroke="black" points="304.45,-754 180.35,-754 176.35,-750 176.35,-718 300.45,-718 304.45,-722 304.45,-754"/>
<polyline fill="none" stroke="black" points="300.45,-750 176.35,-750"/>
<polyline fill="none" stroke="black" points="300.45,-750 300.45,-718"/>
<polyline fill="none" stroke="black" points="300.45,-750 304.45,-754"/>
<text xml:space="preserve" text-anchor="middle" x="240.4" y="-732.5" font-family="Helvetica,sans-Serif" font-size="10.00">optimizers/trust_region.jl</text>
</g>
<!-- t_minimize&#45;&gt;s_trust -->
<g id="edge14" class="edge">
<title>t_minimize&#45;&gt;s_trust</title>
<path fill="none" stroke="black" d="M119.8,-696.61C135.98,-701.94 154.66,-708.09 172.37,-713.92"/>
<polygon fill="black" stroke="black" points="171.21,-717.23 181.8,-717.03 173.4,-710.58 171.21,-717.23"/>
</g>
<!-- s_min -->
<g id="node27" class="node">
<title>s_min</title>
<polygon fill="#a8d5a2" stroke="black" points="298.45,-646 186.35,-646 182.35,-642 182.35,-610 294.45,-610 298.45,-614 298.45,-646"/>
<polyline fill="none" stroke="black" points="294.45,-642 182.35,-642"/>
<polyline fill="none" stroke="black" points="294.45,-642 294.45,-610"/>
<polyline fill="none" stroke="black" points="294.45,-642 298.45,-646"/>
<text xml:space="preserve" text-anchor="middle" x="240.4" y="-624.5" font-family="Helvetica,sans-Serif" font-size="10.00">optimizers/minimize.jl</text>
</g>
<!-- t_minimize&#45;&gt;s_min -->
<g id="edge12" class="edge">
<title>t_minimize&#45;&gt;s_min</title>
<path fill="none" stroke="black" d="M119.8,-667.39C135.98,-662.06 154.66,-655.91 172.37,-650.08"/>
<polygon fill="black" stroke="black" points="173.4,-653.42 181.8,-646.97 171.21,-646.77 173.4,-653.42"/>
</g>
<!-- s_lj -->
<g id="node36" class="node">
<title>s_lj</title>
<polygon fill="#a8d5a2" stroke="black" points="302.2,-700 182.6,-700 178.6,-696 178.6,-664 298.2,-664 302.2,-668 302.2,-700"/>
<polyline fill="none" stroke="black" points="298.2,-696 178.6,-696"/>
<polyline fill="none" stroke="black" points="298.2,-696 298.2,-664"/>
<polyline fill="none" stroke="black" points="298.2,-696 302.2,-700"/>
<text xml:space="preserve" text-anchor="middle" x="240.4" y="-678.5" font-family="Helvetica,sans-Serif" font-size="10.00">oracles/lennard_jones.jl</text>
</g>
<!-- t_minimize&#45;&gt;s_lj -->
<g id="edge13" class="edge">
<title>t_minimize&#45;&gt;s_lj</title>
<path fill="none" stroke="black" d="M119.8,-682C134.44,-682 151.13,-682 167.29,-682"/>
<polygon fill="black" stroke="black" points="166.86,-685.5 176.86,-682 166.86,-678.5 166.86,-685.5"/>
</g>
<!-- t_dimer -->
<g id="node4" class="node">
<title>t_dimer</title>
<polygon fill="#d5b8e8" stroke="black" points="118.23,-769.04 30.63,-769.04 30.63,-722.96 118.23,-722.96 118.23,-769.04"/>
<text xml:space="preserve" text-anchor="middle" x="74.43" y="-754.5" font-family="Helvetica,sans-Serif" font-size="10.00">test_dimer.jl</text>
<text xml:space="preserve" text-anchor="middle" x="74.43" y="-742.5" font-family="Helvetica,sans-Serif" font-size="10.00">curvature</text>
<text xml:space="preserve" text-anchor="middle" x="74.43" y="-730.5" font-family="Helvetica,sans-Serif" font-size="10.00">rot/trans forces</text>
</g>
<!-- s_dimer -->
<g id="node28" class="node">
<title>s_dimer</title>
<polygon fill="#a8d5a2" stroke="black" points="290.95,-808 193.85,-808 189.85,-804 189.85,-772 286.95,-772 290.95,-776 290.95,-808"/>
<polyline fill="none" stroke="black" points="286.95,-804 189.85,-804"/>
<polyline fill="none" stroke="black" points="286.95,-804 286.95,-772"/>
<polyline fill="none" stroke="black" points="286.95,-804 290.95,-808"/>
<text xml:space="preserve" text-anchor="middle" x="240.4" y="-786.5" font-family="Helvetica,sans-Serif" font-size="10.00">optimizers/dimer.jl</text>
</g>
<!-- t_dimer&#45;&gt;s_dimer -->
<g id="edge15" class="edge">
<title>t_dimer&#45;&gt;s_dimer</title>
<path fill="none" stroke="black" d="M118.51,-757.56C136.92,-762.5 158.74,-768.36 178.75,-773.72"/>
<polygon fill="black" stroke="black" points="177.61,-777.04 188.18,-776.26 179.43,-770.28 177.61,-777.04"/>
</g>
<!-- t_neb -->
<g id="node5" class="node">
<title>t_neb</title>
<polygon fill="#d5b8e8" stroke="black" points="117.85,-909.04 31,-909.04 31,-850.96 117.85,-850.96 117.85,-909.04"/>
<text xml:space="preserve" text-anchor="middle" x="74.43" y="-894.5" font-family="Helvetica,sans-Serif" font-size="10.00">test_neb.jl</text>
<text xml:space="preserve" text-anchor="middle" x="74.43" y="-882.5" font-family="Helvetica,sans-Serif" font-size="10.00">tangents</text>
<text xml:space="preserve" text-anchor="middle" x="74.43" y="-870.5" font-family="Helvetica,sans-Serif" font-size="10.00">spring forces</text>
<text xml:space="preserve" text-anchor="middle" x="74.43" y="-858.5" font-family="Helvetica,sans-Serif" font-size="10.00">climbing image</text>
</g>
<!-- s_neb_t -->
<g id="node29" class="node">
<title>s_neb_t</title>
<polygon fill="#a8d5a2" stroke="black" points="301.45,-1024 183.35,-1024 179.35,-1020 179.35,-988 297.45,-988 301.45,-992 301.45,-1024"/>
<polyline fill="none" stroke="black" points="297.45,-1020 179.35,-1020"/>
<polyline fill="none" stroke="black" points="297.45,-1020 297.45,-988"/>
<polyline fill="none" stroke="black" points="297.45,-1020 301.45,-1024"/>
<text xml:space="preserve" text-anchor="middle" x="240.4" y="-1002.5" font-family="Helvetica,sans-Serif" font-size="10.00">optimizers/neb_types.jl</text>
</g>
<!-- t_neb&#45;&gt;s_neb_t -->
<g id="edge16" class="edge">
<title>t_neb&#45;&gt;s_neb_t</title>
<path fill="none" stroke="black" d="M118.33,-898.86C126.69,-904.08 134.73,-910.45 140.85,-918 158.81,-940.17 140.82,-958.68 160.85,-979 163.43,-981.62 166.28,-983.98 169.31,-986.12"/>
<polygon fill="black" stroke="black" points="167.22,-988.94 177.59,-991.08 170.82,-982.94 167.22,-988.94"/>
</g>
<!-- s_neb_p -->
<g id="node30" class="node">
<title>s_neb_p</title>
<polygon fill="#a8d5a2" stroke="black" points="298.82,-970 185.97,-970 181.97,-966 181.97,-934 294.82,-934 298.82,-938 298.82,-970"/>
<polyline fill="none" stroke="black" points="294.82,-966 181.97,-966"/>
<polyline fill="none" stroke="black" points="294.82,-966 294.82,-934"/>
<polyline fill="none" stroke="black" points="294.82,-966 298.82,-970"/>
<text xml:space="preserve" text-anchor="middle" x="240.4" y="-948.5" font-family="Helvetica,sans-Serif" font-size="10.00">optimizers/neb_path.jl</text>
</g>
<!-- t_neb&#45;&gt;s_neb_p -->
<g id="edge17" class="edge">
<title>t_neb&#45;&gt;s_neb_p</title>
<path fill="none" stroke="black" d="M118.25,-904.21C131.68,-911.35 146.69,-918.88 160.85,-925 164.4,-926.53 168.07,-928.04 171.79,-929.51"/>
<polygon fill="black" stroke="black" points="170.36,-932.72 180.95,-933.02 172.86,-926.18 170.36,-932.72"/>
</g>
<!-- s_neb -->
<g id="node31" class="node">
<title>s_neb</title>
<polygon fill="#a8d5a2" stroke="black" points="286.82,-916 197.97,-916 193.97,-912 193.97,-880 282.82,-880 286.82,-884 286.82,-916"/>
<polyline fill="none" stroke="black" points="282.82,-912 193.97,-912"/>
<polyline fill="none" stroke="black" points="282.82,-912 282.82,-880"/>
<polyline fill="none" stroke="black" points="282.82,-912 286.82,-916"/>
<text xml:space="preserve" text-anchor="middle" x="240.4" y="-894.5" font-family="Helvetica,sans-Serif" font-size="10.00">optimizers/neb.jl</text>
</g>
<!-- t_neb&#45;&gt;s_neb -->
<g id="edge18" class="edge">
<title>t_neb&#45;&gt;s_neb</title>
<path fill="none" stroke="black" d="M118.08,-884.68C137.62,-886.83 161.06,-889.4 182.1,-891.71"/>
<polygon fill="black" stroke="black" points="181.68,-895.19 192,-892.8 182.45,-888.23 181.68,-895.19"/>
</g>
<!-- t_otgpd -->
<g id="node6" class="node">
<title>t_otgpd</title>
<polygon fill="#d5b8e8" stroke="black" points="132.85,-833.04 16,-833.04 16,-786.96 132.85,-786.96 132.85,-833.04"/>
<text xml:space="preserve" text-anchor="middle" x="74.43" y="-818.5" font-family="Helvetica,sans-Serif" font-size="10.00">test_otgpd.jl</text>
<text xml:space="preserve" text-anchor="middle" x="74.43" y="-806.5" font-family="Helvetica,sans-Serif" font-size="10.00">adaptive convergence</text>
<text xml:space="preserve" text-anchor="middle" x="74.43" y="-794.5" font-family="Helvetica,sans-Serif" font-size="10.00">oracle accounting</text>
</g>
<!-- t_otgpd&#45;&gt;s_dimer -->
<g id="edge20" class="edge">
<title>t_otgpd&#45;&gt;s_dimer</title>
<path fill="none" stroke="black" d="M133.24,-802.95C147.86,-801.17 163.61,-799.24 178.38,-797.44"/>
<polygon fill="black" stroke="black" points="178.45,-800.96 187.95,-796.28 177.6,-794.01 178.45,-800.96"/>
</g>
<!-- s_otgpd -->
<g id="node32" class="node">
<title>s_otgpd</title>
<polygon fill="#a8d5a2" stroke="black" points="290.95,-862 193.85,-862 189.85,-858 189.85,-826 286.95,-826 290.95,-830 290.95,-862"/>
<polyline fill="none" stroke="black" points="286.95,-858 189.85,-858"/>
<polyline fill="none" stroke="black" points="286.95,-858 286.95,-826"/>
<polyline fill="none" stroke="black" points="286.95,-858 290.95,-862"/>
<text xml:space="preserve" text-anchor="middle" x="240.4" y="-840.5" font-family="Helvetica,sans-Serif" font-size="10.00">optimizers/otgpd.jl</text>
</g>
<!-- t_otgpd&#45;&gt;s_otgpd -->
<g id="edge19" class="edge">
<title>t_otgpd&#45;&gt;s_otgpd</title>
<path fill="none" stroke="black" d="M133.24,-821.99C147.86,-825.02 163.61,-828.28 178.38,-831.35"/>
<polygon fill="black" stroke="black" points="177.47,-834.73 187.97,-833.34 178.89,-827.88 177.47,-834.73"/>
</g>
<!-- t_mb -->
<g id="node7" class="node">
<title>t_mb</title>
<polygon fill="#d5b8e8" stroke="black" points="128.72,-973.04 20.13,-973.04 20.13,-926.96 128.72,-926.96 128.72,-973.04"/>
<text xml:space="preserve" text-anchor="middle" x="74.43" y="-958.5" font-family="Helvetica,sans-Serif" font-size="10.00">test_muller_brown.jl</text>
<text xml:space="preserve" text-anchor="middle" x="74.43" y="-946.5" font-family="Helvetica,sans-Serif" font-size="10.00">potential values</text>
<text xml:space="preserve" text-anchor="middle" x="74.43" y="-934.5" font-family="Helvetica,sans-Serif" font-size="10.00">gradient eval</text>
</g>
<!-- s_mb -->
<g id="node37" class="node">
<title>s_mb</title>
<polygon fill="#a8d5a2" stroke="black" points="301.07,-1078 183.72,-1078 179.72,-1074 179.72,-1042 297.07,-1042 301.07,-1046 301.07,-1078"/>
<polyline fill="none" stroke="black" points="297.07,-1074 179.72,-1074"/>
<polyline fill="none" stroke="black" points="297.07,-1074 297.07,-1042"/>
<polyline fill="none" stroke="black" points="297.07,-1074 301.07,-1078"/>
<text xml:space="preserve" text-anchor="middle" x="240.4" y="-1056.5" font-family="Helvetica,sans-Serif" font-size="10.00">oracles/muller_brown.jl</text>
</g>
<!-- t_mb&#45;&gt;s_mb -->
<g id="edge21" class="edge">
<title>t_mb&#45;&gt;s_mb</title>
<path fill="none" stroke="black" d="M128.92,-971.74C133.27,-974.78 137.34,-978.19 140.85,-982 157.35,-999.9 143.27,-1016.15 160.85,-1033 163.56,-1035.59 166.52,-1037.94 169.67,-1040.06"/>
<polygon fill="black" stroke="black" points="167.85,-1043.05 178.26,-1045.02 171.35,-1036.99 167.85,-1043.05"/>
</g>
<!-- t_leps -->
<g id="node8" class="node">
<title>t_leps</title>
<polygon fill="#d5b8e8" stroke="black" points="123.85,-1037.04 25,-1037.04 25,-990.96 123.85,-990.96 123.85,-1037.04"/>
<text xml:space="preserve" text-anchor="middle" x="74.43" y="-1022.5" font-family="Helvetica,sans-Serif" font-size="10.00">test_leps.jl</text>
<text xml:space="preserve" text-anchor="middle" x="74.43" y="-1010.5" font-family="Helvetica,sans-Serif" font-size="10.00">2D + 3D versions</text>
<text xml:space="preserve" text-anchor="middle" x="74.43" y="-998.5" font-family="Helvetica,sans-Serif" font-size="10.00">reactant/product</text>
</g>
<!-- s_leps -->
<g id="node38" class="node">
<title>s_leps</title>
<polygon fill="#a8d5a2" stroke="black" points="281.2,-1132 203.6,-1132 199.6,-1128 199.6,-1096 277.2,-1096 281.2,-1100 281.2,-1132"/>
<polyline fill="none" stroke="black" points="277.2,-1128 199.6,-1128"/>
<polyline fill="none" stroke="black" points="277.2,-1128 277.2,-1096"/>
<polyline fill="none" stroke="black" points="277.2,-1128 281.2,-1132"/>
<text xml:space="preserve" text-anchor="middle" x="240.4" y="-1110.5" font-family="Helvetica,sans-Serif" font-size="10.00">oracles/leps.jl</text>
</g>
<!-- t_leps&#45;&gt;s_leps -->
<g id="edge22" class="edge">
<title>t_leps&#45;&gt;s_leps</title>
<path fill="none" stroke="black" d="M124.33,-1033.31C130.32,-1036.95 136.02,-1041.17 140.85,-1046 155.18,-1060.34 145.66,-1073.57 160.85,-1087 168.78,-1094.01 178.63,-1099.23 188.64,-1103.09"/>
<polygon fill="black" stroke="black" points="187.45,-1106.39 198.05,-1106.29 189.71,-1099.76 187.45,-1106.39"/>
</g>
<!-- t_dist -->
<g id="node9" class="node">
<title>t_dist</title>
<polygon fill="#d5b8e8" stroke="black" points="120.85,-1165.04 28,-1165.04 28,-1118.96 120.85,-1118.96 120.85,-1165.04"/>
<text xml:space="preserve" text-anchor="middle" x="74.43" y="-1150.5" font-family="Helvetica,sans-Serif" font-size="10.00">test_distances.jl</text>
<text xml:space="preserve" text-anchor="middle" x="74.43" y="-1138.5" font-family="Helvetica,sans-Serif" font-size="10.00">log distance</text>
<text xml:space="preserve" text-anchor="middle" x="74.43" y="-1126.5" font-family="Helvetica,sans-Serif" font-size="10.00">RMSD</text>
</g>
<!-- s_dist -->
<g id="node33" class="node">
<title>s_dist</title>
<polygon fill="#a8d5a2" stroke="black" points="275.95,-1240 208.85,-1240 204.85,-1236 204.85,-1204 271.95,-1204 275.95,-1208 275.95,-1240"/>
<polyline fill="none" stroke="black" points="271.95,-1236 204.85,-1236"/>
<polyline fill="none" stroke="black" points="271.95,-1236 271.95,-1204"/>
<polyline fill="none" stroke="black" points="271.95,-1236 275.95,-1240"/>
<text xml:space="preserve" text-anchor="middle" x="240.4" y="-1218.5" font-family="Helvetica,sans-Serif" font-size="10.00">distances.jl</text>
</g>
<!-- t_dist&#45;&gt;s_dist -->
<g id="edge23" class="edge">
<title>t_dist&#45;&gt;s_dist</title>
<path fill="none" stroke="black" d="M121.34,-1161.85C128.11,-1165.51 134.83,-1169.59 140.85,-1174 151.25,-1181.62 150,-1188.04 160.85,-1195 170.88,-1201.43 182.61,-1206.52 193.9,-1210.47"/>
<polygon fill="black" stroke="black" points="192.5,-1213.7 203.09,-1213.45 194.66,-1207.04 192.5,-1213.7"/>
</g>
<!-- t_emd -->
<g id="node10" class="node">
<title>t_emd</title>
<polygon fill="#d5b8e8" stroke="black" points="110.73,-1101.04 38.13,-1101.04 38.13,-1054.96 110.73,-1054.96 110.73,-1101.04"/>
<text xml:space="preserve" text-anchor="middle" x="74.43" y="-1086.5" font-family="Helvetica,sans-Serif" font-size="10.00">test_emd.jl</text>
<text xml:space="preserve" text-anchor="middle" x="74.43" y="-1074.5" font-family="Helvetica,sans-Serif" font-size="10.00">permutation</text>
<text xml:space="preserve" text-anchor="middle" x="74.43" y="-1062.5" font-family="Helvetica,sans-Serif" font-size="10.00">invariance</text>
</g>
<!-- s_emd -->
<g id="node34" class="node">
<title>s_emd</title>
<polygon fill="#a8d5a2" stroke="black" points="287.95,-1186 196.85,-1186 192.85,-1182 192.85,-1150 283.95,-1150 287.95,-1154 287.95,-1186"/>
<polyline fill="none" stroke="black" points="283.95,-1182 192.85,-1182"/>
<polyline fill="none" stroke="black" points="283.95,-1182 283.95,-1150"/>
<polyline fill="none" stroke="black" points="283.95,-1182 287.95,-1186"/>
<text xml:space="preserve" text-anchor="middle" x="240.4" y="-1164.5" font-family="Helvetica,sans-Serif" font-size="10.00">distances_emd.jl</text>
</g>
<!-- t_emd&#45;&gt;s_emd -->
<g id="edge24" class="edge">
<title>t_emd&#45;&gt;s_emd</title>
<path fill="none" stroke="black" d="M111.21,-1091.22C121.49,-1096.11 132.25,-1102.36 140.85,-1110 153.11,-1120.89 147.94,-1130.89 160.85,-1141 167.1,-1145.9 174.29,-1149.93 181.74,-1153.26"/>
<polygon fill="black" stroke="black" points="180.37,-1156.48 190.95,-1156.93 182.96,-1149.98 180.37,-1156.48"/>
</g>
<!-- t_samp -->
<g id="node11" class="node">
<title>t_samp</title>
<polygon fill="#d5b8e8" stroke="black" points="119.35,-1229.04 29.5,-1229.04 29.5,-1182.96 119.35,-1182.96 119.35,-1229.04"/>
<text xml:space="preserve" text-anchor="middle" x="74.43" y="-1214.5" font-family="Helvetica,sans-Serif" font-size="10.00">test_sampling.jl</text>
<text xml:space="preserve" text-anchor="middle" x="74.43" y="-1202.5" font-family="Helvetica,sans-Serif" font-size="10.00">space&#45;filling</text>
<text xml:space="preserve" text-anchor="middle" x="74.43" y="-1190.5" font-family="Helvetica,sans-Serif" font-size="10.00">data retention</text>
</g>
<!-- t_samp&#45;&gt;s_dist -->
<g id="edge26" class="edge">
<title>t_samp&#45;&gt;s_dist</title>
<path fill="none" stroke="black" d="M119.8,-1210.33C142.6,-1212.55 170.35,-1215.26 193.38,-1217.51"/>
<polygon fill="black" stroke="black" points="192.81,-1220.97 203.1,-1218.46 193.49,-1214 192.81,-1220.97"/>
</g>
<!-- s_samp -->
<g id="node35" class="node">
<title>s_samp</title>
<polygon fill="#a8d5a2" stroke="black" points="274.45,-1294 210.35,-1294 206.35,-1290 206.35,-1258 270.45,-1258 274.45,-1262 274.45,-1294"/>
<polyline fill="none" stroke="black" points="270.45,-1290 206.35,-1290"/>
<polyline fill="none" stroke="black" points="270.45,-1290 270.45,-1258"/>
<polyline fill="none" stroke="black" points="270.45,-1290 274.45,-1294"/>
<text xml:space="preserve" text-anchor="middle" x="240.4" y="-1272.5" font-family="Helvetica,sans-Serif" font-size="10.00">sampling.jl</text>
</g>
<!-- t_samp&#45;&gt;s_samp -->
<g id="edge25" class="edge">
<title>t_samp&#45;&gt;s_samp</title>
<path fill="none" stroke="black" d="M119.56,-1227.23C126.71,-1230.77 134,-1234.45 140.85,-1238 149.85,-1242.67 151.57,-1244.89 160.85,-1249 171.84,-1253.87 184,-1258.43 195.41,-1262.37"/>
<polygon fill="black" stroke="black" points="194.02,-1265.59 204.61,-1265.46 196.25,-1258.96 194.02,-1265.59"/>
</g>
<!-- t_var -->
<g id="node12" class="node">
<title>t_var</title>
<polygon fill="#d5b8e8" stroke="black" points="122.35,-577 26.5,-577 26.5,-541 122.35,-541 122.35,-577"/>
<text xml:space="preserve" text-anchor="middle" x="74.43" y="-561.5" font-family="Helvetica,sans-Serif" font-size="10.00">test_variance.jl</text>
<text xml:space="preserve" text-anchor="middle" x="74.43" y="-549.5" font-family="Helvetica,sans-Serif" font-size="10.00">covariance props</text>
</g>
<!-- t_var&#45;&gt;s_deriv -->
<g id="edge28" class="edge">
<title>t_var&#45;&gt;s_deriv</title>
<path fill="none" stroke="black" d="M122.41,-547.82C143.85,-542.73 169.22,-536.69 190.84,-531.55"/>
<polygon fill="black" stroke="black" points="191.38,-535.02 200.29,-529.3 189.76,-528.21 191.38,-535.02"/>
</g>
<!-- t_var&#45;&gt;s_func -->
<g id="edge27" class="edge">
<title>t_var&#45;&gt;s_func</title>
<path fill="none" stroke="black" d="M122.55,-544.37C129.17,-540.99 135.52,-536.91 140.85,-532 155.18,-518.81 146.13,-505.76 160.85,-493 170.45,-484.69 182.73,-478.9 194.72,-474.88"/>
<polygon fill="black" stroke="black" points="195.52,-478.29 204.12,-472.1 193.53,-471.58 195.52,-478.29"/>
</g>
<!-- t_cpp -->
<g id="node13" class="node">
<title>t_cpp</title>
<polygon fill="#e8d5f5" stroke="black" stroke-dasharray="5,2" points="125.35,-1293.04 23.5,-1293.04 23.5,-1246.96 125.35,-1246.96 125.35,-1293.04"/>
<text xml:space="preserve" text-anchor="middle" x="74.43" y="-1278.5" font-family="Helvetica,sans-Serif" font-size="10.00">cpp_consistency.jl</text>
<text xml:space="preserve" text-anchor="middle" x="74.43" y="-1266.5" font-family="Helvetica,sans-Serif" font-size="10.00">(optional)</text>
<text xml:space="preserve" text-anchor="middle" x="74.43" y="-1254.5" font-family="Helvetica,sans-Serif" font-size="10.00">numerical match</text>
</g>
<!-- s_abstract -->
<g id="node14" class="node">
<title>s_abstract</title>
<polygon fill="#a8d5a2" stroke="black" points="289.82,-1348 194.97,-1348 190.97,-1344 190.97,-1312 285.82,-1312 289.82,-1316 289.82,-1348"/>
<polyline fill="none" stroke="black" points="285.82,-1344 190.97,-1344"/>
<polyline fill="none" stroke="black" points="285.82,-1344 285.82,-1312"/>
<polyline fill="none" stroke="black" points="285.82,-1344 289.82,-1348"/>
<text xml:space="preserve" text-anchor="middle" x="240.4" y="-1326.5" font-family="Helvetica,sans-Serif" font-size="10.00">kernels/abstract.jl</text>
</g>
<!-- t_cpp&#45;&gt;s_abstract -->
<g id="edge29" class="edge">
<title>t_cpp&#45;&gt;s_abstract</title>
<path fill="none" stroke="black" stroke-dasharray="5,2" d="M125.45,-1289.68C137.04,-1294.15 149.35,-1298.8 160.85,-1303 167.01,-1305.25 173.46,-1307.55 179.91,-1309.81"/>
<polygon fill="black" stroke="black" points="178.67,-1313.09 189.26,-1313.08 180.97,-1306.48 178.67,-1313.09"/>
</g>
<!-- s_rpc -->
<g id="node39" class="node">
<title>s_rpc</title>
<polygon fill="#ffcccc" stroke="black" stroke-dasharray="5,2" points="278.95,-1402 205.85,-1402 201.85,-1398 201.85,-1366 274.95,-1366 278.95,-1370 278.95,-1402"/>
<polyline fill="none" stroke="black" stroke-dasharray="5,2" points="274.95,-1398 201.85,-1398"/>
<polyline fill="none" stroke="black" stroke-dasharray="5,2" points="274.95,-1398 274.95,-1366"/>
<polyline fill="none" stroke="black" stroke-dasharray="5,2" points="274.95,-1398 278.95,-1402"/>
<text xml:space="preserve" text-anchor="middle" x="240.4" y="-1380.5" font-family="Helvetica,sans-Serif" font-size="10.00">oracles/rpc.jl</text>
</g>
<!-- leg_tested -->
<g id="node40" class="node">
<title>leg_tested</title>
<polygon fill="#a8d5a2" stroke="black" points="101.43,-1377 47.43,-1377 47.43,-1341 101.43,-1341 101.43,-1377"/>
<text xml:space="preserve" text-anchor="middle" x="74.43" y="-1355.7" font-family="Helvetica,sans-Serif" font-size="9.00">Tested</text>
</g>
<!-- leg_untested -->
<g id="node41" class="node">
<title>leg_untested</title>
<polygon fill="#ffcccc" stroke="black" stroke-dasharray="5,2" points="125.73,-1431 23.13,-1431 23.13,-1395 125.73,-1395 125.73,-1431"/>
<text xml:space="preserve" text-anchor="middle" x="74.43" y="-1414.95" font-family="Helvetica,sans-Serif" font-size="9.00">No dedicated test</text>
<text xml:space="preserve" text-anchor="middle" x="74.43" y="-1404.45" font-family="Helvetica,sans-Serif" font-size="9.00">(RPC needs server)</text>
</g>
<!-- leg_optional -->
<g id="node42" class="node">
<title>leg_optional</title>
<polygon fill="#e8d5f5" stroke="black" stroke-dasharray="5,2" points="110.73,-1485 38.13,-1485 38.13,-1449 110.73,-1449 110.73,-1485"/>
<text xml:space="preserve" text-anchor="middle" x="74.43" y="-1463.7" font-family="Helvetica,sans-Serif" font-size="9.00">Optional test</text>
</g>
</g>
</svg>
