<?xml version="1.0" encoding="UTF-8" standalone="no"?>
<!DOCTYPE svg PUBLIC "-//W3C//DTD SVG 1.1//EN"
 "http://www.w3.org/Graphics/SVG/1.1/DTD/svg11.dtd">
<!-- Generated by graphviz version 14.1.2 (0)
 -->
<!-- Title: gp_pipeline Pages: 1 -->
<svg width="2119pt" height="388pt"
 viewBox="0.00 0.00 2119.00 388.00" xmlns="http://www.w3.org/2000/svg" xmlns:xlink="http://www.w3.org/1999/xlink">
<g id="graph0" class="graph" transform="scale(1 1) rotate(0) translate(4 383.75)">
<title>gp_pipeline</title>
<polygon fill="white" stroke="none" points="-4,4 -4,-383.75 2115.32,-383.75 2115.32,4 -4,4"/>
<text xml:space="preserve" text-anchor="middle" x="1055.66" y="-362.45" font-family="Helvetica,sans-Serif" font-size="14.00">GP Training &amp; Prediction Pipeline</text>
<g id="clust1" class="cluster">
<title>cluster_training</title>
<polygon fill="#f0fff0" stroke="#d5e8d4" points="487.29,-250 487.29,-348 1089.97,-348 1089.97,-250 487.29,-250"/>
<text xml:space="preserve" text-anchor="middle" x="788.63" y="-330.7" font-family="Helvetica,sans-Serif" font-size="14.00">Training Data Accumulation</text>
</g>
<g id="clust2" class="cluster">
<title>cluster_kernel</title>
<polygon fill="#f0f7ff" stroke="#dceefb" points="470.42,-156 470.42,-242 1119.97,-242 1119.97,-156 470.42,-156"/>
<text xml:space="preserve" text-anchor="middle" x="795.19" y="-224.7" font-family="Helvetica,sans-Serif" font-size="14.00">Kernel Computation</text>
</g>
<g id="clust3" class="cluster">
<title>cluster_cov</title>
<polygon fill="#fffef0" stroke="#fff2cc" points="1169.97,-156 1169.97,-242 1497.17,-242 1497.17,-156 1169.97,-156"/>
<text xml:space="preserve" text-anchor="middle" x="1333.57" y="-224.7" font-family="Helvetica,sans-Serif" font-size="14.00">Covariance Assembly</text>
</g>
<g id="clust4" class="cluster">
<title>cluster_train</title>
<polygon fill="#f9f5ff" stroke="#e1d5e7" points="226.62,-8 226.62,-148 655.02,-148 655.02,-8 226.62,-8"/>
<text xml:space="preserve" text-anchor="middle" x="440.82" y="-130.7" font-family="Helvetica,sans-Serif" font-size="14.00">Hyperparameter Optimization</text>
</g>
<g id="clust5" class="cluster">
<title>cluster_predict</title>
<polygon fill="#fff5f5" stroke="#fce4ec" points="1518.17,-80 1518.17,-264 2103.32,-264 2103.32,-80 1518.17,-80"/>
<text xml:space="preserve" text-anchor="middle" x="1810.74" y="-246.7" font-family="Helvetica,sans-Serif" font-size="14.00">GP Inference</text>
</g>
<!-- oracle -->
<g id="node1" class="node">
<title>oracle</title>
<polygon fill="#f5b7b1" stroke="black" points="348.42,-311.2 348.42,-332.8 316.2,-348.08 270.65,-348.08 238.43,-332.8 238.43,-311.2 270.65,-295.92 316.2,-295.92 348.42,-311.2"/>
<polygon fill="none" stroke="black" points="352.42,-308.67 352.42,-335.33 317.1,-352.08 269.75,-352.08 234.43,-335.33 234.43,-308.67 269.75,-291.92 317.1,-291.92 352.42,-308.67"/>
<text xml:space="preserve" text-anchor="middle" x="293.42" y="-324.5" font-family="Helvetica,sans-Serif" font-size="10.00">Oracle</text>
<text xml:space="preserve" text-anchor="middle" x="293.42" y="-312.5" font-family="Helvetica,sans-Serif" font-size="10.00">(expensive)</text>
</g>
<!-- add_point -->
<g id="node3" class="node">
<title>add_point</title>
<polygon fill="#a8d5a2" stroke="black" points="561.89,-305 495.29,-305 495.29,-269 561.89,-269 561.89,-305"/>
<text xml:space="preserve" text-anchor="middle" x="528.59" y="-289.5" font-family="Helvetica,sans-Serif" font-size="10.00">add_point!</text>
<text xml:space="preserve" text-anchor="middle" x="528.59" y="-277.5" font-family="Helvetica,sans-Serif" font-size="10.00">(x, E, G)</text>
</g>
<!-- oracle&#45;&gt;add_point -->
<g id="edge2" class="edge">
<title>oracle&#45;&gt;add_point</title>
<path fill="none" stroke="black" d="M352.66,-313.26C393.37,-307.15 446.86,-299.12 483.93,-293.55"/>
<polygon fill="black" stroke="black" points="484,-297.08 493.37,-292.14 482.96,-290.16 484,-297.08"/>
<text xml:space="preserve" text-anchor="middle" x="381.29" y="-311.83" font-family="Helvetica,sans-Serif" font-size="8.00">(E, G)</text>
</g>
<!-- coords -->
<g id="node2" class="node">
<title>coords</title>
<ellipse fill="#e8e8e8" stroke="black" cx="84.22" cy="-280" rx="84.22" ry="24.1"/>
<text xml:space="preserve" text-anchor="middle" x="84.22" y="-282.5" font-family="Helvetica,sans-Serif" font-size="10.00">Coordinates</text>
<text xml:space="preserve" text-anchor="middle" x="84.22" y="-270.5" font-family="Helvetica,sans-Serif" font-size="10.00">x u2208 Ru00b3u1d3a</text>
</g>
<!-- coords&#45;&gt;oracle -->
<g id="edge1" class="edge">
<title>coords&#45;&gt;oracle</title>
<path fill="none" stroke="black" d="M153.93,-293.93C176.1,-298.42 200.68,-303.4 222.91,-307.91"/>
<polygon fill="black" stroke="black" points="221.97,-311.29 232.47,-309.85 223.36,-304.43 221.97,-311.29"/>
<text xml:space="preserve" text-anchor="middle" x="201.43" y="-308.15" font-family="Helvetica,sans-Serif" font-size="8.00">evaluate</text>
</g>
<!-- coords&#45;&gt;add_point -->
<g id="edge3" class="edge">
<title>coords&#45;&gt;add_point</title>
<path fill="none" stroke="black" d="M168.86,-280.69C221.54,-281.19 290.96,-281.95 352.42,-283 397.1,-283.76 448.18,-284.97 483.6,-285.85"/>
<polygon fill="black" stroke="black" points="483.39,-289.35 493.47,-286.1 483.56,-282.35 483.39,-289.35"/>
</g>
<!-- td -->
<g id="node4" class="node">
<title>td</title>
<polygon fill="#a8d5a2" stroke="black" points="869.62,-316.04 765.02,-316.04 761.02,-312.04 761.02,-257.96 865.62,-257.96 869.62,-261.96 869.62,-316.04"/>
<polyline fill="none" stroke="black" points="865.62,-312.04 761.02,-312.04"/>
<polyline fill="none" stroke="black" points="865.62,-312.04 865.62,-257.96"/>
<polyline fill="none" stroke="black" points="865.62,-312.04 869.62,-316.04"/>
<text xml:space="preserve" text-anchor="middle" x="815.32" y="-301.5" font-family="Helvetica,sans-Serif" font-size="10.00">TrainingData</text>
<text xml:space="preserve" text-anchor="middle" x="815.32" y="-289.5" font-family="Helvetica,sans-Serif" font-size="10.00">X: Du00d7N</text>
<text xml:space="preserve" text-anchor="middle" x="815.32" y="-277.5" font-family="Helvetica,sans-Serif" font-size="10.00">energies: N</text>
<text xml:space="preserve" text-anchor="middle" x="815.32" y="-265.5" font-family="Helvetica,sans-Serif" font-size="10.00">gradients: Du00b7N</text>
</g>
<!-- add_point&#45;&gt;td -->
<g id="edge4" class="edge">
<title>add_point&#45;&gt;td</title>
<path fill="none" stroke="black" d="M562.25,-287C607.72,-287 691.06,-287 749.42,-287"/>
<polygon fill="black" stroke="black" points="749.23,-290.5 759.23,-287 749.23,-283.5 749.23,-290.5"/>
</g>
<!-- normalize_op -->
<g id="node5" class="node">
<title>normalize_op</title>
<polygon fill="#a8d5a2" stroke="black" points="1081.97,-307.04 985.37,-307.04 985.37,-260.96 1081.97,-260.96 1081.97,-307.04"/>
<text xml:space="preserve" text-anchor="middle" x="1033.67" y="-292.5" font-family="Helvetica,sans-Serif" font-size="10.00">normalize</text>
<text xml:space="preserve" text-anchor="middle" x="1033.67" y="-280.5" font-family="Helvetica,sans-Serif" font-size="10.00">u2192 zero&#45;mean</text>
<text xml:space="preserve" text-anchor="middle" x="1033.67" y="-268.5" font-family="Helvetica,sans-Serif" font-size="10.00">u2192 unit&#45;var</text>
</g>
<!-- td&#45;&gt;normalize_op -->
<g id="edge5" class="edge">
<title>td&#45;&gt;normalize_op</title>
<path fill="none" stroke="black" d="M870.07,-286.25C901.64,-285.82 941.57,-285.26 973.96,-284.81"/>
<polygon fill="black" stroke="black" points="973.61,-288.32 983.56,-284.68 973.52,-281.32 973.61,-288.32"/>
</g>
<!-- build_cov -->
<g id="node9" class="node">
<title>build_cov</title>
<polygon fill="#ffe599" stroke="black" points="1296.32,-210.04 1177.97,-210.04 1177.97,-163.96 1296.32,-163.96 1296.32,-210.04"/>
<text xml:space="preserve" text-anchor="middle" x="1237.14" y="-195.5" font-family="Helvetica,sans-Serif" font-size="10.00">build_full_covariance</text>
<text xml:space="preserve" text-anchor="middle" x="1237.14" y="-183.5" font-family="Helvetica,sans-Serif" font-size="10.00">N(1+D) u00d7 N(1+D)</text>
<text xml:space="preserve" text-anchor="middle" x="1237.14" y="-171.5" font-family="Helvetica,sans-Serif" font-size="10.00">Symmetric matrix</text>
</g>
<!-- normalize_op&#45;&gt;build_cov -->
<g id="edge6" class="edge">
<title>normalize_op&#45;&gt;build_cov</title>
<path fill="none" stroke="black" d="M1082.24,-263.32C1094.58,-257.81 1107.82,-251.79 1119.97,-246 1140.05,-236.44 1161.84,-225.51 1181.07,-215.69"/>
<polygon fill="black" stroke="black" points="1182.52,-218.88 1189.82,-211.2 1179.32,-212.65 1182.52,-218.88"/>
<text xml:space="preserve" text-anchor="middle" x="1144.97" y="-242.02" font-family="Helvetica,sans-Serif" font-size="8.00">y_norm</text>
</g>
<!-- inv_dist -->
<g id="node6" class="node">
<title>inv_dist</title>
<polygon fill="#b3d9ff" stroke="black" points="578.77,-210.04 478.42,-210.04 478.42,-163.96 578.77,-163.96 578.77,-210.04"/>
<text xml:space="preserve" text-anchor="middle" x="528.59" y="-195.5" font-family="Helvetica,sans-Serif" font-size="10.00">compute_</text>
<text xml:space="preserve" text-anchor="middle" x="528.59" y="-183.5" font-family="Helvetica,sans-Serif" font-size="10.00">inverse_distances</text>
<text xml:space="preserve" text-anchor="middle" x="528.59" y="-171.5" font-family="Helvetica,sans-Serif" font-size="10.00">f = 1/ru1d62u2c7c</text>
</g>
<!-- kernel_eval -->
<g id="node7" class="node">
<title>kernel_eval</title>
<polygon fill="#b3d9ff" stroke="black" points="918.37,-205 712.27,-205 712.27,-169 918.37,-169 918.37,-205"/>
<text xml:space="preserve" text-anchor="middle" x="815.32" y="-189.5" font-family="Helvetica,sans-Serif" font-size="10.00">k(xu1d62, xu2c7c)</text>
<text xml:space="preserve" text-anchor="middle" x="815.32" y="-177.5" font-family="Helvetica,sans-Serif" font-size="10.00">u03c3u00b2 u00b7 K(f(xu1d62), f(xu2c7c))</text>
</g>
<!-- inv_dist&#45;&gt;kernel_eval -->
<g id="edge7" class="edge">
<title>inv_dist&#45;&gt;kernel_eval</title>
<path fill="none" stroke="black" d="M579.19,-187C612.68,-187 658.31,-187 700.46,-187"/>
<polygon fill="black" stroke="black" points="700.44,-190.5 710.44,-187 700.44,-183.5 700.44,-190.5"/>
</g>
<!-- kernel_blocks_op -->
<g id="node8" class="node">
<title>kernel_blocks_op</title>
<polygon fill="#b3d9ff" stroke="black" points="1111.97,-210.04 955.37,-210.04 955.37,-163.96 1111.97,-163.96 1111.97,-210.04"/>
<text xml:space="preserve" text-anchor="middle" x="1033.67" y="-195.5" font-family="Helvetica,sans-Serif" font-size="10.00">kernel_blocks</text>
<text xml:space="preserve" text-anchor="middle" x="1033.67" y="-183.5" font-family="Helvetica,sans-Serif" font-size="10.00">u2202k/u2202x via ForwardDiff</text>
<text xml:space="preserve" text-anchor="middle" x="1033.67" y="-171.5" font-family="Helvetica,sans-Serif" font-size="10.00">u2192 (k_ee, k_ef, k_fe, k_ff)</text>
</g>
<!-- kernel_eval&#45;&gt;kernel_blocks_op -->
<g id="edge8" class="edge">
<title>kernel_eval&#45;&gt;kernel_blocks_op</title>
<path fill="none" stroke="black" d="M918.79,-187C927.1,-187 935.46,-187 943.67,-187"/>
<polygon fill="black" stroke="black" points="943.64,-190.5 953.64,-187 943.64,-183.5 943.64,-190.5"/>
</g>
<!-- kernel_blocks_op&#45;&gt;build_cov -->
<g id="edge9" class="edge">
<title>kernel_blocks_op&#45;&gt;build_cov</title>
<path fill="none" stroke="black" d="M1112.27,-187C1130.1,-187 1148.94,-187 1166.41,-187"/>
<polygon fill="black" stroke="black" points="1166.15,-190.5 1176.15,-187 1166.15,-183.5 1166.15,-190.5"/>
<text xml:space="preserve" text-anchor="middle" x="1144.97" y="-198.9" font-family="Helvetica,sans-Serif" font-size="8.00">block</text>
<text xml:space="preserve" text-anchor="middle" x="1144.97" y="-189.15" font-family="Helvetica,sans-Serif" font-size="8.00">matrices</text>
</g>
<!-- noise -->
<g id="node10" class="node">
<title>noise</title>
<polygon fill="#ffe599" stroke="black" points="1489.17,-210.04 1333.32,-210.04 1333.32,-163.96 1489.17,-163.96 1489.17,-210.04"/>
<text xml:space="preserve" text-anchor="middle" x="1411.24" y="-195.5" font-family="Helvetica,sans-Serif" font-size="10.00">+ u03c3u00b2u2099I (energy)</text>
<text xml:space="preserve" text-anchor="middle" x="1411.24" y="-183.5" font-family="Helvetica,sans-Serif" font-size="10.00">+ u03c3u00b2u2098I (gradient)</text>
<text xml:space="preserve" text-anchor="middle" x="1411.24" y="-171.5" font-family="Helvetica,sans-Serif" font-size="10.00">+ jitter</text>
</g>
<!-- build_cov&#45;&gt;noise -->
<g id="edge10" class="edge">
<title>build_cov&#45;&gt;noise</title>
<path fill="none" stroke="black" d="M1296.41,-187C1304.61,-187 1313.19,-187 1321.81,-187"/>
<polygon fill="black" stroke="black" points="1321.6,-190.5 1331.6,-187 1321.6,-183.5 1321.6,-190.5"/>
</g>
<!-- log_ml -->
<g id="node11" class="node">
<title>log_ml</title>
<polygon fill="#d5b8e8" stroke="black" points="352.22,-52 234.62,-52 234.62,-16 352.22,-16 352.22,-52"/>
<text xml:space="preserve" text-anchor="middle" x="293.42" y="-36.5" font-family="Helvetica,sans-Serif" font-size="10.00">log marginal likelihood</text>
<text xml:space="preserve" text-anchor="middle" x="293.42" y="-24.5" font-family="Helvetica,sans-Serif" font-size="10.00">log p(y|u03b8)</text>
</g>
<!-- noise&#45;&gt;log_ml -->
<g id="edge11" class="edge">
<title>noise&#45;&gt;log_ml</title>
<path fill="none" stroke="black" d="M1397.58,-163.72C1372.89,-121.81 1314.02,-38 1238.14,-38 527.59,-38 527.59,-38 527.59,-38 472.54,-38 410.19,-36.87 363.82,-35.81"/>
<polygon fill="black" stroke="black" points="363.98,-32.32 353.9,-35.58 363.82,-39.31 363.98,-32.32"/>
</g>
<!-- cholesky -->
<g id="node14" class="node">
<title>cholesky</title>
<polygon fill="#f5b7b1" stroke="black" points="1595.77,-205 1526.17,-205 1526.17,-169 1595.77,-169 1595.77,-205"/>
<text xml:space="preserve" text-anchor="middle" x="1560.97" y="-189.5" font-family="Helvetica,sans-Serif" font-size="10.00">Cholesky</text>
<text xml:space="preserve" text-anchor="middle" x="1560.97" y="-177.5" font-family="Helvetica,sans-Serif" font-size="10.00">L = chol(K)</text>
</g>
<!-- noise&#45;&gt;cholesky -->
<g id="edge15" class="edge">
<title>noise&#45;&gt;cholesky</title>
<path fill="none" stroke="black" d="M1489.56,-187C1498,-187 1506.38,-187 1514.25,-187"/>
<polygon fill="black" stroke="black" points="1514.25,-190.5 1524.25,-187 1514.25,-183.5 1514.25,-190.5"/>
</g>
<!-- nelder_mead -->
<g id="node12" class="node">
<title>nelder_mead</title>
<polygon fill="#d5b8e8" stroke="black" points="647.02,-116.04 410.17,-116.04 410.17,-69.96 647.02,-69.96 647.02,-116.04"/>
<text xml:space="preserve" text-anchor="middle" x="528.59" y="-101.5" font-family="Helvetica,sans-Serif" font-size="10.00">Nelder&#45;Mead</text>
<text xml:space="preserve" text-anchor="middle" x="528.59" y="-89.5" font-family="Helvetica,sans-Serif" font-size="10.00">(Optim.jl)</text>
<text xml:space="preserve" text-anchor="middle" x="528.59" y="-77.5" font-family="Helvetica,sans-Serif" font-size="10.00">optimize u03c3, u03b8, u03c3u2099, u03c3u2098</text>
</g>
<!-- log_ml&#45;&gt;nelder_mead -->
<g id="edge12" class="edge">
<title>log_ml&#45;&gt;nelder_mead</title>
<path fill="none" stroke="black" d="M352.66,-48.74C374.18,-54.18 399.28,-60.53 423.64,-66.7"/>
<polygon fill="black" stroke="black" points="422.74,-70.08 433.29,-69.14 424.45,-63.29 422.74,-70.08"/>
</g>
<!-- nelder_mead&#45;&gt;kernel_eval -->
<g id="edge14" class="edge">
<title>nelder_mead&#45;&gt;kernel_eval</title>
<path fill="none" stroke="#993399" stroke-dasharray="5,2" d="M600.7,-116.48C645.65,-131.32 703.36,-150.37 747.47,-164.93"/>
<polygon fill="#993399" stroke="#993399" points="746.34,-168.24 756.93,-168.06 748.54,-161.6 746.34,-168.24"/>
<text xml:space="preserve" text-anchor="middle" x="679.64" y="-157.53" font-family="Helvetica,sans-Serif" font-size="8.00">updated</text>
<text xml:space="preserve" text-anchor="middle" x="679.64" y="-147.78" font-family="Helvetica,sans-Serif" font-size="8.00">params</text>
</g>
<!-- param_handle -->
<g id="node13" class="node">
<title>param_handle</title>
<polygon fill="#d5b8e8" stroke="black" points="346.6,-116.04 240.25,-116.04 240.25,-69.96 346.6,-69.96 346.6,-116.04"/>
<text xml:space="preserve" text-anchor="middle" x="293.42" y="-101.5" font-family="Helvetica,sans-Serif" font-size="10.00">ParameterHandling</text>
<text xml:space="preserve" text-anchor="middle" x="293.42" y="-89.5" font-family="Helvetica,sans-Serif" font-size="10.00">pack/unpack</text>
<text xml:space="preserve" text-anchor="middle" x="293.42" y="-77.5" font-family="Helvetica,sans-Serif" font-size="10.00">positive constraints</text>
</g>
<!-- param_handle&#45;&gt;nelder_mead -->
<g id="edge13" class="edge">
<title>param_handle&#45;&gt;nelder_mead</title>
<path fill="none" stroke="black" d="M358.4,-93C371.07,-93 384.77,-93 398.72,-93"/>
<polygon fill="black" stroke="black" points="358.56,-89.5 348.56,-93 358.56,-96.5 358.56,-89.5"/>
<polygon fill="black" stroke="black" points="398.42,-96.5 408.42,-93 398.42,-89.5 398.42,-96.5"/>
</g>
<!-- predict_op -->
<g id="node15" class="node">
<title>predict_op</title>
<polygon fill="#f5b7b1" stroke="black" points="1864.37,-178 1702.52,-178 1702.52,-142 1864.37,-142 1864.37,-178"/>
<text xml:space="preserve" text-anchor="middle" x="1783.44" y="-162.5" font-family="Helvetica,sans-Serif" font-size="10.00">predict</text>
<text xml:space="preserve" text-anchor="middle" x="1783.44" y="-150.5" font-family="Helvetica,sans-Serif" font-size="10.00">u03bc = ku209c Ku207bu00b9 y</text>
</g>
<!-- cholesky&#45;&gt;predict_op -->
<g id="edge16" class="edge">
<title>cholesky&#45;&gt;predict_op</title>
<path fill="none" stroke="black" d="M1595.93,-182.84C1621.33,-179.73 1657.31,-175.32 1690.91,-171.21"/>
<polygon fill="black" stroke="black" points="1691.19,-174.7 1700.69,-170.01 1690.34,-167.75 1691.19,-174.7"/>
</g>
<!-- predict_var -->
<g id="node16" class="node">
<title>predict_var</title>
<polygon fill="#f5b7b1" stroke="black" points="1934.12,-232 1632.77,-232 1632.77,-196 1934.12,-196 1934.12,-232"/>
<text xml:space="preserve" text-anchor="middle" x="1783.44" y="-216.5" font-family="Helvetica,sans-Serif" font-size="10.00">predict_with_variance</text>
<text xml:space="preserve" text-anchor="middle" x="1783.44" y="-204.5" font-family="Helvetica,sans-Serif" font-size="10.00">u03c3u00b2 = ku209cu209c &#45; ku209cKu207bu00b9ku209cu1d40</text>
</g>
<!-- cholesky&#45;&gt;predict_var -->
<g id="edge17" class="edge">
<title>cholesky&#45;&gt;predict_var</title>
<path fill="none" stroke="black" d="M1595.93,-191.16C1603.49,-192.09 1611.98,-193.13 1621.07,-194.24"/>
<polygon fill="black" stroke="black" points="1620.58,-197.7 1630.93,-195.45 1621.43,-190.76 1620.58,-197.7"/>
</g>
<!-- output_E -->
<g id="node17" class="node">
<title>output_E</title>
<ellipse fill="#e8e8e8" stroke="black" cx="2033.22" cy="-106" rx="33.14" ry="18"/>
<text xml:space="preserve" text-anchor="middle" x="2033.22" y="-102.5" font-family="Helvetica,sans-Serif" font-size="10.00">E_pred</text>
</g>
<!-- predict_op&#45;&gt;output_E -->
<g id="edge18" class="edge">
<title>predict_op&#45;&gt;output_E</title>
<path fill="none" stroke="black" d="M1864.55,-142.54C1906.72,-133.35 1956.66,-122.47 1991.01,-114.98"/>
<polygon fill="black" stroke="black" points="1991.52,-118.45 2000.55,-112.9 1990.03,-111.61 1991.52,-118.45"/>
</g>
<!-- output_G -->
<g id="node18" class="node">
<title>output_G</title>
<ellipse fill="#e8e8e8" stroke="black" cx="2033.22" cy="-160" rx="33.62" ry="18"/>
<text xml:space="preserve" text-anchor="middle" x="2033.22" y="-156.5" font-family="Helvetica,sans-Serif" font-size="10.00">G_pred</text>
</g>
<!-- predict_op&#45;&gt;output_G -->
<g id="edge19" class="edge">
<title>predict_op&#45;&gt;output_G</title>
<path fill="none" stroke="black" d="M1864.55,-160C1905.4,-160 1953.54,-160 1987.73,-160"/>
<polygon fill="black" stroke="black" points="1987.7,-163.5 1997.7,-160 1987.7,-156.5 1987.7,-163.5"/>
</g>
<!-- output_var -->
<g id="node19" class="node">
<title>output_var</title>
<ellipse fill="#e8e8e8" stroke="black" cx="2033.22" cy="-214" rx="62.1" ry="18"/>
<text xml:space="preserve" text-anchor="middle" x="2033.22" y="-210.5" font-family="Helvetica,sans-Serif" font-size="10.00">u03c3u00b2_pred</text>
</g>
<!-- predict_var&#45;&gt;output_var -->
<g id="edge20" class="edge">
<title>predict_var&#45;&gt;output_var</title>
<path fill="none" stroke="black" d="M1934.29,-214C1942.85,-214 1951.24,-214 1959.28,-214"/>
<polygon fill="black" stroke="black" points="1959.27,-217.5 1969.27,-214 1959.27,-210.5 1959.27,-217.5"/>
</g>
</g>
</svg>
