<?xml version="1.0" encoding="UTF-8" standalone="no"?>
<!DOCTYPE svg PUBLIC "-//W3C//DTD SVG 1.1//EN"
 "http://www.w3.org/Graphics/SVG/1.1/DTD/svg11.dtd">
<!-- Generated by graphviz version 14.1.2 (0)
 -->
<!-- Title: kernel_composition Pages: 1 -->
<svg width="844pt" height="665pt"
 viewBox="0.00 0.00 844.00 665.00" xmlns="http://www.w3.org/2000/svg" xmlns:xlink="http://www.w3.org/1999/xlink">
<g id="graph0" class="graph" transform="scale(1 1) rotate(0) translate(4 661.1)">
<title>kernel_composition</title>
<polygon fill="white" stroke="none" points="-4,4 -4,-661.1 840.42,-661.1 840.42,4 -4,4"/>
<text xml:space="preserve" text-anchor="middle" x="418.21" y="-639.8" font-family="Helvetica,sans-Serif" font-size="14.00">Kernel Composition &amp; Feature Pipeline</text>
<g id="clust1" class="cluster">
<title>cluster_input</title>
<polygon fill="#f5f5f5" stroke="#e8e8e8" points="205,-537.4 205,-625.35 822,-625.35 822,-537.4 205,-537.4"/>
<text xml:space="preserve" text-anchor="middle" x="513.5" y="-608.05" font-family="Helvetica,sans-Serif" font-size="14.00">Input</text>
</g>
<g id="clust2" class="cluster">
<title>cluster_features</title>
<polygon fill="#f0f7ff" stroke="#dceefb" points="279,-361.49 279,-529.4 555,-529.4 555,-361.49 279,-361.49"/>
<text xml:space="preserve" text-anchor="middle" x="417" y="-512.1" font-family="Helvetica,sans-Serif" font-size="14.00">Feature Computation &#160;(invdist.jl)</text>
</g>
<g id="clust3" class="cluster">
<title>cluster_base_kernels</title>
<polygon fill="#f0fff0" stroke="#d5e8d4" points="8,-267.66 8,-353.49 806,-353.49 806,-267.66 8,-267.66"/>
<text xml:space="preserve" text-anchor="middle" x="407" y="-336.19" font-family="Helvetica,sans-Serif" font-size="14.00">Base Molecular Kernels</text>
</g>
<g id="clust4" class="cluster">
<title>cluster_lengthscale</title>
<polygon fill="#fffef0" stroke="#fff2cc" points="36,-173.83 36,-259.66 354,-259.66 354,-173.83 36,-173.83"/>
<text xml:space="preserve" text-anchor="middle" x="195" y="-242.36" font-family="Helvetica,sans-Serif" font-size="14.00">Lengthscale Modes</text>
</g>
<g id="clust5" class="cluster">
<title>cluster_composite</title>
<polygon fill="#f9f5ff" stroke="#e1d5e7" points="362,-101.83 362,-259.66 644,-259.66 644,-101.83 362,-101.83"/>
<text xml:space="preserve" text-anchor="middle" x="503" y="-242.36" font-family="Helvetica,sans-Serif" font-size="14.00">Composite Kernels</text>
</g>
<g id="clust6" class="cluster">
<title>cluster_examples</title>
<polygon fill="#fff5f5" stroke="#fce4ec" points="155,-8 155,-93.83 620,-93.83 620,-8 155,-8"/>
<text xml:space="preserve" text-anchor="middle" x="387.5" y="-76.53" font-family="Helvetica,sans-Serif" font-size="14.00">Example Compositions</text>
</g>
<!-- x_mov -->
<g id="node1" class="node">
<title>x_mov</title>
<ellipse fill="#e8e8e8" stroke="black" cx="353" cy="-569.5" rx="139.9" ry="24.1"/>
<text xml:space="preserve" text-anchor="middle" x="353" y="-572" font-family="Helvetica,sans-Serif" font-size="10.00">Moving atoms</text>
<text xml:space="preserve" text-anchor="middle" x="353" y="-560" font-family="Helvetica,sans-Serif" font-size="10.00">x u2208 Ru00b3u1d3au2098u1d52u1d5b</text>
</g>
<!-- pairs_mm -->
<g id="node3" class="node">
<title>pairs_mm</title>
<polygon fill="#b3d9ff" stroke="black" points="408.8,-497.65 297.2,-497.65 297.2,-451.57 408.8,-451.57 408.8,-497.65"/>
<text xml:space="preserve" text-anchor="middle" x="353" y="-483.11" font-family="Helvetica,sans-Serif" font-size="10.00">Moving&#45;Moving pairs</text>
<text xml:space="preserve" text-anchor="middle" x="353" y="-471.11" font-family="Helvetica,sans-Serif" font-size="10.00">N_mov(N_mov&#45;1)/2</text>
<text xml:space="preserve" text-anchor="middle" x="353" y="-459.11" font-family="Helvetica,sans-Serif" font-size="10.00">1/ru1d62u2c7c</text>
</g>
<!-- x_mov&#45;&gt;pairs_mm -->
<g id="edge1" class="edge">
<title>x_mov&#45;&gt;pairs_mm</title>
<path fill="none" stroke="black" d="M353,-545.06C353,-534.26 353,-521.23 353,-509.4"/>
<polygon fill="black" stroke="black" points="356.5,-509.59 353,-499.59 349.5,-509.59 356.5,-509.59"/>
</g>
<!-- pairs_mf -->
<g id="node4" class="node">
<title>pairs_mf</title>
<polygon fill="#b3d9ff" stroke="black" points="537.05,-497.65 426.95,-497.65 426.95,-451.57 537.05,-451.57 537.05,-497.65"/>
<text xml:space="preserve" text-anchor="middle" x="482" y="-483.11" font-family="Helvetica,sans-Serif" font-size="10.00">Moving&#45;Frozen pairs</text>
<text xml:space="preserve" text-anchor="middle" x="482" y="-471.11" font-family="Helvetica,sans-Serif" font-size="10.00">N_mov u00d7 N_fro</text>
<text xml:space="preserve" text-anchor="middle" x="482" y="-459.11" font-family="Helvetica,sans-Serif" font-size="10.00">1/ru1d62u2c7c</text>
</g>
<!-- x_mov&#45;&gt;pairs_mf -->
<g id="edge2" class="edge">
<title>x_mov&#45;&gt;pairs_mf</title>
<path fill="none" stroke="black" d="M392.48,-546.11C401.06,-540.87 409.96,-535.14 418,-529.4 428.31,-522.04 439.03,-513.44 448.68,-505.31"/>
<polygon fill="black" stroke="black" points="450.72,-508.17 456.05,-499.01 446.17,-502.85 450.72,-508.17"/>
</g>
<!-- x_fro -->
<g id="node2" class="node">
<title>x_fro</title>
<ellipse fill="#e8e8e8" stroke="black" cx="662" cy="-569.5" rx="151.57" ry="24.1"/>
<text xml:space="preserve" text-anchor="middle" x="662" y="-572" font-family="Helvetica,sans-Serif" font-size="10.00">Frozen atoms</text>
<text xml:space="preserve" text-anchor="middle" x="662" y="-560" font-family="Helvetica,sans-Serif" font-size="10.00">x_fro u2208 Ru00b3u1d3au1da0u02b3u1d52</text>
</g>
<!-- x_fro&#45;&gt;pairs_mf -->
<g id="edge3" class="edge">
<title>x_fro&#45;&gt;pairs_mf</title>
<path fill="none" stroke="black" d="M618.43,-546.01C593.53,-533.17 562.12,-516.95 535.71,-503.33"/>
<polygon fill="black" stroke="black" points="537.32,-500.22 526.83,-498.74 534.11,-506.44 537.32,-500.22"/>
</g>
<!-- features -->
<g id="node5" class="node">
<title>features</title>
<polygon fill="#99ccff" stroke="black" points="547.42,-415.57 290.57,-415.57 286.57,-411.57 286.57,-369.49 543.42,-369.49 547.42,-373.49 547.42,-415.57"/>
<polyline fill="none" stroke="black" points="543.42,-411.57 286.57,-411.57"/>
<polyline fill="none" stroke="black" points="543.42,-411.57 543.42,-369.49"/>
<polyline fill="none" stroke="black" points="543.42,-411.57 547.42,-415.57"/>
<text xml:space="preserve" text-anchor="middle" x="417" y="-401.03" font-family="Helvetica,sans-Serif" font-size="10.00">Feature vector</text>
<text xml:space="preserve" text-anchor="middle" x="417" y="-389.03" font-family="Helvetica,sans-Serif" font-size="10.00">f = [1/ru2081u2082, 1/ru2081u2083, ..., 1/ru2098u209b]</text>
<text xml:space="preserve" text-anchor="middle" x="417" y="-377.03" font-family="Helvetica,sans-Serif" font-size="10.00">rotationally invariant</text>
</g>
<!-- pairs_mm&#45;&gt;features -->
<g id="edge4" class="edge">
<title>pairs_mm&#45;&gt;features</title>
<path fill="none" stroke="black" d="M370.83,-451.3C377.36,-443.13 384.88,-433.72 391.93,-424.9"/>
<polygon fill="black" stroke="black" points="394.59,-427.17 398.1,-417.18 389.12,-422.8 394.59,-427.17"/>
</g>
<!-- pairs_mf&#45;&gt;features -->
<g id="edge5" class="edge">
<title>pairs_mf&#45;&gt;features</title>
<path fill="none" stroke="black" d="M463.89,-451.3C457.26,-443.13 449.62,-433.72 442.46,-424.9"/>
<polygon fill="black" stroke="black" points="445.21,-422.73 436.19,-417.17 439.77,-427.14 445.21,-422.73"/>
</g>
<!-- se -->
<g id="node6" class="node">
<title>se</title>
<polygon fill="#a8d5a2" stroke="black" points="798.05,-321.74 579.95,-321.74 579.95,-275.66 798.05,-275.66 798.05,-321.74"/>
<text xml:space="preserve" text-anchor="middle" x="689" y="-307.2" font-family="Helvetica,sans-Serif" font-size="10.00">MolInvDistSE</text>
<text xml:space="preserve" text-anchor="middle" x="689" y="-295.2" font-family="Helvetica,sans-Serif" font-size="10.00">u03c3u00b2 exp(&#45;u2211 (u03b8u0394f)u00b2)</text>
<text xml:space="preserve" text-anchor="middle" x="689" y="-283.2" font-family="Helvetica,sans-Serif" font-size="10.00">Cu221e smooth</text>
</g>
<!-- features&#45;&gt;se -->
<g id="edge6" class="edge">
<title>features&#45;&gt;se</title>
<path fill="none" stroke="black" d="M519.67,-368.99C536.97,-364.39 554.61,-359.19 571,-353.49 592.27,-346.09 614.93,-336.26 634.65,-327.03"/>
<polygon fill="black" stroke="black" points="636.07,-330.23 643.61,-322.78 633.07,-323.9 636.07,-330.23"/>
</g>
<!-- mat52 -->
<g id="node7" class="node">
<title>mat52</title>
<polygon fill="#a8d5a2" stroke="black" points="561.67,-321.74 272.32,-321.74 272.32,-275.66 561.67,-275.66 561.67,-321.74"/>
<text xml:space="preserve" text-anchor="middle" x="417" y="-307.2" font-family="Helvetica,sans-Serif" font-size="10.00">MolInvDistMatern52</text>
<text xml:space="preserve" text-anchor="middle" x="417" y="-295.2" font-family="Helvetica,sans-Serif" font-size="10.00">u03c3u00b2(1+u221a5d+5du00b2/3)eu207bu221au2075u1d48</text>
<text xml:space="preserve" text-anchor="middle" x="417" y="-283.2" font-family="Helvetica,sans-Serif" font-size="10.00">Cu00b2 smooth</text>
</g>
<!-- features&#45;&gt;mat52 -->
<g id="edge7" class="edge">
<title>features&#45;&gt;mat52</title>
<path fill="none" stroke="black" d="M417,-369.3C417,-358.55 417,-345.42 417,-333.47"/>
<polygon fill="black" stroke="black" points="420.5,-333.56 417,-323.56 413.5,-333.56 420.5,-333.56"/>
</g>
<!-- mat32 -->
<g id="node8" class="node">
<title>mat32</title>
<polygon fill="#a8d5a2" stroke="black" points="254.18,-321.74 15.83,-321.74 15.83,-275.66 254.18,-275.66 254.18,-321.74"/>
<text xml:space="preserve" text-anchor="middle" x="135" y="-307.2" font-family="Helvetica,sans-Serif" font-size="10.00">MolInvDistMatern32</text>
<text xml:space="preserve" text-anchor="middle" x="135" y="-295.2" font-family="Helvetica,sans-Serif" font-size="10.00">u03c3u00b2(1+u221a3d)eu207bu221au00b3u1d48</text>
<text xml:space="preserve" text-anchor="middle" x="135" y="-283.2" font-family="Helvetica,sans-Serif" font-size="10.00">Cu00b9 smooth</text>
</g>
<!-- features&#45;&gt;mat32 -->
<g id="edge8" class="edge">
<title>features&#45;&gt;mat32</title>
<path fill="none" stroke="black" d="M316.12,-369.01C298.28,-364.34 279.99,-359.12 263,-353.49 239.99,-345.87 215.31,-335.93 193.82,-326.68"/>
<polygon fill="black" stroke="black" points="195.51,-323.6 184.94,-322.81 192.71,-330.01 195.51,-323.6"/>
</g>
<!-- iso -->
<g id="node9" class="node">
<title>iso</title>
<polygon fill="#ffe599" stroke="black" points="345.68,-222.87 218.32,-222.87 218.32,-186.87 345.68,-186.87 345.68,-222.87"/>
<text xml:space="preserve" text-anchor="middle" x="282" y="-207.37" font-family="Helvetica,sans-Serif" font-size="10.00">Isotropic</text>
<text xml:space="preserve" text-anchor="middle" x="282" y="-195.37" font-family="Helvetica,sans-Serif" font-size="10.00">single u03b8 for all pairs</text>
</g>
<!-- se&#45;&gt;iso -->
<g id="edge9" class="edge">
<title>se&#45;&gt;iso</title>
<path fill="none" stroke="#999999" stroke-dasharray="5,2" d="M599.1,-272.73C589.67,-270.74 580.17,-268.98 571,-267.66 524.12,-260.89 402.86,-274.86 358,-259.66 339.79,-253.49 322.09,-241.44 308.37,-230.31"/>
<polygon fill="#999999" stroke="#999999" points="598.12,-276.1 608.64,-274.84 599.64,-269.27 598.12,-276.1"/>
<polygon fill="#999999" stroke="#999999" points="311.01,-227.96 301.11,-224.17 306.49,-233.3 311.01,-227.96"/>
</g>
<!-- ard -->
<g id="node10" class="node">
<title>ard</title>
<polygon fill="#ffe599" stroke="black" points="199.93,-227.91 44.08,-227.91 44.08,-181.83 199.93,-181.83 199.93,-227.91"/>
<text xml:space="preserve" text-anchor="middle" x="122" y="-213.37" font-family="Helvetica,sans-Serif" font-size="10.00">Type&#45;Aware (ARD)</text>
<text xml:space="preserve" text-anchor="middle" x="122" y="-201.37" font-family="Helvetica,sans-Serif" font-size="10.00">u03b8u1d62 per atom&#45;type pair</text>
<text xml:space="preserve" text-anchor="middle" x="122" y="-189.37" font-family="Helvetica,sans-Serif" font-size="10.00">via pair_map</text>
</g>
<!-- se&#45;&gt;ard -->
<g id="edge10" class="edge">
<title>se&#45;&gt;ard</title>
<path fill="none" stroke="#999999" stroke-dasharray="5,2" d="M600.13,-272.8C590.36,-270.74 580.51,-268.96 571,-267.66 531.14,-262.22 247.58,-271.08 209,-259.66 191.26,-254.41 173.55,-244.52 158.79,-234.64"/>
<polygon fill="#999999" stroke="#999999" points="599.11,-276.15 609.63,-274.89 600.62,-269.32 599.11,-276.15"/>
<polygon fill="#999999" stroke="#999999" points="160.99,-231.91 150.78,-229.07 156.99,-237.65 160.99,-231.91"/>
</g>
<!-- sum_k -->
<g id="node12" class="node">
<title>sum_k</title>
<polygon fill="#d5b8e8" stroke="black" points="610.17,-145.83 479.82,-145.83 479.82,-109.83 610.17,-109.83 610.17,-145.83"/>
<text xml:space="preserve" text-anchor="middle" x="545" y="-130.33" font-family="Helvetica,sans-Serif" font-size="10.00">MolSumKernel(k1, k2)</text>
<text xml:space="preserve" text-anchor="middle" x="545" y="-118.33" font-family="Helvetica,sans-Serif" font-size="10.00">k(x,y) = k1(x,y) + k2(x,y)</text>
</g>
<!-- se&#45;&gt;sum_k -->
<g id="edge15" class="edge">
<title>se&#45;&gt;sum_k</title>
<path fill="none" stroke="black" d="M686.42,-275.29C682.19,-248.15 671.45,-202.53 645,-173.83 636.6,-164.72 626.01,-157.33 614.89,-151.38"/>
<polygon fill="black" stroke="black" points="616.45,-148.25 605.93,-146.98 613.36,-154.53 616.45,-148.25"/>
</g>
<!-- prod_k -->
<g id="node13" class="node">
<title>prod_k</title>
<polygon fill="#d5b8e8" stroke="black" points="520.3,-222.87 369.7,-222.87 369.7,-186.87 520.3,-186.87 520.3,-222.87"/>
<text xml:space="preserve" text-anchor="middle" x="445" y="-207.37" font-family="Helvetica,sans-Serif" font-size="10.00">MolProductKernel(k1, k2)</text>
<text xml:space="preserve" text-anchor="middle" x="445" y="-195.37" font-family="Helvetica,sans-Serif" font-size="10.00">k(x,y) = k1(x,y) u00d7 k2(x,y)</text>
</g>
<!-- se&#45;&gt;prod_k -->
<g id="edge17" class="edge">
<title>se&#45;&gt;prod_k</title>
<path fill="none" stroke="black" d="M603.11,-275.18C592.32,-272.55 581.42,-269.98 571,-267.66 552.45,-263.54 546.65,-266.69 529,-259.66 510.21,-252.18 491.09,-240.33 475.84,-229.66"/>
<polygon fill="black" stroke="black" points="478.28,-227.1 468.12,-224.1 474.19,-232.78 478.28,-227.1"/>
</g>
<!-- forwarddiff -->
<g id="node17" class="node">
<title>forwarddiff</title>
<polygon fill="#ffd9b3" stroke="black" points="836.42,-62.08 629.58,-62.08 629.58,-58.08 625.58,-58.08 625.58,-54.08 629.58,-54.08 629.58,-24 625.58,-24 625.58,-20 629.58,-20 629.58,-16 836.42,-16 836.42,-62.08"/>
<polyline fill="none" stroke="black" points="629.58,-58.08 633.58,-58.08 633.58,-54.08 629.58,-54.08"/>
<polyline fill="none" stroke="black" points="629.58,-24 633.58,-24 633.58,-20 629.58,-20"/>
<text xml:space="preserve" text-anchor="middle" x="733" y="-47.54" font-family="Helvetica,sans-Serif" font-size="10.00">ForwardDiff.jl</text>
<text xml:space="preserve" text-anchor="middle" x="733" y="-35.54" font-family="Helvetica,sans-Serif" font-size="10.00">Automatic differentiation</text>
<text xml:space="preserve" text-anchor="middle" x="733" y="-23.54" font-family="Helvetica,sans-Serif" font-size="10.00">u2207u2081u2207u2082 k(xu2081,xu2082)</text>
</g>
<!-- se&#45;&gt;forwarddiff -->
<g id="edge22" class="edge">
<title>se&#45;&gt;forwarddiff</title>
<path fill="none" stroke="black" d="M740.29,-275.22C745.75,-270.82 750.55,-265.67 754,-259.66 787.72,-200.85 764.78,-118.37 747.4,-73.07"/>
<polygon fill="black" stroke="black" points="750.66,-71.79 743.7,-63.8 744.16,-74.38 750.66,-71.79"/>
</g>
<!-- mat52&#45;&gt;iso -->
<g id="edge11" class="edge">
<title>mat52&#45;&gt;iso</title>
<path fill="none" stroke="#999999" stroke-dasharray="5,2" d="M371.94,-268.93C367.21,-265.83 362.5,-262.7 358,-259.66 343.88,-250.12 328.5,-239.31 315.3,-229.91"/>
<polygon fill="#999999" stroke="#999999" points="370.03,-271.86 380.31,-274.39 373.85,-266 370.03,-271.86"/>
<polygon fill="#999999" stroke="#999999" points="317.52,-227.19 307.35,-224.22 313.44,-232.88 317.52,-227.19"/>
</g>
<!-- mat52&#45;&gt;ard -->
<g id="edge12" class="edge">
<title>mat52&#45;&gt;ard</title>
<path fill="none" stroke="#999999" stroke-dasharray="5,2" d="M293.6,-273.12C283.26,-271.21 272.96,-269.37 263,-267.66 239.09,-263.56 231.79,-267.99 209,-259.66 192.33,-253.57 175.42,-244.03 160.99,-234.68"/>
<polygon fill="#999999" stroke="#999999" points="292.86,-276.54 303.34,-274.92 294.14,-269.66 292.86,-276.54"/>
<polygon fill="#999999" stroke="#999999" points="162.95,-231.77 152.69,-229.11 159.05,-237.59 162.95,-231.77"/>
</g>
<!-- mat52&#45;&gt;prod_k -->
<g id="edge18" class="edge">
<title>mat52&#45;&gt;prod_k</title>
<path fill="none" stroke="black" d="M423.78,-275.47C427.56,-263.07 432.31,-247.5 436.35,-234.23"/>
<polygon fill="black" stroke="black" points="439.67,-235.33 439.24,-224.75 432.98,-233.29 439.67,-235.33"/>
</g>
<!-- mat52&#45;&gt;forwarddiff -->
<g id="edge23" class="edge">
<title>mat52&#45;&gt;forwarddiff</title>
<path fill="none" stroke="black" d="M523.6,-275.21C539.44,-272.37 555.61,-269.73 571,-267.66 582.82,-266.07 668.88,-267.34 678,-259.66 732.43,-213.81 737.38,-122.95 735.61,-73.69"/>
<polygon fill="black" stroke="black" points="739.12,-73.73 735.14,-63.91 732.13,-74.07 739.12,-73.73"/>
</g>
<!-- mat32&#45;&gt;iso -->
<g id="edge13" class="edge">
<title>mat32&#45;&gt;iso</title>
<path fill="none" stroke="#999999" stroke-dasharray="5,2" d="M191.49,-269.86C197.48,-266.55 203.42,-263.12 209,-259.66 223.43,-250.72 238.65,-239.76 251.44,-230.08"/>
<polygon fill="#999999" stroke="#999999" points="189.9,-266.74 182.76,-274.56 193.22,-272.9 189.9,-266.74"/>
<polygon fill="#999999" stroke="#999999" points="253.28,-233.09 259.08,-224.22 249.01,-227.53 253.28,-233.09"/>
</g>
<!-- mat32&#45;&gt;ard -->
<g id="edge14" class="edge">
<title>mat32&#45;&gt;ard</title>
<path fill="none" stroke="#999999" stroke-dasharray="5,2" d="M130.29,-264.43C129.15,-256.34 127.92,-247.68 126.77,-239.57"/>
<polygon fill="#999999" stroke="#999999" points="126.77,-264.56 131.64,-273.97 133.7,-263.58 126.77,-264.56"/>
<polygon fill="#999999" stroke="#999999" points="130.24,-239.12 125.38,-229.71 123.31,-240.1 130.24,-239.12"/>
</g>
<!-- mat32&#45;&gt;forwarddiff -->
<g id="edge24" class="edge">
<title>mat32&#45;&gt;forwarddiff</title>
<path fill="none" stroke="black" d="M219.58,-275.22C233.97,-272.15 248.85,-269.45 263,-267.66 284.22,-264.98 630.68,-272.22 648,-259.66 680.71,-235.93 663.65,-211.6 678,-173.83 691.25,-138.96 707.64,-99.51 719.07,-72.54"/>
<polygon fill="black" stroke="black" points="722.2,-74.11 722.89,-63.54 715.76,-71.37 722.2,-74.11"/>
</g>
<!-- offset -->
<g id="node11" class="node">
<title>offset</title>
<polygon fill="#d5b8e8" stroke="black" points="636.05,-227.91 537.95,-227.91 537.95,-181.83 636.05,-181.83 636.05,-227.91"/>
<text xml:space="preserve" text-anchor="middle" x="587" y="-213.37" font-family="Helvetica,sans-Serif" font-size="10.00">OffsetKernel(c)</text>
<text xml:space="preserve" text-anchor="middle" x="587" y="-201.37" font-family="Helvetica,sans-Serif" font-size="10.00">k(x,y) = c</text>
<text xml:space="preserve" text-anchor="middle" x="587" y="-189.37" font-family="Helvetica,sans-Serif" font-size="10.00">constant baseline</text>
</g>
<!-- offset&#45;&gt;sum_k -->
<g id="edge16" class="edge">
<title>offset&#45;&gt;sum_k</title>
<path fill="none" stroke="black" d="M574.4,-181.36C569.98,-173.46 564.97,-164.51 560.35,-156.26"/>
<polygon fill="black" stroke="black" points="563.47,-154.66 555.53,-147.64 557.36,-158.08 563.47,-154.66"/>
</g>
<!-- ex1 -->
<g id="node14" class="node">
<title>ex1</title>
<polygon fill="#f5b7b1" stroke="black" points="612.05,-62.08 489.95,-62.08 489.95,-16 612.05,-16 612.05,-62.08"/>
<text xml:space="preserve" text-anchor="middle" x="551" y="-47.54" font-family="Helvetica,sans-Serif" font-size="10.00">SE + Offset</text>
<text xml:space="preserve" text-anchor="middle" x="551" y="-35.54" font-family="Helvetica,sans-Serif" font-size="10.00">= signal + DC baseline</text>
<text xml:space="preserve" text-anchor="middle" x="551" y="-23.54" font-family="Helvetica,sans-Serif" font-size="10.00">for energy prediction</text>
</g>
<!-- sum_k&#45;&gt;ex1 -->
<g id="edge19" class="edge">
<title>sum_k&#45;&gt;ex1</title>
<path fill="none" stroke="#993399" stroke-dasharray="5,2" d="M546.19,-109.68C546.89,-99.43 547.82,-86.03 548.67,-73.74"/>
<polygon fill="#993399" stroke="#993399" points="552.15,-74.15 549.35,-63.93 545.17,-73.67 552.15,-74.15"/>
</g>
<!-- ex3 -->
<g id="node16" class="node">
<title>ex3</title>
<polygon fill="#f5b7b1" stroke="black" points="471.55,-62.08 340.45,-62.08 340.45,-16 471.55,-16 471.55,-62.08"/>
<text xml:space="preserve" text-anchor="middle" x="406" y="-47.54" font-family="Helvetica,sans-Serif" font-size="10.00">Sum(SE_short, SE_long)</text>
<text xml:space="preserve" text-anchor="middle" x="406" y="-35.54" font-family="Helvetica,sans-Serif" font-size="10.00">= multi&#45;scale</text>
<text xml:space="preserve" text-anchor="middle" x="406" y="-23.54" font-family="Helvetica,sans-Serif" font-size="10.00">for bonded + non&#45;bonded</text>
</g>
<!-- sum_k&#45;&gt;ex3 -->
<g id="edge21" class="edge">
<title>sum_k&#45;&gt;ex3</title>
<path fill="none" stroke="#993399" stroke-dasharray="5,2" d="M508.95,-109.41C499.69,-104.62 489.85,-99.25 481,-93.83 468.71,-86.31 455.79,-77.43 444.21,-69.08"/>
<polygon fill="#993399" stroke="#993399" points="446.61,-66.5 436.47,-63.42 442.48,-72.15 446.61,-66.5"/>
</g>
<!-- sum_k&#45;&gt;forwarddiff -->
<g id="edge25" class="edge">
<title>sum_k&#45;&gt;forwarddiff</title>
<path fill="none" stroke="black" d="M588.26,-109.33C599.93,-104.46 612.5,-99.06 624,-93.83 642.06,-85.61 661.56,-76.17 679.01,-67.52"/>
<polygon fill="black" stroke="black" points="680.28,-70.8 687.66,-63.2 677.15,-64.53 680.28,-70.8"/>
</g>
<!-- ex2 -->
<g id="node15" class="node">
<title>ex2</title>
<polygon fill="#f5b7b1" stroke="black" points="322.8,-62.08 163.2,-62.08 163.2,-16 322.8,-16 322.8,-62.08"/>
<text xml:space="preserve" text-anchor="middle" x="243" y="-47.54" font-family="Helvetica,sans-Serif" font-size="10.00">Mat52 u00d7 SE</text>
<text xml:space="preserve" text-anchor="middle" x="243" y="-35.54" font-family="Helvetica,sans-Serif" font-size="10.00">= envelope u00d7 detail</text>
<text xml:space="preserve" text-anchor="middle" x="243" y="-23.54" font-family="Helvetica,sans-Serif" font-size="10.00">for PES with varying roughness</text>
</g>
<!-- prod_k&#45;&gt;ex2 -->
<g id="edge20" class="edge">
<title>prod_k&#45;&gt;ex2</title>
<path fill="none" stroke="#993399" stroke-dasharray="5,2" d="M423.76,-186.65C389.51,-158.86 321.64,-103.82 279.51,-69.65"/>
<polygon fill="#993399" stroke="#993399" points="281.82,-67.02 271.85,-63.44 277.41,-72.46 281.82,-67.02"/>
</g>
<!-- prod_k&#45;&gt;forwarddiff -->
<g id="edge26" class="edge">
<title>prod_k&#45;&gt;forwarddiff</title>
<path fill="none" stroke="black" d="M492.41,-186.52C504.32,-182.27 517.1,-177.81 529,-173.83 568.73,-160.55 583.27,-167.7 619,-145.83 642.32,-131.56 642.12,-120.6 662,-101.83 673.36,-91.1 686.14,-79.77 697.7,-69.78"/>
<polygon fill="black" stroke="black" points="699.8,-72.59 705.1,-63.42 695.24,-67.28 699.8,-72.59"/>
</g>
</g>
</svg>
