<?xml version="1.0" encoding="UTF-8" standalone="no"?>
<!DOCTYPE svg PUBLIC "-//W3C//DTD SVG 1.1//EN"
 "http://www.w3.org/Graphics/SVG/1.1/DTD/svg11.dtd">
<!-- Generated by graphviz version 14.1.2 (0)
 -->
<!-- Title: module_structure Pages: 1 -->
<svg width="1792pt" height="1188pt"
 viewBox="0.00 0.00 1792.00 1188.00" xmlns="http://www.w3.org/2000/svg" xmlns:xlink="http://www.w3.org/1999/xlink">
<g id="graph0" class="graph" transform="scale(1 1) rotate(0) translate(4 1184.41)">
<title>module_structure</title>
<polygon fill="white" stroke="none" points="-4,4 -4,-1184.41 1788,-1184.41 1788,4 -4,4"/>
<text xml:space="preserve" text-anchor="middle" x="892" y="-1163.11" font-family="Helvetica,sans-Serif" font-size="14.00">ChemGP Module Structure</text>
<g id="clust1" class="cluster">
<title>cluster_external</title>
<polygon fill="none" stroke="#999999" stroke-dasharray="5,2" points="684,-1072.91 684,-1148.66 1228,-1148.66 1228,-1072.91 684,-1072.91"/>
<text xml:space="preserve" text-anchor="middle" x="956" y="-1131.36" font-family="Helvetica,sans-Serif" font-size="14.00">External Dependencies</text>
</g>
<g id="clust2" class="cluster">
<title>cluster_kernels</title>
<polygon fill="#f0f7ff" stroke="#dceefb" points="677,-467.16 677,-1053.91 837,-1053.91 837,-467.16 677,-467.16"/>
<text xml:space="preserve" text-anchor="middle" x="757" y="-1036.61" font-family="Helvetica,sans-Serif" font-size="14.00">Kernel Infrastructure</text>
</g>
<g id="clust3" class="cluster">
<title>cluster_gp</title>
<polygon fill="#f0fff0" stroke="#d5e8d4" points="796,-172.83 796,-448.16 934,-448.16 934,-172.83 796,-172.83"/>
<text xml:space="preserve" text-anchor="middle" x="865" y="-430.86" font-family="Helvetica,sans-Serif" font-size="14.00">GP Core</text>
</g>
<g id="clust4" class="cluster">
<title>cluster_distance</title>
<polygon fill="#fffef0" stroke="#fff2cc" points="8,-172.83 8,-353.41 254,-353.41 254,-172.83 8,-172.83"/>
<text xml:space="preserve" text-anchor="middle" x="131" y="-336.11" font-family="Helvetica,sans-Serif" font-size="14.00">Distance &amp; Sampling</text>
</g>
<g id="clust5" class="cluster">
<title>cluster_oracles</title>
<polygon fill="#fff5f5" stroke="#f8cecc" points="1236,-1072.91 1236,-1148.66 1776,-1148.66 1776,-1072.91 1236,-1072.91"/>
<text xml:space="preserve" text-anchor="middle" x="1506" y="-1131.36" font-family="Helvetica,sans-Serif" font-size="14.00">Oracles</text>
</g>
<g id="clust6" class="cluster">
<title>cluster_optimizers</title>
<polygon fill="#f9f5ff" stroke="#e1d5e7" points="330,-8 330,-248.58 736,-248.58 736,-8 330,-8"/>
<text xml:space="preserve" text-anchor="middle" x="533" y="-231.28" font-family="Helvetica,sans-Serif" font-size="14.00">Optimization Methods</text>
</g>
<!-- KernelFunctions -->
<g id="node1" class="node">
<title>KernelFunctions</title>
<polygon fill="#e8e8e8" stroke="black" points="807.67,-1116.91 692.33,-1116.91 692.33,-1080.91 807.67,-1080.91 807.67,-1116.91"/>
<text xml:space="preserve" text-anchor="middle" x="750" y="-1101.41" font-family="Helvetica,sans-Serif" font-size="10.00">KernelFunctions</text>
<text xml:space="preserve" text-anchor="middle" x="750" y="-1089.41" font-family="Helvetica,sans-Serif" font-size="10.00">(Kernel abstract type)</text>
</g>
<!-- abstract_jl -->
<g id="node6" class="node">
<title>abstract_jl</title>
<polygon fill="#b3d9ff" stroke="black" points="814.55,-1022.16 689.45,-1022.16 689.45,-986.16 814.55,-986.16 814.55,-1022.16"/>
<text xml:space="preserve" text-anchor="middle" x="752" y="-1006.66" font-family="Helvetica,sans-Serif" font-size="10.00">kernels/abstract.jl</text>
<text xml:space="preserve" text-anchor="middle" x="752" y="-994.66" font-family="Helvetica,sans-Serif" font-size="10.00">AbstractMoleculeKernel</text>
</g>
<!-- KernelFunctions&#45;&gt;abstract_jl -->
<g id="edge11" class="edge">
<title>KernelFunctions&#45;&gt;abstract_jl</title>
<path fill="none" stroke="#666666" d="M750.38,-1080.46C750.66,-1067.38 751.05,-1049.18 751.38,-1033.95"/>
<polygon fill="#666666" stroke="#666666" points="754.88,-1034.11 751.59,-1024.04 747.88,-1033.96 754.88,-1034.11"/>
</g>
<!-- ForwardDiff -->
<g id="node2" class="node">
<title>ForwardDiff</title>
<polygon fill="#e8e8e8" stroke="black" points="897.92,-1116.91 826.08,-1116.91 826.08,-1080.91 897.92,-1080.91 897.92,-1116.91"/>
<text xml:space="preserve" text-anchor="middle" x="862" y="-1101.41" font-family="Helvetica,sans-Serif" font-size="10.00">ForwardDiff</text>
<text xml:space="preserve" text-anchor="middle" x="862" y="-1089.41" font-family="Helvetica,sans-Serif" font-size="10.00">(AD)</text>
</g>
<!-- derivatives -->
<g id="node14" class="node">
<title>derivatives</title>
<polygon fill="#a8d5a2" stroke="black" points="885.8,-416.41 804.2,-416.41 804.2,-380.41 885.8,-380.41 885.8,-416.41"/>
<text xml:space="preserve" text-anchor="middle" x="845" y="-400.91" font-family="Helvetica,sans-Serif" font-size="10.00">derivatives.jl</text>
<text xml:space="preserve" text-anchor="middle" x="845" y="-388.91" font-family="Helvetica,sans-Serif" font-size="10.00">kernel_blocks</text>
</g>
<!-- ForwardDiff&#45;&gt;derivatives -->
<g id="edge12" class="edge">
<title>ForwardDiff&#45;&gt;derivatives</title>
<path fill="none" stroke="#666666" d="M868.3,-1080.74C874.49,-1062.31 883,-1032.07 883,-1005.16 883,-1005.16 883,-1005.16 883,-492.16 883,-468.74 872.5,-444.31 862.53,-426.41"/>
<polygon fill="#666666" stroke="#666666" points="865.67,-424.83 857.58,-417.98 859.63,-428.37 865.67,-424.83"/>
</g>
<!-- Optim -->
<g id="node3" class="node">
<title>Optim</title>
<polygon fill="#e8e8e8" stroke="black" points="998.55,-1116.91 915.45,-1116.91 915.45,-1080.91 998.55,-1080.91 998.55,-1116.91"/>
<text xml:space="preserve" text-anchor="middle" x="957" y="-1101.41" font-family="Helvetica,sans-Serif" font-size="10.00">Optim</text>
<text xml:space="preserve" text-anchor="middle" x="957" y="-1089.41" font-family="Helvetica,sans-Serif" font-size="10.00">(Nelder&#45;Mead)</text>
</g>
<!-- functions -->
<g id="node16" class="node">
<title>functions</title>
<polygon fill="#a8d5a2" stroke="black" points="926.05,-216.83 815.95,-216.83 815.95,-180.83 926.05,-180.83 926.05,-216.83"/>
<text xml:space="preserve" text-anchor="middle" x="871" y="-201.33" font-family="Helvetica,sans-Serif" font-size="10.00">functions.jl</text>
<text xml:space="preserve" text-anchor="middle" x="871" y="-189.33" font-family="Helvetica,sans-Serif" font-size="10.00">train_model!, predict</text>
</g>
<!-- Optim&#45;&gt;functions -->
<g id="edge13" class="edge">
<title>Optim&#45;&gt;functions</title>
<path fill="none" stroke="#666666" d="M956.7,-1080.47C956.41,-1061.83 956,-1031.41 956,-1005.16 956,-1005.16 956,-1005.16 956,-297.62 956,-266.98 931.93,-241.25 909.41,-223.89"/>
<polygon fill="#666666" stroke="#666666" points="911.61,-221.17 901.47,-218.1 907.48,-226.82 911.61,-221.17"/>
</g>
<!-- ParameterHandling -->
<g id="node4" class="node">
<title>ParameterHandling</title>
<polygon fill="#e8e8e8" stroke="black" points="1121.42,-1116.91 1016.58,-1116.91 1016.58,-1080.91 1121.42,-1080.91 1121.42,-1116.91"/>
<text xml:space="preserve" text-anchor="middle" x="1069" y="-1101.41" font-family="Helvetica,sans-Serif" font-size="10.00">ParameterHandling</text>
<text xml:space="preserve" text-anchor="middle" x="1069" y="-1089.41" font-family="Helvetica,sans-Serif" font-size="10.00">(pack/unpack)</text>
</g>
<!-- ParameterHandling&#45;&gt;functions -->
<g id="edge14" class="edge">
<title>ParameterHandling&#45;&gt;functions</title>
<path fill="none" stroke="#666666" d="M1057.18,-1080.65C1046.03,-1062.64 1031,-1033.18 1031,-1005.16 1031,-1005.16 1031,-1005.16 1031,-297.62 1031,-251.25 981.47,-226.21 937.53,-213.11"/>
<polygon fill="#666666" stroke="#666666" points="938.54,-209.76 927.97,-210.44 936.66,-216.51 938.54,-209.76"/>
</g>
<!-- LinearAlgebra -->
<g id="node5" class="node">
<title>LinearAlgebra</title>
<polygon fill="#e8e8e8" stroke="black" points="1220.42,-1116.91 1139.58,-1116.91 1139.58,-1080.91 1220.42,-1080.91 1220.42,-1116.91"/>
<text xml:space="preserve" text-anchor="middle" x="1180" y="-1095.41" font-family="Helvetica,sans-Serif" font-size="10.00">LinearAlgebra</text>
</g>
<!-- invdist_jl -->
<g id="node7" class="node">
<title>invdist_jl</title>
<polygon fill="#b3d9ff" stroke="black" points="828.55,-949.16 685.45,-949.16 685.45,-913.16 828.55,-913.16 828.55,-949.16"/>
<text xml:space="preserve" text-anchor="middle" x="757" y="-933.66" font-family="Helvetica,sans-Serif" font-size="10.00">invdist.jl</text>
<text xml:space="preserve" text-anchor="middle" x="757" y="-921.66" font-family="Helvetica,sans-Serif" font-size="10.00">compute_inverse_distances</text>
</g>
<!-- abstract_jl&#45;&gt;invdist_jl -->
<g id="edge1" class="edge">
<title>abstract_jl&#45;&gt;invdist_jl</title>
<path fill="none" stroke="#999999" stroke-dasharray="1,5" d="M753.21,-985.97C753.75,-978.3 754.4,-969.05 755.01,-960.4"/>
<polygon fill="#999999" stroke="#999999" points="758.48,-960.92 755.69,-950.7 751.5,-960.43 758.48,-960.92"/>
</g>
<!-- SE -->
<g id="node8" class="node">
<title>SE</title>
<polygon fill="#b3d9ff" stroke="black" points="819.17,-876.16 694.83,-876.16 694.83,-840.16 819.17,-840.16 819.17,-876.16"/>
<text xml:space="preserve" text-anchor="middle" x="757" y="-854.66" font-family="Helvetica,sans-Serif" font-size="10.00">kernels/MolInvDistSE.jl</text>
</g>
<!-- invdist_jl&#45;&gt;SE -->
<g id="edge2" class="edge">
<title>invdist_jl&#45;&gt;SE</title>
<path fill="none" stroke="#999999" stroke-dasharray="1,5" d="M757,-912.97C757,-905.39 757,-896.26 757,-887.7"/>
<polygon fill="#999999" stroke="#999999" points="760.5,-887.7 757,-877.7 753.5,-887.7 760.5,-887.7"/>
</g>
<!-- Mat52 -->
<g id="node9" class="node">
<title>Mat52</title>
<polygon fill="#b3d9ff" stroke="black" points="828.55,-803.16 685.45,-803.16 685.45,-767.16 828.55,-767.16 828.55,-803.16"/>
<text xml:space="preserve" text-anchor="middle" x="757" y="-781.66" font-family="Helvetica,sans-Serif" font-size="10.00">kernels/MolInvDistMat5_2.jl</text>
</g>
<!-- SE&#45;&gt;Mat52 -->
<g id="edge3" class="edge">
<title>SE&#45;&gt;Mat52</title>
<path fill="none" stroke="#999999" stroke-dasharray="1,5" d="M757,-839.97C757,-832.39 757,-823.26 757,-814.7"/>
<polygon fill="#999999" stroke="#999999" points="760.5,-814.7 757,-804.7 753.5,-814.7 760.5,-814.7"/>
</g>
<!-- SE&#45;&gt;derivatives -->
<g id="edge15" class="edge">
<title>SE&#45;&gt;derivatives</title>
<path fill="none" stroke="#3366cc" d="M694.72,-854.85C647.61,-849.36 591,-833.02 591,-786.16 591,-786.16 591,-786.16 591,-492.16 591,-449.57 718.59,-420.76 792.91,-407.59"/>
<polygon fill="#3366cc" stroke="#3366cc" points="793.16,-411.1 802.42,-405.95 791.97,-404.2 793.16,-411.1"/>
<text xml:space="preserve" text-anchor="middle" x="610.12" y="-636.44" font-family="Helvetica,sans-Serif" font-size="8.00">kernel eval</text>
</g>
<!-- Mat32 -->
<g id="node10" class="node">
<title>Mat32</title>
<polygon fill="#b3d9ff" stroke="black" points="828.55,-730.16 685.45,-730.16 685.45,-694.16 828.55,-694.16 828.55,-730.16"/>
<text xml:space="preserve" text-anchor="middle" x="757" y="-708.66" font-family="Helvetica,sans-Serif" font-size="10.00">kernels/MolInvDistMat3_2.jl</text>
</g>
<!-- Mat52&#45;&gt;Mat32 -->
<g id="edge4" class="edge">
<title>Mat52&#45;&gt;Mat32</title>
<path fill="none" stroke="#999999" stroke-dasharray="1,5" d="M757,-766.97C757,-759.39 757,-750.26 757,-741.7"/>
<polygon fill="#999999" stroke="#999999" points="760.5,-741.7 757,-731.7 753.5,-741.7 760.5,-741.7"/>
</g>
<!-- Mat52&#45;&gt;derivatives -->
<g id="edge16" class="edge">
<title>Mat52&#45;&gt;derivatives</title>
<path fill="none" stroke="#3366cc" d="M701.74,-766.69C678.61,-755.62 657,-738.5 657,-713.16 657,-713.16 657,-713.16 657,-492.16 657,-431.38 737,-410.43 792.63,-403.21"/>
<polygon fill="#3366cc" stroke="#3366cc" points="792.72,-406.72 802.24,-402.08 791.9,-399.77 792.72,-406.72"/>
</g>
<!-- Const -->
<g id="node11" class="node">
<title>Const</title>
<polygon fill="#b3d9ff" stroke="black" points="816.55,-657.16 685.45,-657.16 685.45,-621.16 816.55,-621.16 816.55,-657.16"/>
<text xml:space="preserve" text-anchor="middle" x="751" y="-641.66" font-family="Helvetica,sans-Serif" font-size="10.00">kernels/ConstantKernel.jl</text>
<text xml:space="preserve" text-anchor="middle" x="751" y="-629.66" font-family="Helvetica,sans-Serif" font-size="10.00">OffsetKernel</text>
</g>
<!-- Mat32&#45;&gt;Const -->
<g id="edge5" class="edge">
<title>Mat32&#45;&gt;Const</title>
<path fill="none" stroke="#999999" stroke-dasharray="1,5" d="M755.55,-693.97C754.9,-686.3 754.12,-677.05 753.39,-668.4"/>
<polygon fill="#999999" stroke="#999999" points="756.9,-668.37 752.57,-658.7 749.92,-668.96 756.9,-668.37"/>
</g>
<!-- Mat32&#45;&gt;derivatives -->
<g id="edge17" class="edge">
<title>Mat32&#45;&gt;derivatives</title>
<path fill="none" stroke="#3366cc" d="M802.55,-693.69C824.02,-682.2 845,-664.7 845,-640.16 845,-640.16 845,-640.16 845,-492.16 845,-470.73 845,-446.52 845,-428.21"/>
<polygon fill="#3366cc" stroke="#3366cc" points="848.5,-428.36 845,-418.36 841.5,-428.36 848.5,-428.36"/>
</g>
<!-- Sum -->
<g id="node12" class="node">
<title>Sum</title>
<polygon fill="#b3d9ff" stroke="black" points="807.8,-584.16 696.2,-584.16 696.2,-548.16 807.8,-548.16 807.8,-584.16"/>
<text xml:space="preserve" text-anchor="middle" x="752" y="-568.66" font-family="Helvetica,sans-Serif" font-size="10.00">kernels/SumKernel.jl</text>
<text xml:space="preserve" text-anchor="middle" x="752" y="-556.66" font-family="Helvetica,sans-Serif" font-size="10.00">MolSumKernel</text>
</g>
<!-- Const&#45;&gt;Sum -->
<g id="edge6" class="edge">
<title>Const&#45;&gt;Sum</title>
<path fill="none" stroke="#999999" stroke-dasharray="1,5" d="M751.24,-620.97C751.35,-613.39 751.48,-604.26 751.6,-595.7"/>
<polygon fill="#999999" stroke="#999999" points="755.1,-595.75 751.74,-585.7 748.1,-595.65 755.1,-595.75"/>
</g>
<!-- Prod -->
<g id="node13" class="node">
<title>Prod</title>
<polygon fill="#b3d9ff" stroke="black" points="815.55,-511.16 690.45,-511.16 690.45,-475.16 815.55,-475.16 815.55,-511.16"/>
<text xml:space="preserve" text-anchor="middle" x="753" y="-495.66" font-family="Helvetica,sans-Serif" font-size="10.00">kernels/ProductKernel.jl</text>
<text xml:space="preserve" text-anchor="middle" x="753" y="-483.66" font-family="Helvetica,sans-Serif" font-size="10.00">MolProductKernel</text>
</g>
<!-- Sum&#45;&gt;Prod -->
<g id="edge7" class="edge">
<title>Sum&#45;&gt;Prod</title>
<path fill="none" stroke="#999999" stroke-dasharray="1,5" d="M752.24,-547.97C752.35,-540.39 752.48,-531.26 752.6,-522.7"/>
<polygon fill="#999999" stroke="#999999" points="756.1,-522.75 752.74,-512.7 749.1,-522.65 756.1,-522.75"/>
</g>
<!-- Prod&#45;&gt;derivatives -->
<g id="edge8" class="edge">
<title>Prod&#45;&gt;derivatives</title>
<path fill="none" stroke="#999999" stroke-dasharray="1,5" d="M777.8,-467.16C790.87,-453.98 806.87,-437.85 819.97,-424.64"/>
<polygon fill="#999999" stroke="#999999" points="822.15,-427.42 826.71,-417.85 817.18,-422.49 822.15,-427.42"/>
</g>
<!-- types -->
<g id="node15" class="node">
<title>types</title>
<polygon fill="#a8d5a2" stroke="black" points="926.42,-316.62 803.58,-316.62 803.58,-280.62 926.42,-280.62 926.42,-316.62"/>
<text xml:space="preserve" text-anchor="middle" x="865" y="-301.12" font-family="Helvetica,sans-Serif" font-size="10.00">types.jl</text>
<text xml:space="preserve" text-anchor="middle" x="865" y="-289.12" font-family="Helvetica,sans-Serif" font-size="10.00">GPModel, TrainingData</text>
</g>
<!-- derivatives&#45;&gt;types -->
<g id="edge9" class="edge">
<title>derivatives&#45;&gt;types</title>
<path fill="none" stroke="#999999" stroke-dasharray="1,5" d="M848.58,-379.93C851.53,-365.46 855.79,-344.64 859.23,-327.83"/>
<polygon fill="#999999" stroke="#999999" points="862.58,-328.93 861.15,-318.43 855.72,-327.53 862.58,-328.93"/>
</g>
<!-- types&#45;&gt;functions -->
<g id="edge10" class="edge">
<title>types&#45;&gt;functions</title>
<path fill="none" stroke="#999999" stroke-dasharray="1,5" d="M866.07,-280.14C866.95,-265.81 868.21,-245.25 869.24,-228.52"/>
<polygon fill="#999999" stroke="#999999" points="872.72,-228.87 869.84,-218.67 865.74,-228.44 872.72,-228.87"/>
</g>
<!-- minimize -->
<g id="node26" class="node">
<title>minimize</title>
<polygon fill="#d5b8e8" stroke="black" points="728.05,-143.83 611.95,-143.83 611.95,-107.83 728.05,-107.83 728.05,-143.83"/>
<text xml:space="preserve" text-anchor="middle" x="670" y="-128.33" font-family="Helvetica,sans-Serif" font-size="10.00">optimizers/minimize.jl</text>
<text xml:space="preserve" text-anchor="middle" x="670" y="-116.33" font-family="Helvetica,sans-Serif" font-size="10.00">gp_minimize</text>
</g>
<!-- types&#45;&gt;minimize -->
<g id="edge18" class="edge">
<title>types&#45;&gt;minimize</title>
<path fill="none" stroke="#339933" d="M840.7,-280.22C829.59,-271.52 816.77,-260.35 807,-248.58 777.85,-213.45 790.37,-186.57 752,-161.83 744.68,-157.11 736.62,-152.78 728.5,-148.89"/>
<polygon fill="#339933" stroke="#339933" points="730.15,-145.79 719.6,-144.83 727.25,-152.16 730.15,-145.79"/>
</g>
<!-- dimer -->
<g id="node27" class="node">
<title>dimer</title>
<polygon fill="#d5b8e8" stroke="black" points="593.55,-143.83 492.45,-143.83 492.45,-107.83 593.55,-107.83 593.55,-143.83"/>
<text xml:space="preserve" text-anchor="middle" x="543" y="-128.33" font-family="Helvetica,sans-Serif" font-size="10.00">optimizers/dimer.jl</text>
<text xml:space="preserve" text-anchor="middle" x="543" y="-116.33" font-family="Helvetica,sans-Serif" font-size="10.00">gp_dimer</text>
</g>
<!-- types&#45;&gt;dimer -->
<g id="edge19" class="edge">
<title>types&#45;&gt;dimer</title>
<path fill="none" stroke="#339933" d="M811.66,-280.15C794.76,-272.57 777.09,-262.22 764,-248.58 738.57,-222.08 759.29,-196.24 731,-172.83 688.7,-137.82 662.7,-155.79 605.14,-144.04"/>
<polygon fill="#339933" stroke="#339933" points="606.02,-140.65 595.49,-141.82 604.45,-147.47 606.02,-140.65"/>
</g>
<!-- neb -->
<g id="node30" class="node">
<title>neb</title>
<polygon fill="#d5b8e8" stroke="black" points="584.3,-62.08 457.7,-62.08 457.7,-16 584.3,-16 584.3,-62.08"/>
<text xml:space="preserve" text-anchor="middle" x="521" y="-47.54" font-family="Helvetica,sans-Serif" font-size="10.00">optimizers/neb.jl</text>
<text xml:space="preserve" text-anchor="middle" x="521" y="-35.54" font-family="Helvetica,sans-Serif" font-size="10.00">neb_optimize</text>
<text xml:space="preserve" text-anchor="middle" x="521" y="-23.54" font-family="Helvetica,sans-Serif" font-size="10.00">gp_neb_aie, gp_neb_oie</text>
</g>
<!-- types&#45;&gt;neb -->
<g id="edge20" class="edge">
<title>types&#45;&gt;neb</title>
<path fill="none" stroke="#339933" d="M803.29,-296.55C669.16,-293.58 360.46,-283.05 329,-248.58 286.41,-201.91 306.07,-154.19 349,-107.83 356.35,-99.89 403.7,-81.5 446.86,-65.87"/>
<polygon fill="#339933" stroke="#339933" points="447.78,-69.26 456.01,-62.58 445.41,-62.68 447.78,-69.26"/>
</g>
<!-- otgpd -->
<g id="node31" class="node">
<title>otgpd</title>
<polygon fill="#d5b8e8" stroke="black" points="439.55,-57.04 338.45,-57.04 338.45,-21.04 439.55,-21.04 439.55,-57.04"/>
<text xml:space="preserve" text-anchor="middle" x="389" y="-41.54" font-family="Helvetica,sans-Serif" font-size="10.00">optimizers/otgpd.jl</text>
<text xml:space="preserve" text-anchor="middle" x="389" y="-29.54" font-family="Helvetica,sans-Serif" font-size="10.00">otgpd</text>
</g>
<!-- types&#45;&gt;otgpd -->
<g id="edge21" class="edge">
<title>types&#45;&gt;otgpd</title>
<path fill="none" stroke="#339933" d="M803.1,-297.19C663.04,-295.53 331.58,-287.48 301,-248.58 262.1,-199.08 285.26,-162.2 317,-107.83 326.66,-91.29 341.57,-76.29 355.33,-64.63"/>
<polygon fill="#339933" stroke="#339933" points="357.41,-67.45 362.96,-58.42 352.99,-62.02 357.41,-67.45"/>
</g>
<!-- functions&#45;&gt;minimize -->
<g id="edge22" class="edge">
<title>functions&#45;&gt;minimize</title>
<path fill="none" stroke="#339933" d="M839.71,-180.49C827.29,-174.05 812.71,-167.06 799,-161.83 779.97,-154.57 758.83,-148.18 739.26,-142.91"/>
<polygon fill="#339933" stroke="#339933" points="740.28,-139.56 729.72,-140.4 738.5,-146.33 740.28,-139.56"/>
</g>
<!-- functions&#45;&gt;dimer -->
<g id="edge23" class="edge">
<title>functions&#45;&gt;dimer</title>
<path fill="none" stroke="#339933" d="M818.93,-180.42C797.48,-173.78 772.24,-166.66 749,-161.83 688.36,-149.23 669.1,-155.97 605.06,-144.01"/>
<polygon fill="#339933" stroke="#339933" points="605.9,-140.61 595.42,-142.13 604.56,-147.48 605.9,-140.61"/>
</g>
<!-- functions&#45;&gt;neb -->
<g id="edge24" class="edge">
<title>functions&#45;&gt;neb</title>
<path fill="none" stroke="#339933" d="M873.97,-180.55C877.31,-154.69 879.17,-106.2 852,-80.08 833.87,-62.66 687.87,-50.44 595.93,-44.39"/>
<polygon fill="#339933" stroke="#339933" points="596.44,-40.91 586.23,-43.76 595.98,-47.9 596.44,-40.91"/>
</g>
<!-- functions&#45;&gt;otgpd -->
<g id="edge25" class="edge">
<title>functions&#45;&gt;otgpd</title>
<path fill="none" stroke="#339933" d="M851.24,-180.45C826.41,-159.63 781.6,-125.36 737,-107.83 616.38,-60.42 574.42,-94.75 449,-62.08 447.42,-61.67 445.83,-61.23 444.23,-60.78"/>
<polygon fill="#339933" stroke="#339933" points="445.62,-57.54 435.03,-57.94 443.55,-64.23 445.62,-57.54"/>
</g>
<!-- distances -->
<g id="node17" class="node">
<title>distances</title>
<polygon fill="#ffe599" stroke="black" points="246.05,-321.66 129.95,-321.66 129.95,-275.58 246.05,-275.58 246.05,-321.66"/>
<text xml:space="preserve" text-anchor="middle" x="188" y="-307.12" font-family="Helvetica,sans-Serif" font-size="10.00">distances.jl</text>
<text xml:space="preserve" text-anchor="middle" x="188" y="-295.12" font-family="Helvetica,sans-Serif" font-size="10.00">max_1d_log_distance</text>
<text xml:space="preserve" text-anchor="middle" x="188" y="-283.12" font-family="Helvetica,sans-Serif" font-size="10.00">rmsd_distance</text>
</g>
<!-- sampling -->
<g id="node19" class="node">
<title>sampling</title>
<polygon fill="#ffe599" stroke="black" points="223.55,-216.83 152.45,-216.83 152.45,-180.83 223.55,-180.83 223.55,-216.83"/>
<text xml:space="preserve" text-anchor="middle" x="188" y="-201.33" font-family="Helvetica,sans-Serif" font-size="10.00">sampling.jl</text>
<text xml:space="preserve" text-anchor="middle" x="188" y="-189.33" font-family="Helvetica,sans-Serif" font-size="10.00">FPS, prune</text>
</g>
<!-- distances&#45;&gt;sampling -->
<g id="edge34" class="edge">
<title>distances&#45;&gt;sampling</title>
<path fill="none" stroke="#cc9900" d="M188,-275.43C188,-261.47 188,-243.32 188,-228.3"/>
<polygon fill="#cc9900" stroke="#cc9900" points="191.5,-228.58 188,-218.58 184.5,-228.58 191.5,-228.58"/>
</g>
<!-- trust -->
<g id="node25" class="node">
<title>trust</title>
<polygon fill="#d5b8e8" stroke="black" points="466.05,-216.83 337.95,-216.83 337.95,-180.83 466.05,-180.83 466.05,-216.83"/>
<text xml:space="preserve" text-anchor="middle" x="402" y="-201.33" font-family="Helvetica,sans-Serif" font-size="10.00">optimizers/trust_region.jl</text>
<text xml:space="preserve" text-anchor="middle" x="402" y="-189.33" font-family="Helvetica,sans-Serif" font-size="10.00">min_distance_to_data</text>
</g>
<!-- distances&#45;&gt;trust -->
<g id="edge35" class="edge">
<title>distances&#45;&gt;trust</title>
<path fill="none" stroke="#cc9900" d="M237.1,-275.18C271.99,-259.24 318.63,-237.93 353.41,-222.03"/>
<polygon fill="#cc9900" stroke="#cc9900" points="354.78,-225.26 362.42,-217.92 351.87,-218.89 354.78,-225.26"/>
</g>
<!-- emd -->
<g id="node18" class="node">
<title>emd</title>
<polygon fill="#ffe599" stroke="black" points="111.55,-316.62 16.45,-316.62 16.45,-280.62 111.55,-280.62 111.55,-316.62"/>
<text xml:space="preserve" text-anchor="middle" x="64" y="-301.12" font-family="Helvetica,sans-Serif" font-size="10.00">distances_emd.jl</text>
<text xml:space="preserve" text-anchor="middle" x="64" y="-289.12" font-family="Helvetica,sans-Serif" font-size="10.00">emd_distance</text>
</g>
<!-- emd&#45;&gt;sampling -->
<g id="edge36" class="edge">
<title>emd&#45;&gt;sampling</title>
<path fill="none" stroke="#cc9900" stroke-dasharray="5,2" d="M86.17,-280.14C105.92,-264.56 135.02,-241.61 157.06,-224.23"/>
<polygon fill="#cc9900" stroke="#cc9900" points="159.15,-227.04 164.83,-218.1 154.82,-221.54 159.15,-227.04"/>
</g>
<!-- sampling&#45;&gt;otgpd -->
<g id="edge37" class="edge">
<title>sampling&#45;&gt;otgpd</title>
<path fill="none" stroke="#cc9900" d="M192.63,-180.54C200.83,-153.73 220.65,-102.87 258,-80.08 278.94,-67.31 304.26,-58.33 327.04,-52.16"/>
<polygon fill="#cc9900" stroke="#cc9900" points="327.71,-55.6 336.53,-49.72 325.97,-48.82 327.71,-55.6"/>
<text xml:space="preserve" text-anchor="middle" x="240.46" y="-123.1" font-family="Helvetica,sans-Serif" font-size="8.00">pruning</text>
</g>
<!-- lj -->
<g id="node20" class="node">
<title>lj</title>
<polygon fill="#f5b7b1" stroke="black" points="1367.8,-1116.91 1244.2,-1116.91 1244.2,-1080.91 1367.8,-1080.91 1367.8,-1116.91"/>
<text xml:space="preserve" text-anchor="middle" x="1306" y="-1101.41" font-family="Helvetica,sans-Serif" font-size="10.00">oracles/lennard_jones.jl</text>
<text xml:space="preserve" text-anchor="middle" x="1306" y="-1089.41" font-family="Helvetica,sans-Serif" font-size="10.00">lj_energy_gradient</text>
</g>
<!-- mb -->
<g id="node21" class="node">
<title>mb</title>
<polygon fill="#f5b7b1" stroke="black" points="1539.8,-1116.91 1386.2,-1116.91 1386.2,-1080.91 1539.8,-1080.91 1539.8,-1116.91"/>
<text xml:space="preserve" text-anchor="middle" x="1463" y="-1101.41" font-family="Helvetica,sans-Serif" font-size="10.00">oracles/muller_brown.jl</text>
<text xml:space="preserve" text-anchor="middle" x="1463" y="-1089.41" font-family="Helvetica,sans-Serif" font-size="10.00">muller_brown_energy_gradient</text>
</g>
<!-- leps -->
<g id="node22" class="node">
<title>leps</title>
<polygon fill="#f5b7b1" stroke="black" points="1671.92,-1116.91 1558.08,-1116.91 1558.08,-1080.91 1671.92,-1080.91 1671.92,-1116.91"/>
<text xml:space="preserve" text-anchor="middle" x="1615" y="-1101.41" font-family="Helvetica,sans-Serif" font-size="10.00">oracles/leps.jl</text>
<text xml:space="preserve" text-anchor="middle" x="1615" y="-1089.41" font-family="Helvetica,sans-Serif" font-size="10.00">leps_energy_gradient</text>
</g>
<!-- rpc -->
<g id="node23" class="node">
<title>rpc</title>
<polygon fill="#f5b7b1" stroke="black" points="1767.92,-1116.91 1690.08,-1116.91 1690.08,-1080.91 1767.92,-1080.91 1767.92,-1116.91"/>
<text xml:space="preserve" text-anchor="middle" x="1729" y="-1101.41" font-family="Helvetica,sans-Serif" font-size="10.00">oracles/rpc.jl</text>
<text xml:space="preserve" text-anchor="middle" x="1729" y="-1089.41" font-family="Helvetica,sans-Serif" font-size="10.00">RpcPotential</text>
</g>
<!-- lbfgs -->
<g id="node24" class="node">
<title>lbfgs</title>
<polygon fill="#d5b8e8" stroke="black" points="722.05,-216.83 623.95,-216.83 623.95,-180.83 722.05,-180.83 722.05,-216.83"/>
<text xml:space="preserve" text-anchor="middle" x="673" y="-201.33" font-family="Helvetica,sans-Serif" font-size="10.00">optimizers/lbfgs.jl</text>
<text xml:space="preserve" text-anchor="middle" x="673" y="-189.33" font-family="Helvetica,sans-Serif" font-size="10.00">LBFGSHistory</text>
</g>
<!-- lbfgs&#45;&gt;minimize -->
<g id="edge26" class="edge">
<title>lbfgs&#45;&gt;minimize</title>
<path fill="none" stroke="#993399" d="M672.27,-180.64C671.95,-172.97 671.56,-163.72 671.19,-155.07"/>
<polygon fill="#993399" stroke="#993399" points="674.7,-155.21 670.78,-145.37 667.71,-155.51 674.7,-155.21"/>
</g>
<!-- lbfgs&#45;&gt;dimer -->
<g id="edge27" class="edge">
<title>lbfgs&#45;&gt;dimer</title>
<path fill="none" stroke="#993399" d="M641.2,-180.46C624.28,-171.22 603.26,-159.74 585.01,-149.78"/>
<polygon fill="#993399" stroke="#993399" points="586.71,-146.71 576.25,-144.99 583.35,-152.86 586.71,-146.71"/>
</g>
<!-- trust&#45;&gt;minimize -->
<g id="edge28" class="edge">
<title>trust&#45;&gt;minimize</title>
<path fill="none" stroke="#993399" d="M450.46,-180.42C458.61,-177.73 467.01,-175.1 475,-172.83 527.83,-157.85 544.36,-157.44 600.58,-144.35"/>
<polygon fill="#993399" stroke="#993399" points="601.16,-147.81 610.08,-142.1 599.55,-141 601.16,-147.81"/>
</g>
<!-- trust&#45;&gt;dimer -->
<g id="edge29" class="edge">
<title>trust&#45;&gt;dimer</title>
<path fill="none" stroke="#993399" d="M436.49,-180.46C455.1,-171.09 478.28,-159.42 498.26,-149.36"/>
<polygon fill="#993399" stroke="#993399" points="499.67,-152.57 507.02,-144.95 496.52,-146.32 499.67,-152.57"/>
</g>
<!-- trust&#45;&gt;otgpd -->
<g id="edge30" class="edge">
<title>trust&#45;&gt;otgpd</title>
<path fill="none" stroke="#993399" d="M377.79,-180.42C366.78,-170.99 354.91,-158.3 349,-143.83 338.34,-117.75 352.82,-87.69 367.25,-66.65"/>
<polygon fill="#993399" stroke="#993399" points="370.05,-68.75 373.11,-58.61 364.39,-64.63 370.05,-68.75"/>
</g>
<!-- dimer&#45;&gt;otgpd -->
<g id="edge33" class="edge">
<title>dimer&#45;&gt;otgpd</title>
<path fill="none" stroke="#993399" d="M511.46,-107.47C488.08,-94.59 455.98,-76.92 430.51,-62.9"/>
<polygon fill="#993399" stroke="#993399" points="432.53,-60.01 422.08,-58.26 429.16,-66.14 432.53,-60.01"/>
<text xml:space="preserve" text-anchor="middle" x="489.1" y="-82.23" font-family="Helvetica,sans-Serif" font-size="8.00">extends</text>
</g>
<!-- neb_types -->
<g id="node28" class="node">
<title>neb_types</title>
<polygon fill="#d5b8e8" stroke="black" points="606.05,-216.83 483.95,-216.83 483.95,-180.83 606.05,-180.83 606.05,-216.83"/>
<text xml:space="preserve" text-anchor="middle" x="545" y="-201.33" font-family="Helvetica,sans-Serif" font-size="10.00">optimizers/neb_types.jl</text>
<text xml:space="preserve" text-anchor="middle" x="545" y="-189.33" font-family="Helvetica,sans-Serif" font-size="10.00">NEBPath, NEBConfig</text>
</g>
<!-- neb_path -->
<g id="node29" class="node">
<title>neb_path</title>
<polygon fill="#d5b8e8" stroke="black" points="474.43,-143.83 357.57,-143.83 357.57,-107.83 474.43,-107.83 474.43,-143.83"/>
<text xml:space="preserve" text-anchor="middle" x="416" y="-128.33" font-family="Helvetica,sans-Serif" font-size="10.00">optimizers/neb_path.jl</text>
<text xml:space="preserve" text-anchor="middle" x="416" y="-116.33" font-family="Helvetica,sans-Serif" font-size="10.00">tangent, spring, force</text>
</g>
<!-- neb_types&#45;&gt;neb_path -->
<g id="edge31" class="edge">
<title>neb_types&#45;&gt;neb_path</title>
<path fill="none" stroke="#993399" d="M513.44,-180.46C496.65,-171.22 475.8,-159.74 457.69,-149.78"/>
<polygon fill="#993399" stroke="#993399" points="459.45,-146.75 449,-145 456.08,-152.88 459.45,-146.75"/>
</g>
<!-- neb_path&#45;&gt;neb -->
<g id="edge32" class="edge">
<title>neb_path&#45;&gt;neb</title>
<path fill="none" stroke="#993399" d="M445.04,-107.5C453.34,-102.16 462.23,-96.04 470,-89.83 477.5,-83.83 485.15,-76.9 492.15,-70.14"/>
<polygon fill="#993399" stroke="#993399" points="494.3,-72.93 498.96,-63.42 489.39,-67.95 494.3,-72.93"/>
</g>
</g>
</svg>
