<?xml version="1.0" encoding="UTF-8" standalone="no"?>
<!DOCTYPE svg PUBLIC "-//W3C//DTD SVG 1.1//EN"
 "http://www.w3.org/Graphics/SVG/1.1/DTD/svg11.dtd">
<!-- Generated by graphviz version 14.1.2 (0)
 -->
<!-- Title: neb_variants Pages: 1 -->
<svg width="1008pt" height="723pt"
 viewBox="0.00 0.00 1008.00 723.00" xmlns="http://www.w3.org/2000/svg" xmlns:xlink="http://www.w3.org/1999/xlink">
<g id="graph0" class="graph" transform="scale(1 1) rotate(0) translate(4 718.89)">
<title>neb_variants</title>
<polygon fill="white" stroke="none" points="-4,4 -4,-718.89 1004,-718.89 1004,4 -4,4"/>
<text xml:space="preserve" text-anchor="middle" x="500" y="-697.59" font-family="Helvetica,sans-Serif" font-size="14.00">NEB Method Variants: Oracle Call Reduction</text>
<g id="clust1" class="cluster">
<title>cluster_standard</title>
<polygon fill="#fff3e0" stroke="#ffcc80" points="8,-121.91 8,-569.56 291,-569.56 291,-121.91 8,-121.91"/>
<text xml:space="preserve" text-anchor="middle" x="149.5" y="-552.26" font-family="Helvetica,sans-Serif" font-size="14.00">neb_optimize &#160;(Standard NEB)</text>
</g>
<g id="clust2" class="cluster">
<title>cluster_aie</title>
<polygon fill="#fffef0" stroke="#ffe599" points="310,-8 310,-569.56 574,-569.56 574,-8 310,-8"/>
<text xml:space="preserve" text-anchor="middle" x="442" y="-552.26" font-family="Helvetica,sans-Serif" font-size="14.00">gp_neb_aie &#160;(All Images Evaluated)</text>
</g>
<g id="clust3" class="cluster">
<title>cluster_oie</title>
<polygon fill="#f0fff0" stroke="#c8e6c9" points="588,-8 588,-569.56 823,-569.56 823,-8 588,-8"/>
<text xml:space="preserve" text-anchor="middle" x="705.5" y="-552.26" font-family="Helvetica,sans-Serif" font-size="14.00">gp_neb_oie &#160;(One Image Evaluated)</text>
</g>
<g id="clust4" class="cluster">
<title>cluster_cost</title>
<polygon fill="#f9f5ff" stroke="#e1d5e7" points="831,-391.9 831,-683.14 992,-683.14 992,-391.9 831,-391.9"/>
<text xml:space="preserve" text-anchor="middle" x="911.5" y="-665.84" font-family="Helvetica,sans-Serif" font-size="14.00">Oracle Call Comparison</text>
</g>
<!-- init -->
<g id="node1" class="node">
<title>init</title>
<polygon fill="#e8e8e8" stroke="black" points="551.67,-651.39 430.32,-651.39 430.32,-605.31 551.67,-605.31 551.67,-651.39"/>
<text xml:space="preserve" text-anchor="middle" x="491" y="-636.85" font-family="Helvetica,sans-Serif" font-size="10.00">Linear Interpolation</text>
<text xml:space="preserve" text-anchor="middle" x="491" y="-624.85" font-family="Helvetica,sans-Serif" font-size="10.00">N images between</text>
<text xml:space="preserve" text-anchor="middle" x="491" y="-612.85" font-family="Helvetica,sans-Serif" font-size="10.00">reactant u2192 product</text>
</g>
<!-- std_eval -->
<g id="node2" class="node">
<title>std_eval</title>
<polygon fill="#ffcc80" stroke="black" points="282.68,-537.81 173.32,-537.81 173.32,-491.73 282.68,-491.73 282.68,-537.81"/>
<text xml:space="preserve" text-anchor="middle" x="228" y="-523.27" font-family="Helvetica,sans-Serif" font-size="10.00">Oracle at ALL</text>
<text xml:space="preserve" text-anchor="middle" x="228" y="-511.27" font-family="Helvetica,sans-Serif" font-size="10.00">intermediate images</text>
<text xml:space="preserve" text-anchor="middle" x="228" y="-499.27" font-family="Helvetica,sans-Serif" font-size="10.00">(N&#45;2 calls/iter)</text>
</g>
<!-- init&#45;&gt;std_eval -->
<g id="edge1" class="edge">
<title>init&#45;&gt;std_eval</title>
<path fill="none" stroke="black" d="M430.01,-614.64C391.45,-605.23 341.28,-590.41 300,-569.56 286.92,-562.95 273.75,-553.96 262.32,-545.21"/>
<polygon fill="black" stroke="black" points="264.76,-542.68 254.74,-539.24 260.43,-548.18 264.76,-542.68"/>
</g>
<!-- aie_outer -->
<g id="node7" class="node">
<title>aie_outer</title>
<polygon fill="#ffe599" stroke="black" points="552.05,-537.81 429.95,-537.81 429.95,-491.73 552.05,-491.73 552.05,-537.81"/>
<text xml:space="preserve" text-anchor="middle" x="491" y="-523.27" font-family="Helvetica,sans-Serif" font-size="10.00">OUTER: Oracle at ALL</text>
<text xml:space="preserve" text-anchor="middle" x="491" y="-511.27" font-family="Helvetica,sans-Serif" font-size="10.00">intermediate images</text>
<text xml:space="preserve" text-anchor="middle" x="491" y="-499.27" font-family="Helvetica,sans-Serif" font-size="10.00">(N&#45;2 calls/outer iter)</text>
</g>
<!-- init&#45;&gt;aie_outer -->
<g id="edge7" class="edge">
<title>init&#45;&gt;aie_outer</title>
<path fill="none" stroke="black" d="M491,-605.04C491,-589.15 491,-567.51 491,-549.52"/>
<polygon fill="black" stroke="black" points="494.5,-549.56 491,-539.56 487.5,-549.56 494.5,-549.56"/>
</g>
<!-- oie_select -->
<g id="node13" class="node">
<title>oie_select</title>
<polygon fill="#c8e6c9" stroke="black" points="723.67,-537.81 602.33,-537.81 602.33,-491.73 723.67,-491.73 723.67,-537.81"/>
<text xml:space="preserve" text-anchor="middle" x="663" y="-523.27" font-family="Helvetica,sans-Serif" font-size="10.00">Select image with</text>
<text xml:space="preserve" text-anchor="middle" x="663" y="-511.27" font-family="Helvetica,sans-Serif" font-size="10.00">highest GP uncertainty</text>
<text xml:space="preserve" text-anchor="middle" x="663" y="-499.27" font-family="Helvetica,sans-Serif" font-size="10.00">u03c3u00b2_max</text>
</g>
<!-- init&#45;&gt;oie_select -->
<g id="edge15" class="edge">
<title>init&#45;&gt;oie_select</title>
<path fill="none" stroke="black" d="M527.88,-604.92C545.05,-594.36 565.68,-581.48 584,-569.56 596.29,-561.56 609.51,-552.68 621.55,-544.47"/>
<polygon fill="black" stroke="black" points="623.39,-547.45 629.67,-538.91 619.44,-541.67 623.39,-547.45"/>
</g>
<!-- std_forces -->
<g id="node3" class="node">
<title>std_forces</title>
<polygon fill="#ffcc80" stroke="black" points="211.68,-440.94 96.33,-440.94 96.33,-404.94 211.68,-404.94 211.68,-440.94"/>
<text xml:space="preserve" text-anchor="middle" x="154" y="-425.44" font-family="Helvetica,sans-Serif" font-size="10.00">Compute NEB forces</text>
<text xml:space="preserve" text-anchor="middle" x="154" y="-413.44" font-family="Helvetica,sans-Serif" font-size="10.00">tangent + spring</text>
</g>
<!-- std_eval&#45;&gt;std_forces -->
<g id="edge2" class="edge">
<title>std_eval&#45;&gt;std_forces</title>
<path fill="none" stroke="black" d="M209.71,-491.56C199.34,-478.99 186.33,-463.18 175.48,-450.01"/>
<polygon fill="black" stroke="black" points="178.4,-448.05 169.34,-442.56 173,-452.5 178.4,-448.05"/>
</g>
<!-- std_ci -->
<g id="node5" class="node">
<title>std_ci</title>
<polygon fill="#ffe0b2" stroke="black" points="188.18,-362.9 15.83,-362.9 15.83,-316.82 188.18,-316.82 188.18,-362.9"/>
<text xml:space="preserve" text-anchor="middle" x="102" y="-348.36" font-family="Helvetica,sans-Serif" font-size="10.00">Climbing Image</text>
<text xml:space="preserve" text-anchor="middle" x="102" y="-336.36" font-family="Helvetica,sans-Serif" font-size="10.00">(if activated)</text>
<text xml:space="preserve" text-anchor="middle" x="102" y="-324.36" font-family="Helvetica,sans-Serif" font-size="10.00">F_ci = &#45;G + 2(Gu00b7u03c4)u03c4</text>
</g>
<!-- std_forces&#45;&gt;std_ci -->
<g id="edge3" class="edge">
<title>std_forces&#45;&gt;std_ci</title>
<path fill="none" stroke="black" d="M142.97,-404.75C137.04,-395.49 129.52,-383.78 122.56,-372.91"/>
<polygon fill="black" stroke="black" points="125.53,-371.07 117.19,-364.54 119.64,-374.85 125.53,-371.07"/>
</g>
<!-- std_step -->
<g id="node4" class="node">
<title>std_step</title>
<polygon fill="#ffcc80" stroke="black" points="195.8,-271.07 78.2,-271.07 78.2,-235.07 195.8,-235.07 195.8,-271.07"/>
<text xml:space="preserve" text-anchor="middle" x="137" y="-255.57" font-family="Helvetica,sans-Serif" font-size="10.00">Steepest descent</text>
<text xml:space="preserve" text-anchor="middle" x="137" y="-243.57" font-family="Helvetica,sans-Serif" font-size="10.00">images += dt u00b7 F</text>
</g>
<!-- std_conv -->
<g id="node6" class="node">
<title>std_conv</title>
<polygon fill="#fff3e0" stroke="black" points="171,-198.07 93.15,-163.99 171,-129.91 248.85,-163.99 171,-198.07"/>
<text xml:space="preserve" text-anchor="middle" x="171" y="-166.49" font-family="Helvetica,sans-Serif" font-size="10.00">Converged?</text>
<text xml:space="preserve" text-anchor="middle" x="171" y="-154.49" font-family="Helvetica,sans-Serif" font-size="10.00">max||F|| &lt; tol</text>
</g>
<!-- std_step&#45;&gt;std_conv -->
<g id="edge5" class="edge">
<title>std_step&#45;&gt;std_conv</title>
<path fill="none" stroke="black" d="M143.72,-234.87C147.17,-226.02 151.53,-214.85 155.75,-204.05"/>
<polygon fill="black" stroke="black" points="158.95,-205.47 159.33,-194.88 152.43,-202.92 158.95,-205.47"/>
</g>
<!-- std_ci&#45;&gt;std_step -->
<g id="edge4" class="edge">
<title>std_ci&#45;&gt;std_step</title>
<path fill="none" stroke="black" d="M111.2,-316.58C115.57,-305.98 120.85,-293.2 125.49,-281.97"/>
<polygon fill="black" stroke="black" points="128.7,-283.36 129.28,-272.78 122.23,-280.69 128.7,-283.36"/>
</g>
<!-- std_conv&#45;&gt;std_eval -->
<g id="edge6" class="edge">
<title>std_conv&#45;&gt;std_eval</title>
<path fill="none" stroke="black" stroke-dasharray="5,2" d="M212,-180.61C240.73,-194.53 274,-218 274,-252.07 274,-423.94 274,-423.94 274,-423.94 274,-444.88 263.97,-465.86 253.28,-482.26"/>
<polygon fill="black" stroke="black" points="250.65,-479.9 247.84,-490.12 256.41,-483.89 250.65,-479.9"/>
<text xml:space="preserve" text-anchor="middle" x="278.5" y="-337.13" font-family="Helvetica,sans-Serif" font-size="8.00">no</text>
</g>
<!-- aie_train -->
<g id="node8" class="node">
<title>aie_train</title>
<polygon fill="#ffe599" stroke="black" points="509.93,-445.98 420.07,-445.98 420.07,-399.9 509.93,-399.9 509.93,-445.98"/>
<text xml:space="preserve" text-anchor="middle" x="465" y="-431.44" font-family="Helvetica,sans-Serif" font-size="10.00">Train GP on</text>
<text xml:space="preserve" text-anchor="middle" x="465" y="-419.44" font-family="Helvetica,sans-Serif" font-size="10.00">all accumulated</text>
<text xml:space="preserve" text-anchor="middle" x="465" y="-407.44" font-family="Helvetica,sans-Serif" font-size="10.00">oracle data</text>
</g>
<!-- aie_outer&#45;&gt;aie_train -->
<g id="edge8" class="edge">
<title>aie_outer&#45;&gt;aie_train</title>
<path fill="none" stroke="black" d="M484.57,-491.56C481.57,-481.2 477.94,-468.64 474.62,-457.18"/>
<polygon fill="black" stroke="black" points="478.01,-456.29 471.86,-447.65 471.28,-458.23 478.01,-456.29"/>
</g>
<!-- aie_inner -->
<g id="node9" class="node">
<title>aie_inner</title>
<polygon fill="#fff9c4" stroke="black" points="512.92,-362.9 405.07,-362.9 405.07,-316.82 512.92,-316.82 512.92,-362.9"/>
<text xml:space="preserve" text-anchor="middle" x="459" y="-348.36" font-family="Helvetica,sans-Serif" font-size="10.00">INNER: Relax path</text>
<text xml:space="preserve" text-anchor="middle" x="459" y="-336.36" font-family="Helvetica,sans-Serif" font-size="10.00">on GP surface</text>
<text xml:space="preserve" text-anchor="middle" x="459" y="-324.36" font-family="Helvetica,sans-Serif" font-size="10.00">(many cheap steps)</text>
</g>
<!-- aie_train&#45;&gt;aie_inner -->
<g id="edge9" class="edge">
<title>aie_train&#45;&gt;aie_inner</title>
<path fill="none" stroke="black" d="M463.36,-399.78C462.78,-391.98 462.12,-383.03 461.49,-374.5"/>
<polygon fill="black" stroke="black" points="465,-374.49 460.77,-364.78 458.02,-375.01 465,-374.49"/>
</g>
<!-- aie_forces -->
<g id="node10" class="node">
<title>aie_forces</title>
<polygon fill="#fff9c4" stroke="black" points="426.3,-271.07 317.7,-271.07 317.7,-235.07 426.3,-235.07 426.3,-271.07"/>
<text xml:space="preserve" text-anchor="middle" x="372" y="-255.57" font-family="Helvetica,sans-Serif" font-size="10.00">NEB forces</text>
<text xml:space="preserve" text-anchor="middle" x="372" y="-243.57" font-family="Helvetica,sans-Serif" font-size="10.00">from GP predictions</text>
</g>
<!-- aie_inner&#45;&gt;aie_forces -->
<g id="edge10" class="edge">
<title>aie_inner&#45;&gt;aie_forces</title>
<path fill="none" stroke="black" d="M436.14,-316.58C424.36,-305.1 409.95,-291.06 397.78,-279.19"/>
<polygon fill="black" stroke="black" points="400.45,-276.91 390.85,-272.44 395.57,-281.92 400.45,-276.91"/>
</g>
<!-- aie_conv_inner -->
<g id="node11" class="node">
<title>aie_conv_inner</title>
<polygon fill="#fffef0" stroke="black" points="441,-181.99 361.23,-163.99 441,-145.99 520.77,-163.99 441,-181.99"/>
<text xml:space="preserve" text-anchor="middle" x="441" y="-160.49" font-family="Helvetica,sans-Serif" font-size="10.00">GP converged?</text>
</g>
<!-- aie_forces&#45;&gt;aie_conv_inner -->
<g id="edge11" class="edge">
<title>aie_forces&#45;&gt;aie_conv_inner</title>
<path fill="none" stroke="black" d="M385.63,-234.87C396.07,-221.69 410.59,-203.37 422.14,-188.79"/>
<polygon fill="black" stroke="black" points="424.83,-191.04 428.29,-181.03 419.34,-186.69 424.83,-191.04"/>
</g>
<!-- aie_conv_inner&#45;&gt;aie_inner -->
<g id="edge12" class="edge">
<title>aie_conv_inner&#45;&gt;aie_inner</title>
<path fill="none" stroke="black" stroke-dasharray="5,2" d="M442.77,-182.06C445.72,-210.57 451.71,-268.4 455.53,-305.3"/>
<polygon fill="black" stroke="black" points="452.02,-305.39 456.53,-314.98 458.98,-304.67 452.02,-305.39"/>
<text xml:space="preserve" text-anchor="middle" x="456.44" y="-250.34" font-family="Helvetica,sans-Serif" font-size="8.00">no</text>
</g>
<!-- aie_conv_outer -->
<g id="node12" class="node">
<title>aie_conv_outer</title>
<polygon fill="#fffef0" stroke="black" points="468,-84.16 396.15,-50.08 468,-16 539.85,-50.08 468,-84.16"/>
<text xml:space="preserve" text-anchor="middle" x="468" y="-52.58" font-family="Helvetica,sans-Serif" font-size="10.00">True forces</text>
<text xml:space="preserve" text-anchor="middle" x="468" y="-40.58" font-family="Helvetica,sans-Serif" font-size="10.00">converged?</text>
</g>
<!-- aie_conv_inner&#45;&gt;aie_conv_outer -->
<g id="edge13" class="edge">
<title>aie_conv_inner&#45;&gt;aie_conv_outer</title>
<path fill="none" stroke="black" d="M444.98,-146.48C448.43,-132.21 453.55,-110.99 458.08,-92.18"/>
<polygon fill="black" stroke="black" points="461.45,-93.17 460.39,-82.63 454.64,-91.53 461.45,-93.17"/>
<text xml:space="preserve" text-anchor="middle" x="461.31" y="-104.31" font-family="Helvetica,sans-Serif" font-size="8.00">yes</text>
</g>
<!-- aie_conv_outer&#45;&gt;aie_outer -->
<g id="edge14" class="edge">
<title>aie_conv_outer&#45;&gt;aie_outer</title>
<path fill="none" stroke="black" stroke-dasharray="5,2" d="M497.91,-70.5C514.27,-82.99 532.99,-100.81 542,-121.91 570.3,-188.18 551.52,-376.91 531,-445.98 527.31,-458.42 520.85,-470.95 514.19,-481.8"/>
<polygon fill="black" stroke="black" points="511.4,-479.67 508.91,-489.97 517.28,-483.47 511.4,-479.67"/>
<text xml:space="preserve" text-anchor="middle" x="558.85" y="-291.22" font-family="Helvetica,sans-Serif" font-size="8.00">no</text>
</g>
<!-- oie_eval -->
<g id="node14" class="node">
<title>oie_eval</title>
<polygon fill="#c8e6c9" stroke="black" points="714.3,-445.98 611.7,-445.98 611.7,-399.9 714.3,-399.9 714.3,-445.98"/>
<text xml:space="preserve" text-anchor="middle" x="663" y="-431.44" font-family="Helvetica,sans-Serif" font-size="10.00">OUTER: Oracle at</text>
<text xml:space="preserve" text-anchor="middle" x="663" y="-419.44" font-family="Helvetica,sans-Serif" font-size="10.00">SINGLE image</text>
<text xml:space="preserve" text-anchor="middle" x="663" y="-407.44" font-family="Helvetica,sans-Serif" font-size="10.00">(1 call/outer iter)</text>
</g>
<!-- oie_select&#45;&gt;oie_eval -->
<g id="edge16" class="edge">
<title>oie_select&#45;&gt;oie_eval</title>
<path fill="none" stroke="black" d="M663,-491.56C663,-481.31 663,-468.91 663,-457.54"/>
<polygon fill="black" stroke="black" points="666.5,-457.71 663,-447.71 659.5,-457.71 666.5,-457.71"/>
</g>
<!-- oie_train -->
<g id="node15" class="node">
<title>oie_train</title>
<polygon fill="#c8e6c9" stroke="black" points="707.92,-362.9 618.08,-362.9 618.08,-316.82 707.92,-316.82 707.92,-362.9"/>
<text xml:space="preserve" text-anchor="middle" x="663" y="-348.36" font-family="Helvetica,sans-Serif" font-size="10.00">Train GP on</text>
<text xml:space="preserve" text-anchor="middle" x="663" y="-336.36" font-family="Helvetica,sans-Serif" font-size="10.00">all accumulated</text>
<text xml:space="preserve" text-anchor="middle" x="663" y="-324.36" font-family="Helvetica,sans-Serif" font-size="10.00">oracle data</text>
</g>
<!-- oie_eval&#45;&gt;oie_train -->
<g id="edge17" class="edge">
<title>oie_eval&#45;&gt;oie_train</title>
<path fill="none" stroke="black" d="M663,-399.78C663,-391.98 663,-383.03 663,-374.5"/>
<polygon fill="black" stroke="black" points="666.5,-374.78 663,-364.78 659.5,-374.78 666.5,-374.78"/>
</g>
<!-- oie_inner -->
<g id="node16" class="node">
<title>oie_inner</title>
<polygon fill="#e8f5e9" stroke="black" points="716.55,-271.07 609.45,-271.07 609.45,-235.07 716.55,-235.07 716.55,-271.07"/>
<text xml:space="preserve" text-anchor="middle" x="663" y="-255.57" font-family="Helvetica,sans-Serif" font-size="10.00">INNER: Relax path</text>
<text xml:space="preserve" text-anchor="middle" x="663" y="-243.57" font-family="Helvetica,sans-Serif" font-size="10.00">on GP surface</text>
</g>
<!-- oie_train&#45;&gt;oie_inner -->
<g id="edge18" class="edge">
<title>oie_train&#45;&gt;oie_inner</title>
<path fill="none" stroke="black" d="M663,-316.58C663,-306.2 663,-293.73 663,-282.67"/>
<polygon fill="black" stroke="black" points="666.5,-282.9 663,-272.9 659.5,-282.9 666.5,-282.9"/>
</g>
<!-- oie_forces -->
<g id="node17" class="node">
<title>oie_forces</title>
<polygon fill="#e8f5e9" stroke="black" points="717.3,-181.99 608.7,-181.99 608.7,-145.99 717.3,-145.99 717.3,-181.99"/>
<text xml:space="preserve" text-anchor="middle" x="663" y="-166.49" font-family="Helvetica,sans-Serif" font-size="10.00">NEB forces</text>
<text xml:space="preserve" text-anchor="middle" x="663" y="-154.49" font-family="Helvetica,sans-Serif" font-size="10.00">from GP predictions</text>
</g>
<!-- oie_inner&#45;&gt;oie_forces -->
<g id="edge19" class="edge">
<title>oie_inner&#45;&gt;oie_forces</title>
<path fill="none" stroke="black" d="M663,-234.87C663,-223.13 663,-207.32 663,-193.7"/>
<polygon fill="black" stroke="black" points="666.5,-193.97 663,-183.97 659.5,-193.97 666.5,-193.97"/>
</g>
<!-- oie_conv -->
<g id="node18" class="node">
<title>oie_conv</title>
<polygon fill="#f0fff0" stroke="black" points="709,-84.16 637.15,-50.08 709,-16 780.85,-50.08 709,-84.16"/>
<text xml:space="preserve" text-anchor="middle" x="709" y="-52.58" font-family="Helvetica,sans-Serif" font-size="10.00">True forces</text>
<text xml:space="preserve" text-anchor="middle" x="709" y="-40.58" font-family="Helvetica,sans-Serif" font-size="10.00">converged?</text>
</g>
<!-- oie_forces&#45;&gt;oie_conv -->
<g id="edge20" class="edge">
<title>oie_forces&#45;&gt;oie_conv</title>
<path fill="none" stroke="black" d="M670.19,-145.5C676.34,-130.53 685.42,-108.44 693.26,-89.38"/>
<polygon fill="black" stroke="black" points="696.43,-90.87 696.99,-80.29 689.96,-88.21 696.43,-90.87"/>
</g>
<!-- oie_conv&#45;&gt;oie_select -->
<g id="edge21" class="edge">
<title>oie_conv&#45;&gt;oie_select</title>
<path fill="none" stroke="black" stroke-dasharray="5,2" d="M727.77,-75.36C742.67,-97.08 761,-130.43 761,-162.99 761,-423.94 761,-423.94 761,-423.94 761,-449.88 742.12,-470.35 720.93,-485.16"/>
<polygon fill="black" stroke="black" points="719.15,-482.14 712.69,-490.54 722.98,-488 719.15,-482.14"/>
<text xml:space="preserve" text-anchor="middle" x="765.5" y="-291.22" font-family="Helvetica,sans-Serif" font-size="8.00">no</text>
</g>
<!-- cost_std -->
<g id="node19" class="node">
<title>cost_std</title>
<polygon fill="#ffcc80" stroke="black" points="973.55,-651.39 848.45,-651.39 848.45,-605.31 973.55,-605.31 973.55,-651.39"/>
<text xml:space="preserve" text-anchor="middle" x="911" y="-636.85" font-family="Helvetica,sans-Serif" font-size="10.00">Standard NEB</text>
<text xml:space="preserve" text-anchor="middle" x="911" y="-624.85" font-family="Helvetica,sans-Serif" font-size="10.00">(N&#45;2) u00d7 iterations</text>
<text xml:space="preserve" text-anchor="middle" x="911" y="-612.85" font-family="Helvetica,sans-Serif" font-size="10.00">u2248 hundreds of calls</text>
</g>
<!-- cost_aie -->
<g id="node20" class="node">
<title>cost_aie</title>
<polygon fill="#ffe599" stroke="black" points="971.67,-537.81 850.33,-537.81 850.33,-491.73 971.67,-491.73 971.67,-537.81"/>
<text xml:space="preserve" text-anchor="middle" x="911" y="-523.27" font-family="Helvetica,sans-Serif" font-size="10.00">GP&#45;NEB&#45;AIE</text>
<text xml:space="preserve" text-anchor="middle" x="911" y="-511.27" font-family="Helvetica,sans-Serif" font-size="10.00">(N&#45;2) u00d7 outer_iters</text>
<text xml:space="preserve" text-anchor="middle" x="911" y="-499.27" font-family="Helvetica,sans-Serif" font-size="10.00">u2248 tens of calls</text>
</g>
<!-- cost_std&#45;&gt;cost_aie -->
<g id="edge22" class="edge">
<title>cost_std&#45;&gt;cost_aie</title>
<path fill="none" stroke="#339933" stroke-width="2" d="M911,-605.04C911,-589.15 911,-567.51 911,-549.52"/>
<polygon fill="#339933" stroke="#339933" stroke-width="2" points="914.5,-551.07 911,-541.07 907.5,-551.07 914.5,-551.07"/>
<text xml:space="preserve" text-anchor="middle" x="921.12" y="-579.71" font-family="Helvetica,sans-Serif" font-size="8.00">fewer</text>
</g>
<!-- cost_oie -->
<g id="node21" class="node">
<title>cost_oie</title>
<polygon fill="#c8e6c9" stroke="black" points="963.42,-445.98 858.58,-445.98 858.58,-399.9 963.42,-399.9 963.42,-445.98"/>
<text xml:space="preserve" text-anchor="middle" x="911" y="-431.44" font-family="Helvetica,sans-Serif" font-size="10.00">GP&#45;NEB&#45;OIE</text>
<text xml:space="preserve" text-anchor="middle" x="911" y="-419.44" font-family="Helvetica,sans-Serif" font-size="10.00">1 u00d7 outer_iters</text>
<text xml:space="preserve" text-anchor="middle" x="911" y="-407.44" font-family="Helvetica,sans-Serif" font-size="10.00">u2248 few calls</text>
</g>
<!-- cost_aie&#45;&gt;cost_oie -->
<g id="edge23" class="edge">
<title>cost_aie&#45;&gt;cost_oie</title>
<path fill="none" stroke="#339933" stroke-width="2" d="M911,-491.56C911,-481.31 911,-468.91 911,-457.54"/>
<polygon fill="#339933" stroke="#339933" stroke-width="2" points="914.5,-459.23 911,-449.23 907.5,-459.23 914.5,-459.23"/>
<text xml:space="preserve" text-anchor="middle" x="921.12" y="-466.13" font-family="Helvetica,sans-Serif" font-size="8.00">fewer</text>
</g>
</g>
</svg>
